<?xml version="1.0" encoding="utf-8"?>
<!-- Generator: Adobe Illustrator 25.3.1, SVG Export Plug-In . SVG Version: 6.00 Build 0)  -->
<svg version="1.1" id="圖層_1" xmlns="http://www.w3.org/2000/svg" xmlns:xlink="http://www.w3.org/1999/xlink" x="0px" y="0px"
	 viewBox="0 0 400 80" style="enable-background:new 0 0 400 80;" xml:space="preserve">
<style type="text/css">
	.st0{fill:#333333;}
	.st1{font-family:'SourceHanSansTC-Medium-B5pc-H';}
	.st2{font-size:48px;}
	.st3{letter-spacing:4;}
	.st4{fill:#ED5D15;}
	.st5{font-size:23px;}
	.st6{fill:#B9B9B9;}
	.st7{fill:#E3E4E4;}
	.st8{fill:#FFFFFF;}
	.st9{fill:#EB631F;}
</style>
<g>
	<text transform="matrix(1 0 0 1 130.0002 42.0428)" class="st0 st1 st2 st3">就愛和你拍</text>
</g>
<g>
	<text transform="matrix(1 0 0 1 128.8 74.8822)" class="st4 st1 st5">〈傘人家族〉創意合照競賽</text>
</g>
<g>
	<g>
		
			<image style="overflow:visible;opacity:0.5;" width="112" height="86" xlink:href="951254D3470B400D.png"  transform="matrix(1 0 0 1 1 -2)">
		</image>
		<g>
			<path class="st6" d="M94.6,5.2C91,3.4,87,2.5,83.1,2.5c-4.3,0-8.3,1.2-11.3,3.3c-0.2,0.1-0.5,0.3-0.9,0.5
				C66,3.9,59.3,2.5,51.8,2.5c-11.7,0-21.7,3.6-25.5,8.7C26,11.1,25.7,11,25.4,11c-0.8,0-1.4,0.2-1.8,0.3c-0.1,0-0.1,0-0.2,0.1
				c-0.2,0-0.5,0.1-0.9,0.1c-0.8,0.1-1.9,0.2-2.7,0.2c-0.1,0-0.3,0-0.4,0c-0.1,0-0.2,0-0.4,0c-1.9,0-4,1-4.7,1.5
				c-1,0.7-1.5,1.4-1.9,2.1c-0.3,0.5-0.6,0.9-1.1,1.3c-3.2,2.5-3.9,3.8-4.2,4.6c-0.7,2.3-0.1,5.2,2.6,6.2c0.4,0.5,1.1,1.1,2.4,1.1
				c0.4,0,0.9-0.1,1.4-0.1c-0.7,1.7-1.5,4.1-1.5,7c0,3.2,1.7,5.8,3.3,7.7L8.2,59.2c0,0.1-0.1,0.1-0.1,0.2c-0.2,0.6-0.3,1.3-0.3,2
				c0,3.1,3,5.6,8,7l0,4.1c0,0.9,0.6,1.8,1.5,2c4.2,1.3,4.8,1.3,5.1,1.3c0,0,0.1,0,0.1,0c0.9,0,2.2-0.5,2.9-1.6
				c0.1-0.1,0.2-0.3,0.2-0.4c2.8,0.7,3.3,0.7,3.5,0.7c0.1,0,0.2,0,0.2,0c0.9-0.1,2.2-0.6,2.9-1.7c0.6-0.9,0.7-2.1,0.3-3.3
				c-0.2-0.5-0.4-0.9-0.6-1.2c1.9-0.5,3.3-1.2,4.4-2c1.7,1.1,3.8,1.7,5.6,2.1l0,4.2c0,0.9,0.6,1.8,1.5,2c4.2,1.3,4.8,1.3,5.1,1.3
				c0,0,0.1,0,0.1,0c0.9,0,2.2-0.5,2.9-1.6c0.1-0.1,0.2-0.3,0.2-0.4c2.8,0.7,3.3,0.7,3.5,0.7c0.1,0,0.2,0,0.2,0
				c0.9-0.1,2.2-0.6,2.9-1.7c0.6-0.9,0.7-2.1,0.2-3.3c-0.3-0.7-0.6-1.2-1-1.7c1.1-0.3,2.2-0.7,3.1-1.2c1.3,0.5,3.5,1.2,6.4,1.8
				c-0.1,0.2-0.2,0.5-0.3,0.8c-0.4,1.3-0.3,2.5,0.3,3.5c0.8,1.2,2.1,1.7,3.1,1.8c0.1,0,0.1,0,0.2,0c0.2,0,0.7,0,3.5-0.7
				c0.1,0.2,0.2,0.3,0.3,0.5c0.8,1.2,2.2,1.6,3.1,1.7c0,0,0.1,0,0.1,0c0.3,0,1,0,5.7-1.5c0.9-0.3,1.5-1.1,1.5-2l-0.1-3.4
				c2.6-0.3,4.7-0.6,6-0.9c3.6-0.7,3.7-1,4.1-1.7c0.2-0.3,0.7-1.1,0.1-12.4c-0.3-5.7-0.9-13.8-2.5-20.4c2.7,0.9,5.1,1.4,7.2,1.4
				c0,0,0,0,0,0c4,0,6.6-1.9,7.2-5.2C107.8,23.5,106.5,11.3,94.6,5.2z M36.1,54.9l-4.5-12.7c1.2,0.4,2.6,0.6,4.3,0.6
				c0.9,0,1.8,0,2.7-0.1c0.2,1.4,0.6,2.7,1.2,3.9L36.1,54.9z"/>
		</g>
	</g>
	<path class="st7" d="M94.6,3.8C91,2,87,1,83.1,1c-4.3,0-8.3,1.2-11.3,3.3c-0.2,0.1-0.5,0.3-0.9,0.5C66,2.5,59.3,1,51.8,1
		C40.1,1,30.1,4.6,26.3,9.7c-0.3-0.1-0.5-0.2-0.8-0.2c-0.8,0-1.4,0.2-1.8,0.3c-0.1,0-0.1,0-0.2,0.1c-0.2,0-0.5,0.1-0.9,0.1
		c-0.8,0.1-1.9,0.2-2.7,0.2c-0.1,0-0.3,0-0.4,0c-0.1,0-0.2,0-0.4,0c-1.9,0-4,1-4.7,1.5c-1,0.7-1.5,1.4-1.9,2.1
		c-0.3,0.5-0.6,0.9-1.1,1.3c-3.2,2.5-3.9,3.8-4.2,4.6c-0.7,2.3-0.1,5.2,2.6,6.2c0.4,0.5,1.1,1.1,2.4,1.1c0.4,0,0.9-0.1,1.4-0.1
		c-0.7,1.7-1.5,4.1-1.5,7c0,3.2,1.7,5.8,3.3,7.7L8.2,57.8c0,0.1-0.1,0.1-0.1,0.2c-0.2,0.6-0.3,1.3-0.3,2c0,3.1,3,5.6,8,7l0,4.1
		c0,0.9,0.6,1.8,1.5,2c4.2,1.3,4.8,1.3,5.1,1.3c0,0,0.1,0,0.1,0c0.9,0,2.2-0.5,2.9-1.6c0.1-0.1,0.2-0.3,0.2-0.4
		C28.5,73,29,73,29.2,73c0.1,0,0.2,0,0.2,0c0.9-0.1,2.2-0.6,2.9-1.7c0.6-0.9,0.7-2.1,0.3-3.3c-0.2-0.5-0.4-0.9-0.6-1.2
		c1.9-0.5,3.3-1.2,4.4-2c1.7,1.1,3.8,1.7,5.6,2.1l0,4.2c0,0.9,0.6,1.8,1.5,2c4.2,1.3,4.8,1.3,5.1,1.3c0,0,0.1,0,0.1,0
		c0.9,0,2.2-0.5,2.9-1.6c0.1-0.1,0.2-0.3,0.2-0.4c2.8,0.7,3.3,0.7,3.5,0.7c0.1,0,0.2,0,0.2,0c0.9-0.1,2.2-0.6,2.9-1.7
		c0.6-0.9,0.7-2.1,0.2-3.3c-0.3-0.7-0.6-1.2-1-1.7c1.1-0.3,2.2-0.7,3.1-1.2c1.3,0.5,3.5,1.2,6.4,1.8c-0.1,0.2-0.2,0.5-0.3,0.8
		c-0.4,1.3-0.3,2.5,0.3,3.5c0.8,1.2,2.1,1.7,3.1,1.8c0.1,0,0.1,0,0.2,0c0.2,0,0.7,0,3.5-0.7c0.1,0.2,0.2,0.3,0.3,0.5
		c0.8,1.2,2.2,1.6,3.1,1.7c0,0,0.1,0,0.1,0c0.3,0,1,0,5.7-1.5c0.9-0.3,1.5-1.1,1.5-2l-0.1-3.4c2.6-0.3,4.7-0.6,6-0.9
		c3.6-0.7,3.7-1,4.1-1.7c0.2-0.3,0.7-1.1,0.1-12.4c-0.3-5.7-0.9-13.8-2.5-20.4c2.7,0.9,5.1,1.4,7.2,1.4c0,0,0,0,0,0
		c4,0,6.6-1.9,7.2-5.2C107.8,22,106.5,9.8,94.6,3.8z M36.1,53.4l-4.5-12.7c1.2,0.4,2.6,0.6,4.3,0.6c0.9,0,1.8,0,2.7-0.1
		c0.2,1.4,0.6,2.7,1.2,3.9L36.1,53.4z"/>
	<g>
		<g>
			<path class="st8" d="M39,56.5h1.4v2.7h0c0.1-0.2,0.3-0.5,0.4-0.7l1.4-2h1.7l-2,2.6l2.1,3.5h-1.6L40.9,60l-0.5,0.6v2H39V56.5z"/>
			<path class="st8" d="M45.8,60.9c0,0.6,0.6,0.8,1.3,0.8c0.5,0,0.9-0.1,1.2-0.2l0.2,0.9c-0.5,0.2-1,0.3-1.6,0.3
				c-1.5,0-2.4-0.9-2.4-2.3c0-1.1,0.7-2.4,2.2-2.4c1.4,0,2,1.1,2,2.2c0,0.2,0,0.4,0,0.5H45.8z M47.4,59.9c0-0.3-0.1-0.9-0.8-0.9
				c-0.6,0-0.8,0.5-0.9,0.9H47.4z"/>
			<path class="st8" d="M50.8,60.9c0,0.6,0.6,0.8,1.3,0.8c0.5,0,0.9-0.1,1.2-0.2l0.2,0.9c-0.5,0.2-1,0.3-1.6,0.3
				c-1.5,0-2.4-0.9-2.4-2.3c0-1.1,0.7-2.4,2.2-2.4c1.4,0,2,1.1,2,2.2c0,0.2,0,0.4,0,0.5H50.8z M52.5,59.9c0-0.3-0.1-0.9-0.8-0.9
				c-0.6,0-0.8,0.5-0.9,0.9H52.5z"/>
			<path class="st8" d="M54.8,56.2h1.4v6.4h-1.4V56.2z"/>
			<path class="st8" d="M61.7,61.2c0,0.6,0,1.1,0,1.4h-1.2L60.5,62h0c-0.2,0.3-0.6,0.7-1.4,0.7c-0.9,0-1.6-0.6-1.6-1.9v-2.6h1.4v2.4
				c0,0.7,0.2,1,0.7,1c0.4,0,0.6-0.3,0.7-0.5c0-0.1,0.1-0.2,0.1-0.3v-2.6h1.4V61.2z"/>
			<path class="st8" d="M63,59.6c0-0.6,0-1,0-1.4h1.2l0.1,0.6h0c0.2-0.3,0.6-0.7,1.4-0.7c0.9,0,1.6,0.6,1.6,1.9v2.6h-1.4v-2.5
				c0-0.6-0.2-1-0.7-1c-0.4,0-0.6,0.3-0.7,0.5c0,0.1,0,0.2,0,0.3v2.6H63V59.6z"/>
			<path class="st8" d="M72.8,58.2c0,0.3,0,0.7,0,1.3V62c0,0.9-0.2,1.6-0.7,2c-0.5,0.4-1.1,0.5-1.8,0.5c-0.6,0-1.2-0.1-1.6-0.3
				l0.3-1c0.3,0.2,0.8,0.3,1.3,0.3c0.7,0,1.2-0.3,1.2-1.2V62h0c-0.3,0.4-0.7,0.6-1.2,0.6c-1.1,0-1.9-0.9-1.9-2.2
				c0-1.4,0.9-2.3,2-2.3c0.6,0,1,0.3,1.2,0.6h0l0-0.5H72.8z M71.4,60c0-0.1,0-0.2,0-0.3c-0.1-0.4-0.4-0.6-0.7-0.6
				c-0.5,0-0.9,0.5-0.9,1.3c0,0.7,0.3,1.2,0.9,1.2c0.4,0,0.6-0.2,0.7-0.6c0-0.1,0-0.3,0-0.4V60z"/>
		</g>
	</g>
	<g>
		<g>
		</g>
	</g>
	<g>
		<path class="st9" d="M57.4,45.2c1.2-1.6,1.8-3.5,1.8-5.6c0-2.8-1.3-5.2-3.2-6.9c5-3.2,8.2-6.9,6.9-10.1
			c-2.1-5.2-13.2-8.2-21.5-4.8s-14,13.7-11.6,19c1.2,2.6,6.1,2.7,10.9,1.9c0,0.4-0.1,0.8-0.1,1.2c0,1.9,0.6,3.6,1.6,5l-6.4,14.4l0,0
			c-0.2,0.3-0.3,0.7-0.3,1c0,2.2,3.5,4,8.4,4.7l0,6c0,0,4,1.2,4.5,1.2c0.5,0,2-0.5,1.4-2.2c-0.6-1.7-2-2-2-2l-0.1-2.7
			c0.4,0,0.9,0,1.3,0c0.5,0,1,0,1.5-0.1l0.1,4.6c0,0,4,1.1,4.5,1c0.5,0,1.9-0.6,1.3-2.2c-0.6-1.7-2-2-2-2l-0.1-1.8
			c4.8-0.9,8.2-2.8,8.1-4.9c0-0.1-0.2-0.7-0.5-1.3L57.4,45.2z M61.9,23.8c0.8,2-2.2,5.5-6.5,8.5c-1.6-1.2-3.5-1.8-5.6-1.8
			c-0.8,0-1.5,0.1-2.2,0.3l-2.2-7.4c0,0,0,0,0,0C52.4,20.8,60.7,20.7,61.9,23.8z M31.1,36.4c-1.5-3.1,5.1-9,12-12.1l2.2,7.4h0
			c-2.2,1.3-3.9,3.5-4.4,6.1C36.1,38.5,31.9,38.2,31.1,36.4z M51.9,44.1c-2.2,0-4-2.3-4-5.3c0-0.7,0.1-1.4,0.3-2
			c0.1-0.3,0.2-0.6,0.3-0.8c0.7-1.5,1.9-2.5,3.3-2.5c0.5,0,0.9,0.1,1.4,0.3c0.2,0.1,0.4,0.2,0.6,0.3c1.2,0.9,2.1,2.6,2.1,4.6
			C55.8,41.6,54.1,44,51.9,44.1z"/>
		<g>
			<path class="st9" d="M10.8,23.9c0.1,0.1,1.1-2,1.7-2.2c0.7-0.2,2.9-1.6,3.4-2.2c0.5-0.6,2.7-2.6,3.8-2.7c1.1-0.1,3.4-0.6,4.2-0.8
				c0.8-0.2,3.7-0.9,5-0.6c0,0,0.6-1.9-1.2-3.1c-2-1.3-3.2-0.5-4-0.4c-0.7,0-3,0.4-4.4,0.3c-1.4-0.1-3.2,0.8-3.7,1.1
				c-1.3,0.9-1.4,2.1-2.9,3.3c-2.5,1.9-3.3,3-3.5,3.6C9.1,20.7,8.6,23.1,10.8,23.9z"/>
			<path class="st9" d="M36.4,60.7c0-0.1-0.2-0.9-0.5-1.7l-6.7-18.8c0.9-1.9,1.8-4.4,1.8-7c-0.1-3.8-2.1-6.6-4.6-8.6
				c-3.1-3.2-2.7-3.5-2.7-3.5c1.9-1,6.3-4.3,5.6-4.6c-0.7-0.2-3.2-0.2-3.6,0.1c-0.3,0.2-2.2,0.7-3.2,0.8c-1,0.1-2.5,0.6-3,0.9
				c-0.2,0.1-1.1,0.6-1.6,0.9c-0.5,0.3-0.7,0.6-1.4,1.2c-1.4,1.2-2.1,1.5-2.7,1.9c-2.2,1.4-2.2,2.3-2.2,2.3c0.5,0.9,5.7-1,5.7-1
				s0,1.2-0.7,2.3c-0.7,1.1-2.3,4-2.2,7.9c0,3.2,2.1,5.7,3.6,7.4l-7.9,17.5C10,59,9.9,59.5,9.9,59.9c0,2.6,3.7,4.5,8.1,5.3l0,5.8
				c0,0,4,1.2,4.5,1.2c0.5,0,2-0.5,1.4-2.2c-0.6-1.7-2-2-2-2l-0.1-2.3c0.4,0,0.9,0,1.3,0c0.5,0,1,0,1.6-0.1l0.1,4.2c0,0,4,1.1,4.5,1
				c0.5,0,1.9-0.6,1.3-2.2c-0.6-1.7-2-2-2-2l-0.1-1.4C32.8,64.6,36.4,63.2,36.4,60.7z M24.9,37c-2,0.1-3.8-2.1-4-5
				c-0.2-2.9,1.4-5.3,3.4-5.4c2-0.1,3.8,2.1,4,5C28.4,34.5,26.9,36.9,24.9,37z"/>
		</g>
		<g>
			<path class="st9" d="M82.3,63.5l0.2,7.3c0,0-4.5,1.4-5.1,1.4c-0.6,0-2.2-0.5-1.6-2.4c0.6-1.9,2.2-2.3,2.2-2.3l0.1-4.1L82.3,63.5z
				"/>
			<path class="st9" d="M75.6,62.2l-0.1,7.3c0,0-4.6,1.3-5.1,1.2c-0.6,0-2.2-0.6-1.6-2.5s2.3-2.3,2.3-2.3l0.2-4.1L75.6,62.2z"/>
			<g>
				<g>
					<path class="st9" d="M93.6,5.6C86.7,2.1,78.3,2.3,73.1,6c-3.1,2.3-2.2,6.4,1.1,10.8c0.2,0.2,0.4,0.5,0.6,0.8
						c0.4-0.2,0.7-0.3,1-0.3c-0.2-0.3-0.5-0.5-0.7-0.8c-2.5-3.2-3.5-6.1-2.3-7.8c2-3,9.9-1.2,17.9,4c0.3,0.2,0.6,0.4,0.9,0.6
						c0.2,0.1,0.4,0.3,0.6,0.4c7.9,5.5,12.6,12.3,10.5,15.3c-2.1,3.1-10.5,1-18.8-4.6c0,0-0.1,0-0.1-0.1c-0.2,0.3-0.4,0.5-0.6,0.8
						c1.5,1,3,1.9,4.5,2.7c8.1,4.2,15.9,5.3,16.8,0.1C105.7,21.6,104.1,10.9,93.6,5.6z M77.5,19.1c0,0.4-0.1,0.8-0.3,1.1
						c1.4,1.3,2.9,2.6,4.6,3.9c0.2-0.3,0.4-0.5,0.6-0.8C80.6,21.9,78.9,20.5,77.5,19.1z"/>
					<path class="st9" d="M92.5,13.3c0,0-0.1,0.1-0.3,0.4c-1.1,1.4-4.9,6.3-8.3,10.7c0-0.1-0.1-0.2-0.1-0.3c0.1-0.4,0.1-0.8,0.1-1.2
						c0-0.4,0-0.8-0.1-1.2c2.9-3.8,5.9-7.7,6.9-9c0.2-0.3,0.3-0.4,0.3-0.4L92.5,13.3z"/>
				</g>
				<path class="st9" d="M90.1,31.9c-0.5-1.9-1.4-3.2-2.3-4.2c-1.7-1.7-3.5-2.1-3.5-2.1s-0.2-0.8-0.4-1.3c-0.2,0.3-0.4,0.5-0.6,0.8
					c-2.6,3.3-5,6.1-5.7,6.8c-1.9,1.7-2.9,1.4-3.6,0.9c-1.2-0.8-0.9-2.6-0.5-3.5c0.4-0.8,2-3.1,2-3.1l1.1,0.8
					c-0.4,0.5-1.5,2.3-1.6,2.5c-0.2,0.3-0.7,1.6,0.1,1.9c0.8,0.4,1.6-0.6,2-1.1c0.2-0.2,2.3-2.9,4.8-6.2c0.2-0.3,0.4-0.5,0.6-0.8
					c0.4-0.6,0.9-1.1,1.3-1.7c-0.6-3.1-3.3-5.5-6.6-5.5c-0.7,0-1.4,0.1-2,0.3c-0.3,0.1-0.7,0.2-1,0.4c-2.2,1.1-3.7,3.4-3.7,6
					c0,0.4,0,0.7,0.1,1c-0.1,0-0.1,0.1-0.2,0.1c0,0-6.6,1.4-8.2,13.7c-1.1,8.6-1.9,24.9-1.6,25.1c0.3,0.1,6.6,3,16.6,2.9
					c10-0.1,15.8-1.9,15.8-2C92.9,63.6,93.3,44.5,90.1,31.9z M73.4,18.7c0.4-0.5,0.9-0.9,1.3-1.1c0.4-0.2,0.7-0.3,1-0.3
					c0.4,0,0.8,0.1,1.1,0.3c0.4,0.3,0.6,0.9,0.6,1.5c0,0.4-0.1,0.8-0.3,1.1c-0.2,0.3-0.4,0.7-0.6,1c-1.1,1.3-2.6,1.9-3.5,1.2
					C72.2,21.7,72.4,20,73.4,18.7z"/>
			</g>
		</g>
	</g>
	<path class="st9" d="M12.5,21.7c0.7-0.2,2.9-1.6,3.4-2.2c0.5-0.6,2.7-2.6,3.8-2.7c1.1-0.1,3.4-0.6,4.2-0.8c0.8-0.2,3.7-0.9,5-0.6
		c0,0,0.6-1.9-1.2-3.1c-2-1.3-3.2-0.5-4-0.4c-0.7,0-3,0.4-4.4,0.3c-1.4-0.1-3.2,0.8-3.7,1.1c-1.3,0.9-1.4,2.1-2.9,3.3
		c-2.5,1.9-3.3,3-3.5,3.6c-0.2,0.5-0.7,2.9,1.5,3.7C10.9,24,11.8,21.9,12.5,21.7z"/>
	<g>
		<path class="st9" d="M32.5,9.8l1.2-0.6l1.2,2.4l0,0c0-0.3,0.1-0.5,0.1-0.8l0.3-2.4l1.5-0.7l-0.7,3.2l3.5,2.2l-1.4,0.7l-2.5-1.7
			l-0.2,0.8l0.9,1.8l-1.2,0.6L32.5,9.8z"/>
		<path class="st9" d="M40.4,11.2c0.2,0.5,0.8,0.6,1.4,0.4c0.4-0.1,0.8-0.3,1.1-0.5l0.4,0.8c-0.4,0.3-0.9,0.6-1.5,0.7
			c-1.4,0.4-2.5-0.2-2.9-1.5c-0.3-1.1,0-2.5,1.5-2.9c1.4-0.4,2.2,0.5,2.5,1.5c0.1,0.2,0.1,0.4,0.1,0.5L40.4,11.2z M41.6,9.8
			c-0.1-0.3-0.4-0.8-1-0.6c-0.6,0.2-0.6,0.7-0.6,1.1L41.6,9.8z"/>
		<path class="st9" d="M45,10c0.1,0.6,0.7,0.7,1.4,0.7c0.5-0.1,0.8-0.2,1.2-0.4l0.3,0.9c-0.4,0.3-1,0.4-1.6,0.5
			c-1.5,0.2-2.5-0.5-2.7-1.9c-0.2-1.1,0.3-2.5,1.9-2.7C47,6.9,47.7,7.9,47.8,9c0,0.2,0,0.4,0,0.5L45,10z M46.5,8.8
			c0-0.3-0.3-0.9-0.9-0.8c-0.6,0.1-0.7,0.6-0.7,1L46.5,8.8z"/>
		<path class="st9" d="M48.6,4.9l1.4-0.1l0.3,6.4l-1.4,0.1L48.6,4.9z"/>
		<path class="st9" d="M55.4,10c0,0.6,0,1.1,0,1.4l-1.2-0.1l0-0.6l0,0c-0.2,0.3-0.6,0.7-1.4,0.6c-0.9-0.1-1.5-0.7-1.4-2l0.1-2.6
			l1.4,0.1l-0.1,2.4c0,0.6,0.1,1.1,0.6,1.1c0.4,0,0.6-0.2,0.7-0.4c0-0.1,0.1-0.2,0.1-0.3l0.2-2.6L55.6,7L55.4,10z"/>
		<path class="st9" d="M56.8,8.6C56.9,8,57,7.6,57,7.2l1.2,0.2l0,0.6l0,0c0.2-0.3,0.7-0.6,1.5-0.5c0.9,0.2,1.5,0.9,1.2,2.2l-0.5,2.6
			l-1.4-0.2l0.4-2.4c0.1-0.6,0-1-0.5-1.1c-0.4-0.1-0.6,0.2-0.8,0.4c-0.1,0.1-0.1,0.2-0.1,0.3l-0.5,2.5l-1.4-0.2L56.8,8.6z"/>
		<path class="st9" d="M66.7,9.4c-0.1,0.3-0.2,0.6-0.4,1.3l-0.7,2.4c-0.2,0.8-0.6,1.4-1.2,1.7c-0.6,0.3-1.3,0.2-1.9,0
			c-0.6-0.2-1.1-0.4-1.4-0.8l0.6-0.9c0.2,0.2,0.6,0.5,1.1,0.7c0.6,0.2,1.2,0,1.4-0.8l0.1-0.3l0,0c-0.4,0.3-0.8,0.4-1.3,0.2
			c-1.1-0.3-1.6-1.4-1.2-2.6c0.4-1.4,1.5-2,2.6-1.7c0.6,0.2,0.9,0.5,1,0.9l0,0l0.2-0.5L66.7,9.4z M64.8,10.8c0-0.1,0-0.2,0-0.3
			c0-0.4-0.2-0.7-0.5-0.8c-0.5-0.1-1,0.2-1.2,1c-0.2,0.6,0,1.2,0.5,1.4c0.3,0.1,0.7,0,0.9-0.3c0.1-0.1,0.1-0.2,0.1-0.3L64.8,10.8z"
			/>
	</g>
</g>
</svg>
