<?xml version="1.0" encoding="utf-8"?>
<!-- Generator: Adobe Illustrator 25.3.1, SVG Export Plug-In . SVG Version: 6.00 Build 0)  -->
<svg version="1.1" id="圖層_1" xmlns="http://www.w3.org/2000/svg" xmlns:xlink="http://www.w3.org/1999/xlink" x="0px" y="0px"
	 viewBox="0 0 200 120" style="enable-background:new 0 0 200 120;" xml:space="preserve">
<style type="text/css">
	.st0{fill:#FFFFFF;}
</style>
<path class="st0" d="M176.9,73.6c-0.1,0-0.2,0-0.3,0c1.8-4.2,2.9-8.9,2.9-13.8c0-19.3-15.6-34.9-34.9-34.9c-6.8,0-13.2,2-18.5,5.4
	c-7.3-17.7-24.6-30.1-44.9-30.1c-26.8,0-48.6,21.7-48.6,48.6c0,2,0.2,4,0.4,6c-0.1,0-0.3,0-0.4,0C14.6,54.7,0,69.3,0,87.3
	s14.6,32.6,32.6,32.6h144.3c12.8,0,23.1-10.3,23.1-23.1S189.7,73.6,176.9,73.6z"/>
</svg>
