<?xml version="1.0" encoding="utf-8"?>
<!-- Generator: Adobe Illustrator 25.3.1, SVG Export Plug-In . SVG Version: 6.00 Build 0)  -->
<svg version="1.1" id="圖層_1" xmlns="http://www.w3.org/2000/svg" xmlns:xlink="http://www.w3.org/1999/xlink" x="0px" y="0px"
	 viewBox="0 0 200 150" style="enable-background:new 0 0 200 150;" xml:space="preserve">
<style type="text/css">
	.st0{fill:#B9B9B9;}
	.st1{fill:#E3E4E4;}
	.st2{fill:#FFFFFF;}
	.st3{fill:#EB631F;}
</style>
<g>
	<g>
		
			<image style="overflow:visible;opacity:0.75;" width="207" height="157" xlink:href="F494897B9DF5DD58.png"  transform="matrix(1 0 0 1 -3.5039 -2.5039)">
		</image>
		<g>
			<path class="st0" d="M171.3,9c-6.8-3.4-14.3-5.2-21.8-5.2c-8.2,0-15.8,2.3-21.4,6.4c-0.3,0.2-0.9,0.5-1.7,1
				c-9.3-4.5-22.2-7.3-36.4-7.3c-22.3,0-41.2,6.9-48.5,16.5c-0.5-0.2-1-0.3-1.6-0.3c-1.4,0-2.6,0.3-3.3,0.5c-0.1,0-0.3,0.1-0.4,0.1
				c-0.4,0-1,0.1-1.7,0.2c-1.5,0.2-3.6,0.4-5.2,0.4c-0.3,0-0.5,0-0.8,0c-0.2,0-0.5,0-0.7,0c-3.7,0-7.6,1.9-8.9,2.8
				c-1.8,1.3-2.8,2.7-3.6,3.9c-0.6,0.9-1.1,1.7-2.1,2.4c-6.2,4.8-7.5,7.2-7.9,8.8c-1.3,4.3-0.2,9.8,5,11.9c0.7,0.9,2,2,4.6,2
				c0.8,0,1.7-0.1,2.7-0.3c-1.4,3.2-2.9,7.8-2.8,13.3c0.1,6.2,3.2,11.1,6.2,14.7l-14,30.9c-0.1,0.1-0.1,0.3-0.2,0.4
				c-0.4,1.2-0.6,2.5-0.6,3.8c0.1,5.9,5.7,10.7,15.3,13.2l0,7.8c0,1.8,1.1,3.3,2.8,3.8c8,2.4,9.2,2.4,9.7,2.4c0.1,0,0.2,0,0.3,0
				c1.7-0.1,4.1-0.9,5.6-3.1c0.2-0.3,0.3-0.5,0.5-0.8c5.3,1.3,6.3,1.3,6.7,1.3c0.1,0,0.3,0,0.4,0c1.7-0.1,4.1-1.1,5.5-3.3
				c1.1-1.8,1.3-4,0.5-6.3c-0.3-0.9-0.7-1.7-1.2-2.3c3.5-1,6.3-2.2,8.4-3.8c3.2,2,7.2,3.2,10.6,4l0,8.1c0,1.8,1.1,3.3,2.8,3.8
				c8,2.4,9.2,2.4,9.7,2.4c0.1,0,0.2,0,0.3,0c1.7-0.1,4.1-0.9,5.6-3.1c0.2-0.3,0.3-0.5,0.5-0.8c5.3,1.3,6.3,1.3,6.7,1.3
				c0.1,0,0.3,0,0.4,0c1.7-0.1,4.1-1.1,5.5-3.3c1.1-1.8,1.3-4,0.5-6.3c-0.5-1.3-1.1-2.4-1.8-3.2c2.2-0.6,4.1-1.4,5.8-2.3
				c2.4,0.9,6.6,2.3,12.2,3.4c-0.2,0.5-0.4,0.9-0.6,1.5c-0.9,2.4-0.6,4.8,0.6,6.7c1.5,2.3,4.1,3.2,5.8,3.4c0.1,0,0.2,0,0.3,0
				c0.4,0,1.4,0,6.6-1.4c0.2,0.3,0.4,0.6,0.5,0.9c1.6,2.2,4.2,3.1,6,3.2c0.1,0,0.1,0,0.2,0c0.6,0,1.8,0,10.9-2.9
				c1.7-0.5,2.8-2.1,2.8-3.9l-0.1-6.5c5-0.5,8.9-1.2,11.5-1.7c6.8-1.4,7.1-1.9,7.8-3.1c0.3-0.5,1.2-2,0.2-23.5
				c-0.5-10.8-1.8-26.2-4.8-38.7c5,1.8,9.7,2.7,13.6,2.7c0,0,0,0,0,0c7.6,0,12.6-3.6,13.7-9.8C196.5,43.7,194,20.5,171.3,9z
				 M60.4,103.3l-8.6-24.2c2.3,0.7,5,1.1,8.1,1.1c1.6,0,3.4-0.1,5.2-0.3c0.3,2.6,1.1,5.1,2.3,7.5L60.4,103.3z"/>
		</g>
	</g>
	<path class="st1" d="M171.3,6.2C164.6,2.8,157,1,149.6,1c-8.2,0-15.8,2.3-21.4,6.4c-0.3,0.2-0.9,0.5-1.7,1
		C117.2,3.8,104.3,1,90.2,1C67.9,1,48.9,7.8,41.6,17.5c-0.5-0.2-1-0.3-1.6-0.3c-1.4,0-2.6,0.3-3.3,0.5c-0.1,0-0.3,0.1-0.4,0.1
		c-0.4,0-1,0.1-1.7,0.2c-1.5,0.2-3.6,0.4-5.2,0.4c-0.3,0-0.5,0-0.8,0c-0.2,0-0.5,0-0.7,0c-3.7,0-7.6,1.9-8.9,2.8
		c-1.8,1.3-2.8,2.7-3.6,3.9c-0.6,0.9-1.1,1.7-2.1,2.4c-6.2,4.8-7.5,7.2-7.9,8.8c-1.3,4.3-0.2,9.8,5,11.9c0.7,0.9,2,2,4.6,2
		c0.8,0,1.7-0.1,2.7-0.3c-1.4,3.2-2.9,7.8-2.8,13.3c0.1,6.2,3.2,11.1,6.2,14.7l-14,30.9c-0.1,0.1-0.1,0.3-0.2,0.4
		c-0.4,1.2-0.6,2.5-0.6,3.8c0.1,5.9,5.7,10.7,15.3,13.2l0,7.8c0,1.8,1.1,3.3,2.8,3.8c8,2.4,9.2,2.4,9.7,2.4c0.1,0,0.2,0,0.3,0
		c1.7-0.1,4.1-0.9,5.6-3.1c0.2-0.3,0.3-0.5,0.5-0.8c5.3,1.3,6.3,1.3,6.7,1.3c0.1,0,0.3,0,0.4,0c1.7-0.1,4.1-1.1,5.5-3.3
		c1.1-1.8,1.3-4,0.5-6.3c-0.3-0.9-0.7-1.7-1.2-2.3c3.5-1,6.3-2.2,8.4-3.8c3.2,2,7.2,3.2,10.6,4l0,8.1c0,1.8,1.1,3.3,2.8,3.8
		c8,2.4,9.2,2.4,9.7,2.4c0.1,0,0.2,0,0.3,0c1.7-0.1,4.1-0.9,5.6-3.1c0.2-0.3,0.3-0.5,0.5-0.8c5.3,1.3,6.3,1.3,6.7,1.3
		c0.1,0,0.3,0,0.4,0c1.7-0.1,4.1-1.1,5.5-3.3c1.1-1.8,1.3-4,0.5-6.3c-0.5-1.3-1.1-2.4-1.8-3.2c2.2-0.6,4.1-1.4,5.8-2.3
		c2.4,0.9,6.6,2.3,12.2,3.4c-0.2,0.5-0.4,0.9-0.6,1.5c-0.9,2.4-0.6,4.8,0.6,6.7c1.5,2.3,4.1,3.2,5.8,3.4c0.1,0,0.2,0,0.3,0
		c0.4,0,1.4,0,6.6-1.4c0.2,0.3,0.4,0.6,0.5,0.9c1.6,2.2,4.2,3.1,6,3.2c0.1,0,0.1,0,0.2,0c0.6,0,1.8,0,10.9-2.9
		c1.7-0.5,2.8-2.1,2.8-3.9l-0.1-6.5c5-0.5,8.9-1.2,11.5-1.7c6.8-1.4,7.1-1.9,7.8-3.1c0.3-0.5,1.2-2,0.2-23.5
		c-0.5-10.8-1.8-26.2-4.8-38.7c5,1.8,9.7,2.7,13.6,2.7c0,0,0,0,0,0c7.6,0,12.6-3.6,13.7-9.8C196.5,40.9,194,17.7,171.3,6.2z
		 M60.4,100.6l-8.6-24.2c2.3,0.7,5,1.1,8.1,1.1c1.6,0,3.4-0.1,5.2-0.3c0.3,2.6,1.1,5.1,2.3,7.5L60.4,100.6z"/>
	<g>
		<g>
			<path class="st2" d="M65.8,106.5h2.6v5.1h0c0.3-0.4,0.5-0.9,0.8-1.3l2.6-3.9h3.2l-3.8,5l4.1,6.7h-3.1l-2.9-5l-1,1.2v3.8h-2.6
				V106.5z"/>
			<path class="st2" d="M78.8,114.7c0.1,1.1,1.2,1.6,2.4,1.6c0.9,0,1.6-0.1,2.3-0.4l0.4,1.8c-0.9,0.4-1.9,0.5-3.1,0.5
				c-2.9,0-4.5-1.7-4.5-4.3c0-2.1,1.3-4.5,4.3-4.5c2.7,0,3.8,2.1,3.8,4.2c0,0.5,0,0.8-0.1,1H78.8z M81.9,112.9
				c0-0.6-0.3-1.7-1.5-1.7c-1.1,0-1.6,1-1.6,1.7H81.9z"/>
			<path class="st2" d="M88.3,114.7c0.1,1.1,1.2,1.6,2.4,1.6c0.9,0,1.6-0.1,2.3-0.4l0.4,1.8c-0.9,0.4-1.9,0.5-3.1,0.5
				c-2.9,0-4.5-1.7-4.5-4.3c0-2.1,1.3-4.5,4.3-4.5c2.7,0,3.8,2.1,3.8,4.2c0,0.5,0,0.8-0.1,1H88.3z M91.4,112.9
				c0-0.6-0.3-1.7-1.5-1.7c-1.1,0-1.6,1-1.6,1.7H91.4z"/>
			<path class="st2" d="M95.8,105.9h2.6v12.3h-2.6V105.9z"/>
			<path class="st2" d="M109,115.4c0,1.1,0,2,0.1,2.7h-2.3l-0.1-1.2h-0.1c-0.3,0.5-1.1,1.4-2.6,1.4c-1.7,0-3-1.1-3-3.7v-5h2.6v4.5
				c0,1.2,0.4,2,1.3,2c0.7,0,1.1-0.5,1.3-0.9c0.1-0.2,0.1-0.3,0.1-0.6v-5h2.6V115.4z"/>
			<path class="st2" d="M111.5,112.4c0-1.1,0-1.9-0.1-2.7h2.3l0.1,1.2h0.1c0.3-0.5,1.2-1.4,2.6-1.4c1.7,0,3,1.2,3,3.6v5h-2.6v-4.7
				c0-1.1-0.4-1.8-1.3-1.8c-0.7,0-1.2,0.5-1.3,1c-0.1,0.2-0.1,0.4-0.1,0.6v4.9h-2.6V112.4z"/>
			<path class="st2" d="M130.1,109.7c0,0.5-0.1,1.3-0.1,2.5v4.7c0,1.6-0.3,3-1.3,3.8c-0.9,0.8-2.2,1-3.4,1c-1.1,0-2.3-0.2-3-0.6
				l0.5-2c0.5,0.3,1.5,0.6,2.4,0.6c1.2,0,2.2-0.7,2.2-2.2v-0.5h0c-0.5,0.7-1.3,1.1-2.3,1.1c-2.1,0-3.6-1.7-3.6-4.1
				c0-2.7,1.8-4.5,3.8-4.5c1.2,0,1.9,0.5,2.3,1.2h0l0.1-1H130.1z M127.4,113.1c0-0.2,0-0.3-0.1-0.5c-0.2-0.7-0.7-1.2-1.4-1.2
				c-1,0-1.7,0.9-1.7,2.4c0,1.3,0.6,2.2,1.7,2.2c0.7,0,1.2-0.4,1.4-1.1c0.1-0.2,0.1-0.5,0.1-0.7V113.1z"/>
		</g>
	</g>
	<g>
		<g>
		</g>
	</g>
	<g>
		<path class="st3" d="M100.8,84.9c2.2-3,3.5-6.7,3.4-10.7c-0.1-5.2-2.4-9.9-6.1-13.1c9.4-6.1,15.6-13,13.2-19.2
			c-3.9-9.9-25.1-15.7-40.9-9.2S43.8,58.8,48.3,69c2.2,4.9,11.5,5.2,20.8,3.6C69,73.3,69,74,69,74.8c0.1,3.5,1.2,6.8,3,9.6
			l-12.2,27.3l0,0c-0.3,0.6-0.5,1.3-0.5,2c0.1,4.1,6.7,7.6,16,8.9L75.3,134c0,0,7.6,2.3,8.6,2.2c1-0.1,3.7-0.9,2.7-4.1
			c-1.1-3.2-3.7-3.9-3.7-3.9l-0.2-5.1c0.8,0,1.7,0,2.6,0c1,0,1.9-0.1,2.8-0.1l0.2,8.6c0,0,7.7,2,8.6,2c1-0.1,3.7-1.1,2.5-4.2
			c-1.2-3.1-3.9-3.7-3.9-3.7l-0.2-3.5c9.1-1.7,15.5-5.3,15.4-9.4c0-0.2-0.5-1.3-0.9-2.5L100.8,84.9z M109.4,44.2
			c1.4,3.7-4.1,10.5-12.3,16.1c-3-2.2-6.7-3.5-10.7-3.4c-1.4,0-2.8,0.2-4.2,0.6l-4.3-14.1c0,0,0,0,0,0
			C91.3,38.5,107.1,38.4,109.4,44.2z M50.7,68.3c-2.8-6,9.7-17.1,22.8-23.1l4.3,14.1h0c-4.3,2.5-7.4,6.7-8.4,11.6
			C60.4,72.2,52.3,71.6,50.7,68.3z M90.3,82.8c-4.1,0.1-7.6-4.4-7.7-10c0-1.4,0.2-2.7,0.5-3.9c0.2-0.5,0.4-1.1,0.6-1.6
			c1.3-2.8,3.6-4.7,6.2-4.8c0.9,0,1.8,0.2,2.6,0.6c0.4,0.2,0.7,0.4,1.1,0.7c2.3,1.7,3.9,5,4,8.7C97.8,78.1,94.5,82.7,90.3,82.8z"/>
		<g>
			<path class="st3" d="M12.1,44.5c0.3,0.1,2-3.9,3.2-4.2c1.2-0.4,5.5-3,6.4-4.1c0.9-1.2,5.1-4.9,7.2-5c2.1-0.2,6.5-1.1,8-1.6
				c1.5-0.5,7.1-1.7,9.5-1.1c0,0,1.1-3.6-2.3-5.8c-3.9-2.5-6.1-0.9-7.5-0.8c-1.4,0.1-5.6,0.7-8.3,0.6c-2.7-0.2-6.1,1.4-7,2.1
				c-2.5,1.7-2.6,3.9-5.5,6.2c-4.7,3.7-6.3,5.8-6.6,6.8S8,43,12.1,44.5z"/>
			<path class="st3" d="M60.8,114.4c0-0.2-0.3-1.6-0.9-3.2L47.2,75.4c1.7-3.7,3.4-8.3,3.4-13.3c-0.1-7.2-3.9-12.6-8.7-16.4
				c-5.9-6.1-5.1-6.7-5.1-6.7c3.6-1.8,11.9-8.2,10.5-8.7c-1.3-0.5-6.1-0.3-6.8,0.1c-0.6,0.4-4.2,1.4-6,1.6c-1.8,0.2-4.8,1.1-5.8,1.7
				c-0.4,0.2-2.1,1.1-3,1.6c-0.9,0.5-1.4,1.2-2.8,2.3c-2.7,2.2-4,2.9-5.2,3.6c-4.2,2.6-4.2,4.4-4.2,4.4c0.9,1.7,10.9-1.8,10.9-1.8
				s0,2.2-1.4,4.3c-1.3,2-4.3,7.6-4.2,15c0.1,6.1,4,10.9,6.9,14l-15,33.3c-0.3,0.8-0.4,1.6-0.4,2.5c0.1,4.9,7.1,8.5,15.3,10.1
				l-0.1,11c0,0,7.6,2.3,8.6,2.2c1-0.1,3.7-0.9,2.7-4.1c-1.1-3.2-3.7-3.9-3.7-3.9l-0.1-4.4c0.8,0,1.6,0,2.4,0c1,0,2,0,3-0.1l0.2,8
				c0,0,7.7,2,8.6,2c1-0.1,3.7-1.1,2.5-4.2c-1.2-3.1-3.9-3.7-3.9-3.7l-0.2-2.7C53.9,121.8,60.9,119.2,60.8,114.4z M38.9,69.4
				c-3.9,0.2-7.3-4.1-7.6-9.6c-0.3-5.5,2.6-10.1,6.5-10.3c3.9-0.2,7.3,4.1,7.6,9.6S42.8,69.2,38.9,69.4z"/>
		</g>
		<g>
			<path class="st3" d="M148.2,119.7l0.3,13.9c0,0-8.6,2.7-9.7,2.7c-1.1,0-4.3-1-3.1-4.6c1.1-3.6,4.2-4.5,4.2-4.5l0.1-7.8
				L148.2,119.7z"/>
			<path class="st3" d="M135.4,117.3l-0.2,13.9c0,0-8.7,2.5-9.8,2.4c-1.1-0.1-4.2-1.1-3-4.7c1.3-3.6,4.3-4.3,4.3-4.3l0.4-7.8
				L135.4,117.3z"/>
			<g>
				<g>
					<path class="st3" d="M169.6,9.8c-13.2-6.7-29.1-6.4-39,0.8c-5.9,4.3-4.2,12.2,2.1,20.5c0.4,0.5,0.7,0.9,1.1,1.4
						c0.7-0.4,1.4-0.6,2-0.6c-0.4-0.5-0.9-1-1.3-1.6c-4.8-6.1-6.6-11.6-4.5-14.8c3.8-5.7,18.8-2.2,33.9,7.6c0.6,0.4,1.1,0.8,1.7,1.1
						c0.4,0.3,0.8,0.6,1.2,0.8c15,10.5,23.9,23.4,20,29.1c-4,5.9-20,2-35.7-8.7c-0.1,0-0.1-0.1-0.2-0.1c-0.4,0.5-0.8,1-1.1,1.4
						c2.8,1.9,5.7,3.6,8.6,5.1c15.4,8,30.3,10,32,0.3C192.6,40.1,189.5,19.8,169.6,9.8z M139,35.3c0,0.7-0.2,1.4-0.6,2.2
						c2.6,2.5,5.6,5,8.8,7.4c0.4-0.5,0.8-1,1.1-1.5C144.8,40.7,141.6,38,139,35.3z"/>
					<path class="st3" d="M167.5,24.3c0,0-0.2,0.3-0.6,0.7c-2.1,2.7-9.2,11.9-15.9,20.3c-0.1-0.2-0.1-0.4-0.2-0.5
						c0.1-0.8,0.2-1.5,0.2-2.3c0-0.8-0.1-1.6-0.2-2.3c5.6-7.3,11.3-14.7,13.1-17.1c0.4-0.5,0.6-0.8,0.6-0.8L167.5,24.3z"/>
				</g>
				<path class="st3" d="M162.9,59.7c-0.9-3.6-2.6-6.1-4.4-7.9c-3.2-3.2-6.7-4-6.7-4s-0.4-1.4-0.8-2.5c-0.4,0.5-0.8,1-1.1,1.4
					c-5,6.2-9.4,11.7-10.8,12.9c-3.6,3.3-5.6,2.6-6.9,1.7c-2.3-1.5-1.8-4.9-0.9-6.7c0.8-1.6,3.7-5.9,3.7-5.9l2.1,1.4
					c-0.7,1-2.8,4.4-3.1,4.8c-0.3,0.6-1.4,3,0.1,3.6c1.5,0.7,3-1.2,3.8-2c0.4-0.3,4.4-5.5,9.2-11.8c0.4-0.5,0.8-1,1.1-1.5
					c0.8-1.1,1.7-2.2,2.5-3.3c-1.1-5.9-6.3-10.4-12.5-10.4c-1.3,0-2.6,0.2-3.9,0.6c-0.6,0.2-1.3,0.5-1.9,0.8c-4.2,2.1-7,6.4-7,11.4
					c0,0.7,0.1,1.3,0.2,2c-0.1,0.1-0.3,0.1-0.4,0.2c0,0-12.5,2.6-15.5,26c-2.1,16.3-3.7,47.4-3.1,47.6c0.6,0.3,12.5,5.8,31.5,5.6
					c19-0.2,30-3.6,30-3.7C168.3,119.9,168.9,83.6,162.9,59.7z M131.2,34.6c0.7-0.9,1.6-1.7,2.5-2.1c0.7-0.4,1.4-0.6,2-0.6
					c0.8-0.1,1.6,0.1,2.2,0.6c0.8,0.6,1.1,1.7,1,2.9c0,0.7-0.2,1.4-0.6,2.2c-0.3,0.7-0.7,1.3-1.2,1.9c-2,2.5-5,3.5-6.7,2.2
					C128.9,40.2,129.2,37.1,131.2,34.6z"/>
			</g>
		</g>
	</g>
	<path class="st3" d="M15.4,40.3c1.2-0.4,5.5-3,6.4-4.1c0.9-1.2,5.1-4.9,7.2-5c2.1-0.2,6.5-1.1,8-1.6c1.5-0.5,7.1-1.7,9.5-1.1
		c0,0,1.1-3.6-2.3-5.8c-3.9-2.5-6.1-0.9-7.5-0.8c-1.4,0.1-5.6,0.7-8.3,0.6c-2.7-0.2-6.1,1.4-7,2.1c-2.5,1.7-2.6,3.9-5.5,6.2
		c-4.7,3.7-6.3,5.8-6.6,6.8C9,38.4,8,43,12.1,44.5C12.4,44.6,14.1,40.6,15.4,40.3z"/>
	<g>
		<path class="st3" d="M53.5,17.7l2.3-1.1l2.3,4.6l0,0c0-0.5,0.1-1,0.2-1.5l0.7-4.6l2.9-1.4l-1.3,6.1l6.6,4.2l-2.7,1.3l-4.8-3.2
			l-0.4,1.5l1.7,3.4l-2.3,1.1L53.5,17.7z"/>
		<path class="st3" d="M68.4,20.2c0.4,1,1.6,1.2,2.7,0.9c0.9-0.3,1.5-0.6,2.1-1l0.9,1.6c-0.7,0.6-1.7,1.1-2.8,1.4
			c-2.7,0.8-4.8-0.3-5.5-2.8c-0.6-2.1,0-4.7,2.8-5.6c2.6-0.8,4.2,0.9,4.8,2.9c0.1,0.4,0.2,0.8,0.2,1L68.4,20.2z M70.8,17.6
			c-0.2-0.6-0.8-1.6-1.9-1.2c-1.1,0.3-1.2,1.4-1.1,2.1L70.8,17.6z"/>
		<path class="st3" d="M77.3,18c0.2,1.1,1.4,1.4,2.6,1.2c0.9-0.1,1.6-0.4,2.2-0.7l0.6,1.7c-0.8,0.5-1.8,0.8-2.9,1
			c-2.8,0.4-4.7-1-5.1-3.6c-0.3-2.1,0.7-4.7,3.5-5.1c2.7-0.4,4,1.5,4.3,3.6c0.1,0.5,0.1,0.8,0.1,1L77.3,18z M80.1,15.8
			c-0.1-0.6-0.5-1.7-1.7-1.5c-1.1,0.2-1.4,1.2-1.4,1.9L80.1,15.8z"/>
		<path class="st3" d="M83.9,8.4l2.6-0.1l0.5,12.2l-2.6,0.1L83.9,8.4z"/>
		<path class="st3" d="M97.1,18.1c-0.1,1.1-0.1,2-0.1,2.7l-2.3-0.1l-0.1-1.2l-0.1,0c-0.4,0.5-1.2,1.3-2.7,1.2
			c-1.7-0.1-2.9-1.2-2.8-3.8l0.3-5l2.6,0.1l-0.3,4.5c-0.1,1.2,0.3,2,1.2,2c0.7,0,1.2-0.4,1.4-0.8c0.1-0.1,0.1-0.3,0.1-0.6l0.3-5
			l2.6,0.1L97.1,18.1z"/>
		<path class="st3" d="M99.7,15.4c0.2-1,0.3-1.9,0.4-2.7l2.2,0.4l-0.1,1.2l0.1,0c0.4-0.5,1.4-1.1,2.8-0.9c1.7,0.3,2.8,1.7,2.3,4.1
			l-0.9,4.9l-2.6-0.5l0.8-4.6c0.2-1.1-0.1-1.9-1-2c-0.7-0.1-1.2,0.3-1.5,0.7c-0.1,0.1-0.2,0.4-0.2,0.6l-0.9,4.8L98.6,21L99.7,15.4z"
			/>
		<path class="st3" d="M118.3,17c-0.2,0.5-0.4,1.2-0.8,2.4l-1.3,4.5c-0.5,1.6-1.1,2.7-2.3,3.3c-1.1,0.5-2.4,0.4-3.6,0
			c-1.1-0.3-2.1-0.9-2.7-1.5l1.1-1.8c0.4,0.4,1.2,1,2.2,1.3c1.2,0.3,2.3,0,2.7-1.5l0.2-0.5l0,0c-0.7,0.5-1.6,0.7-2.5,0.4
			c-2-0.6-3-2.6-2.3-4.9c0.8-2.6,2.9-3.8,4.9-3.2c1.1,0.3,1.7,1,1.9,1.8l0,0l0.4-0.9L118.3,17z M114.8,19.6c0-0.2,0.1-0.3,0.1-0.5
			c0-0.7-0.3-1.3-1-1.5c-0.9-0.3-1.9,0.4-2.3,1.8c-0.4,1.2,0,2.3,1,2.6c0.7,0.2,1.3-0.1,1.6-0.6c0.1-0.2,0.2-0.4,0.3-0.6L114.8,19.6
			z"/>
	</g>
</g>
</svg>
