<?xml version="1.0" encoding="utf-8"?>
<!-- Generator: Adobe Illustrator 25.3.1, SVG Export Plug-In . SVG Version: 6.00 Build 0)  -->
<svg version="1.1" id="圖層_1" xmlns="http://www.w3.org/2000/svg" xmlns:xlink="http://www.w3.org/1999/xlink" x="0px" y="0px"
	 viewBox="0 0 200 250" style="enable-background:new 0 0 200 250;" xml:space="preserve">
<style type="text/css">
	.st0{fill:#F1B79D;}
	.st1{fill:#EF8B72;}
	.st2{opacity:0.5;fill:#E9722A;enable-background:new    ;}
	.st3{opacity:0.2;fill:#003432;enable-background:new    ;}
	.st4{fill:#4A403D;}
	.st5{fill:#5EB5B6;}
	.st6{opacity:0.15;}
	.st7{fill:#FFFFFF;}
	.st8{fill:#FEFEFE;}
	.st9{fill:#040000;}
</style>
<g>
	<g>
		<g>
			<g>
				<path class="st0" d="M210,208.8l-49.7-36l-85.8,2.6l-5.4-8L52.8,163c0,0,20.8,40.2,42.9,43.6l102,94L210,208.8z"/>
				<path class="st1" d="M111.6,185.7L111.6,185.7c-23.6,3.6-45-8-47.7-25.9L60,134.5c-2.8-17.9,14.1-35.2,37.7-38.8l0,0
					c23.6-3.6,45,8,47.7,25.9l3.9,25.3C152.1,164.8,135.2,182.1,111.6,185.7z"/>
				<path class="st1" d="M95.6,206.5c0,0,23.9,7.2,44.9-10.9c0,0-11.7,13.8-38.4,16.9L95.6,206.5z"/>
				<polygon class="st2" points="168.5,178.7 207.8,224.9 210,208.8 				"/>
			</g>
			<g>
				<path class="st0" d="M79.8,95.7L79.8,95.7c-4.1,5.6-12,6.9-17.7,2.9L16.3,66.5c-5.7-4-7-11.8-3-17.4l0,0
					c4.1-5.6,12-6.9,17.7-2.9l45.8,32.1C82.5,82.3,83.9,90.1,79.8,95.7z"/>
				<path class="st3" d="M33.8,48.1l5.4,34.4l-5.9-4.2L28,44.6c1.1,0.4,2.1,0.9,3,1.6L33.8,48.1z"/>
			</g>
			<path class="st1" d="M86.6,171.9L86.6,171.9c-4.1,5.6-12,6.9-17.7,2.9l-34.5-24.2c-5.7-4-7-11.8-3-17.4l0,0
				c4.1-5.6,12-6.9,17.7-2.9l34.5,24.2C89.4,158.5,90.7,166.3,86.6,171.9z"/>
		</g>
		<g>
			<path class="st4" d="M128.1,2.6l26.1,167.5c0.3,2-1.1,3.8-3.1,4.1L59.3,188c-1.8,0.3-3.5-0.8-4.1-2.5c-0.1-0.2-0.1-0.3-0.1-0.5
				L29,17.5c-0.3-2,1.1-3.8,3.1-4.1l91.8-13.8C125.9-0.8,127.8,0.6,128.1,2.6z"/>
			<polygon class="st5" points="149,166.4 58.9,179.9 34.3,21.7 124.3,8.1 			"/>
			<g class="st6">
				<polygon class="st7" points="129,8 135.2,48.2 51.3,160.5 45.1,120.4 				"/>
			</g>
			<g class="st6">
				<polygon class="st7" points="137.4,62 138.8,71.5 54.9,183.9 53.4,174.3 				"/>
			</g>
		</g>
		<g>
			<g>
				<g>
					<path class="st0" d="M167.9,129c0.3,1.8,0.5,3.5,0.6,5.3v57.1l-19.7,1.2c0,0-46.7-30.5-16-74.8c-7-15-12.1-33.3-3.3-44.6
						c9-11.6,14.7-9.4,18-4.2l0.1,0.1c0.1,0.2,0.2,0.4,0.4,0.6c0.1,0.1,0.2,0.3,0.2,0.4c2.5,4.5,3.5,10.5,3.5,12.4
						c0,0.1,0,0.1,0,0.2c0,0.2,0,0.5,0.1,0.8c0.1,1.2,0.3,2.5,0.7,3.9c0.1,0.3,0.2,0.6,0.2,0.9c0.7,2.8,1.9,5.8,3.2,8.8
						c0.1,0.3,0.2,0.6,0.4,0.9c0.4,0.9,0.8,1.7,1.2,2.6c0.1,0.3,0.3,0.6,0.4,0.9c0.9,1.8,1.8,3.6,2.7,5.3
						C164.2,113.8,166.7,121.3,167.9,129z"/>
					<path class="st2" d="M167.9,129c0.3,1.8,0.5,3.5,0.6,5.3v7.1l-0.5-5.5c-0.3-1.8-0.6-3.5-1.1-5.2c-1.8-7.6-4.9-14.9-9.1-21.5
						c-1-1.6-2.1-3.4-3.1-5.1c-0.2-0.3-0.3-0.6-0.5-0.8c-0.5-0.8-0.9-1.6-1.4-2.5c-0.2-0.3-0.3-0.6-0.5-0.9
						c-1.5-2.9-2.9-5.8-3.9-8.6c-0.1-0.3-0.2-0.6-0.3-0.9c-0.4-1.3-0.8-2.6-1-3.8c0-0.3-0.1-0.5-0.1-0.8v-0.2
						c-0.2-2-1.7-7.8-4.5-12.1c-0.1-0.1-0.2-0.3-0.3-0.4c-0.1-0.2-0.3-0.4-0.4-0.6c0,0,0-0.1-0.1-0.1c-2.3-3-5.3-4.8-9-3.1
						c7.1-7.1,11.8-4.9,14.7-0.3l0.1,0.1c0.1,0.2,0.2,0.4,0.4,0.6c0.1,0.1,0.2,0.3,0.2,0.4c2.5,4.5,3.5,10.5,3.5,12.4
						c0,0.1,0,0.1,0,0.2c0,0.2,0,0.5,0.1,0.8c0.1,1.2,0.3,2.5,0.7,3.9c0.1,0.3,0.2,0.6,0.2,0.9c0.7,2.8,1.9,5.8,3.2,8.8
						c0.1,0.3,0.2,0.6,0.4,0.9c0.4,0.9,0.8,1.7,1.2,2.6c0.1,0.3,0.3,0.6,0.4,0.9c0.9,1.8,1.8,3.6,2.7,5.3
						C164.2,113.8,166.7,121.3,167.9,129z"/>
				</g>
				<path class="st3" d="M137.9,65.4v0.2c-2.4,1.1-5.2,3.5-8.3,7.6c-8.8,11.2-3.6,29.6,3.3,44.6c-17.5,25.3-9.9,46-0.1,59.2
					l-4.1,0.6c-9.8-13.2-17.5-34,0.1-59.2c-7-15-12.1-33.3-3.3-44.6C130.7,67.1,134.7,65,137.9,65.4z"/>
			</g>
			<g>
				<g>
					<g>
						<path class="st0" d="M65.3,149.2L65.3,149.2c-2.4,6.5-9.7,9.8-16.3,7.4L33.8,151c-6.6-2.4-9.9-9.6-7.5-16.1l0,0
							c2.4-6.5,9.7-9.8,16.3-7.4l15.2,5.5C64.4,135.5,67.7,142.7,65.3,149.2z"/>
					</g>
					<path class="st2" d="M65.3,149.1c-2.4,6.5-9.7,9.8-16.3,7.4L33.8,151c-1.7-0.6-3.2-1.5-4.4-2.7c0.6,0.3,1.2,0.6,1.8,0.8
						l15.2,5.5c6.6,2.4,13.9-0.9,16.3-7.4c1.8-4.8,0.4-10.1-3.2-13.4C64.9,136.8,67.5,143.3,65.3,149.1z"/>
					<path class="st2" d="M58.9,133.6c-3.3,2.3-7.6,2.9-11.7,1.5L32,129.6c-0.4-0.1-0.8-0.3-1.1-0.5c0.9-0.6,1.9-1.1,2.9-1.5l13,4.7
						c2.9,1.1,6,1,8.7,0l2.2,0.8C58.2,133.2,58.6,133.4,58.9,133.6z"/>
				</g>
				<g>
					<g>
						<path class="st0" d="M63.1,124.9L63.1,124.9c-2.4,6.5-9.7,9.8-16.3,7.4l-15.2-5.5c-6.6-2.4-9.9-9.6-7.5-16.1l0,0
							c2.4-6.5,9.7-9.8,16.3-7.4l15.2,5.5C62.2,111.2,65.6,118.4,63.1,124.9z"/>
					</g>
					<path class="st2" d="M63.1,124.9c-2.4,6.5-9.8,9.8-16.3,7.4l-15.2-5.5c-4.7-1.7-7.8-5.9-8.2-10.5c0.9,4,3.8,7.5,8,9l15.2,5.5
						c6.6,2.4,13.9-0.9,16.3-7.4c0.7-1.8,0.9-3.7,0.7-5.5C64.1,120.2,64,122.6,63.1,124.9z"/>
					<path class="st2" d="M55.1,108.6c-3,1.5-6.7,1.8-10.1,0.6l-14.6-5.3c0.9-0.5,1.9-0.8,3-1.1l11.3,4.1c2.4,0.9,4.9,1,7.2,0.5
						L55.1,108.6z"/>
				</g>
				<g>
					<g>
						<path class="st0" d="M60.9,99.6L60.9,99.6c-2.4,6.5-9.7,9.8-16.3,7.4l-15.2-5.5c-6.6-2.4-9.9-9.6-7.5-16.1l0,0
							c2.4-6.5,9.7-9.8,16.3-7.4l15.2,5.5C60,85.9,63.4,93.1,60.9,99.6z"/>
					</g>
					<path class="st2" d="M60.9,99.6c-2.4,6.5-9.8,9.8-16.3,7.4l-15.2-5.5c-1.7-0.6-3.1-1.5-4.4-2.7c0.5,0.3,1.1,0.6,1.7,0.8L42,105
						c6.6,2.4,13.9-0.9,16.3-7.4c1.8-4.8,0.4-10-3.1-13.4C60.6,87.2,63.1,93.7,60.9,99.6z"/>
				</g>
			</g>
		</g>
	</g>
	
		<rect x="64.6" y="73" transform="matrix(0.9901 -0.1403 0.1403 0.9901 -13.2348 13.9682)" class="st8" width="55.7" height="55.7"/>
	<path class="st9" d="M93.8,119.8c1-0.2,2-0.3,3-0.5c0.4-0.1,0.8,0,1.2-0.2c0.4-0.1,0.4,0,0.4,0.3c0,0,0,0,0,0.1
		c0.1,1.1,0.1,1.1,1.2,1c1.6-0.2,3.2-0.5,4.8-0.7c0.2,0,0.3-0.1,0.3-0.3c0-0.2,0-0.3,0-0.5c-0.2-0.8-0.1-1,0.7-1
		c0.6,0,0.6-0.2,0.5-0.7c-0.1-0.3-0.2-0.6-0.1-1c-0.9,0.1-1.7,0.3-2.6,0.4c-0.6,0.1-0.5,0.4-0.4,0.7c0.1,0.2,0.1,0.4,0.1,0.6
		s-0.1,0.4-0.4,0.4c-0.8,0-1.6,0.2-2.3,0.4c-0.2,0.1-0.3,0-0.4-0.3c0-0.4-0.1-0.8-0.2-1.3c0.8-0.1,1.7-0.3,2.6-0.4
		c0.3,0,0.4-0.1,0.4-0.4c0-0.4-0.2-0.8-0.1-1.2l0,0c0.4-0.1,0.8-0.1,1.2-0.2c0.2,0,0.4-0.1,0.3-0.5c-0.1-0.8-0.2-1.5-0.4-2.3
		c-0.1-0.4-0.2-0.4-0.5-0.3c-0.4,0.1-0.8,0.1-1.1,0.2l0,0c-0.2-1.1-0.3-2.1-0.5-3.2l0,0c0.3,0,0.6-0.1,1-0.2c0.5,0,0.6-0.3,0.5-1.1
		c-0.4-1.8-0.6-3.6-0.8-5.5c-0.1-0.4-0.2-0.8-0.2-1.2c0.7-0.1,1.3-0.3,2-0.3c0.3,0,0.7-0.3,1-0.1c0.4,0.2,0.1,0.6,0.2,0.9
		c0.2,1.2,0.4,2.4,0.6,3.6c-0.5,0-0.9,0.1-1.4,0.2c-0.1,0-0.2,0-0.2,0.2c0.1,0.4,0.2,0.8,0.2,1.1c0,0.1,0,0.3,0.2,0.2
		c0.4-0.2,0.8,0,1.2-0.2c0.2-0.1,0.2-0.2,0.2-0.3c-0.1-0.4-0.2-0.9-0.2-1.3c0.5-0.1,1.1-0.2,1.6-0.2c0.2,0.4,0.1,0.8,0.2,1.3
		c0.1,0.3,0.1,0.3,0.4,0.3c1.2-0.2,2.4-0.4,3.5-0.5c0.5,0,0.6-0.3,0.5-0.7c-0.1-0.5-0.2-1-0.3-1.6c0-0.3,0-0.6-0.1-0.8
		c-0.2-0.3-0.5,0.1-0.8,0c-0.1-0.1-0.3,0-0.5,0.1c-0.1,0.1-0.3,0.1-0.3-0.2c0.1-0.3-0.2-0.7-0.1-1c0.1-0.4-0.1-0.5-0.5-0.3
		c-0.1,0-0.2,0.1-0.3,0.1c-0.7,0-0.9,0.2-0.7,0.9c0.1,0.6,0.2,1.2,0.3,1.8c0.1,0.3-0.1,0.5-0.4,0.5c-0.4,0-0.7,0.1-1,0.1
		c-0.1-0.9-0.2-1.8-0.4-2.7c0-0.2,0-0.4,0.2-0.4c0.4-0.1,0.9,0.1,1.1-0.3c0.2-0.3-0.2-0.8-0.1-1.2c0-0.3-0.2-0.4-0.4-0.3
		c-0.4,0.2-0.8,0-1.2,0.3c0.1-0.5,0-0.9-0.1-1.3c-0.2-0.6-0.7-0.1-1-0.1c-1.2,0.1-2.4,0.3-3.6,0.5c0.1,0.5,0.1,1,0.2,1.5
		c-0.5-0.1-1,0.2-1.6,0.1c0-0.2-0.1-0.5-0.2-0.8c-0.1-0.6-0.2-0.7-0.8-0.6c-0.7,0.2-0.8,0.1-0.9-0.5c-0.2-0.9-0.2-1,0.8-1
		c0.6,0,0.6-0.3,0.5-0.6c-0.1-0.3,0-0.6-0.2-0.9c0.4-0.1,0.8-0.1,1.2-0.2c0.3-0.1,0.4,0,0.5,0.3c0,0.3,0.1,0.5,0.1,0.8
		c0,0.2,0.1,0.2,0.2,0.2c0.4,0.1,0.7-0.1,1.1-0.2c0.2,0,0.1-0.4,0.1-0.6c-0.1-1-0.1-1,0.9-1.1s2-0.2,3-0.5c0.6-0.2,0.6,0.3,0.7,0.6
		c0.1,0.2-0.1,0.6,0.1,0.7c0.3,0.1,0.6,0.1,0.9,0c0.5-0.2,0.6-0.1,0.7,0.5c0.1,0.7,0.2,1.5,0.3,2.2c0,0.2,0.1,0.3,0.3,0.2
		c0.3-0.2,0.7,0,1-0.2c0.1-0.1,0.3,0,0.3,0.2c0,0.3,0.1,0.7,0.1,1c0,0.2,0.1,0.4,0.4,0.3s0.6,0,0.9-0.1c0.2-0.1,0.4-0.1,0.4-0.5
		c-0.2-0.8-0.3-1.6-0.4-2.4c0-0.3-0.2-0.3-0.4-0.2c-0.2,0.1-0.5,0-0.7,0.1c-0.6,0.2-0.6-0.1-0.7-0.5c-0.1-0.7-0.2-1.4-0.3-2.1
		c-0.1-0.4-0.3-0.3-0.5-0.3c-0.1,0-0.2,0.1-0.3,0.1c-0.7,0.1-0.8,0.1-0.8-0.6c0-0.3-0.2-0.5-0.1-0.8l0,0c0.7-0.3,1.4-0.3,2.1-0.4
		c0.9-0.1,0.9-0.1,1.1,0.9c0.1,0.3,0.1,0.6,0.6,0.4c0.7-0.2,1.5-0.2,2.2-0.4c0.2,0,0.3-0.1,0.4,0.2c0.1,0.9,0.3,1.7,0.5,2.6
		c0,0.3-0.2,0.1-0.3,0.2c-0.2,0.2-0.5,0.1-0.7,0.1c-0.4,0.1-0.5,0.3-0.4,0.6c0.3,1.3,0.4,2.5,0.6,3.8c0,0.2,0,0.2-0.2,0.3
		c-0.3,0.2-0.7,0.1-1,0.2c-0.4,0.1-0.4,0.3-0.3,0.5c0.2,1.3,0.4,2.6,0.6,3.8c0.1,0.4,0.3,0.2,0.5,0.2c0.6-0.1,1.1-0.1,1.7-0.2
		c1-0.2,1-0.2,1.1,0.8c0.1,0.4,0.1,0.8-0.5,0.7c-0.3,0-0.6,0.1-1,0.1c0.3,0.4,0.2,0.8,0.3,1.2c0.1,0.3,0,0.6-0.5,0.5
		c-0.4-0.1-0.8,0.4-1.1,0c-0.2-0.2-0.1-0.7-0.2-1c0-0.3-0.2-0.3-0.4-0.3c-0.4,0-0.7,0.1-1.1,0.1c-0.1,0-0.2,0-0.1,0.2
		c0.2,0.8,0.3,1.7,0.4,2.5c0,0.3,0.2,0.3,0.4,0.3c0.7-0.1,1.4-0.2,2-0.3c0.7-0.1,0.8-0.1,0.9,0.6c0,0.3,0.2,0.6,0.1,0.9l0,0
		c-0.4-0.1-0.8,0.1-1.2,0.1c-0.7,0.1-1.4,0.1-2,0.4c0-1.5-0.1-1.6-1.4-1.5c-0.3,0-0.4,0.2-0.3,0.4c0.1,0.2,0.1,0.5,0.1,0.7
		c0,0.5,0.4,0.7,0.8,0.5c0.3-0.1,0.6-0.1,0.8-0.1c0,0.5,0.2,1,0.2,1.5l0,0c-0.7,0.1-1.5,0.2-2.2,0.3c-0.6,0.1-0.9,0.2-0.9-0.7
		c0-0.2-0.2-0.4-0.1-0.7c-1,0.2-1.8,0.4-2.7,0.4c-0.4,0-0.4,0.3-0.3,0.5c0.2,0.8,0.2,1.5,0.4,2.3c0,0.3,0,0.4-0.2,0.3
		c-0.3,0-0.6,0.2-0.9,0.1c-0.4-0.1-0.4,0.2-0.4,0.5c0.1,0.9,0.3,1.8,0.4,2.6c-1.6,0.3-3.2,0.5-4.8,0.8c-1.4,0.2-2.7,0.4-4.1,0.6
		c-0.2,0-0.3,0-0.3-0.2s-0.1-0.4-0.1-0.6c0-0.4,0-0.7-0.6-0.5c-0.3,0.1-0.9,0-1,0.3c-0.1,0.2,0,0.7,0.2,1c0.1,0.1,0,0.3-0.2,0.4
		c-0.7,0.2-1.4,0.2-2,0.3c-0.7,0.1-1.3,0.2-2,0.3c-0.2,0-0.3,0.1-0.4-0.2c-0.1-0.3-0.1-0.7-0.2-1s0.3-0.3,0.5-0.3
		c0.8-0.1,1.5-0.3,2.3-0.3c0.4,0,0.4-0.2,0.3-0.5C93.9,120.6,93.9,120.2,93.8,119.8L93.8,119.8z M105.8,113.3
		c1.2-0.2,2.5-0.4,3.8-0.5c0.2,0,0.3-0.2,0.2-0.4c-0.3-1.3-0.5-2.7-0.6-4c0-0.2-0.1-0.4-0.5-0.3c-0.6,0.2-1.3,0.2-1.9,0.3
		c-0.7,0.1-1.4,0.2-2.1,0.4c-0.2,0-0.3,0.1-0.2,0.3c0.3,1.3,0.5,2.7,0.6,4C105.2,113.2,105.3,113.4,105.8,113.3z"/>
	<path class="st9" d="M81.7,91.9c0,0.4,0.1,0.7,0.2,1.1c0,0.4,0.4,0.4,0.7,0.3c0.9-0.2,0.9-0.2,0.9,0.7c0,0.5,0.3,0.7,0.8,0.6
		c1.2-0.2,2.4-0.4,3.6-0.6c0.4,0,0.3-0.3,0.3-0.4c-0.1-0.3,0-0.6-0.1-0.8c-0.2-0.4,0.1-0.4,0.3-0.5c1.1-0.2,1.2-0.2,1-1.3
		c-0.1-0.4,0-0.4,0.4-0.4c0.1,0,0.3,0,0.4-0.1c0.4-0.1,0.8-0.2,0.7,0.5c0,0.3,0.2,0.5,0.1,0.8c0,0.2,0.2,0.2,0.2,0.1
		c0.3-0.2,0.6-0.1,0.9-0.2c0.5-0.1,0.4-0.3,0.4-0.6c-0.1-0.7-0.2-1.4-0.3-2c0-0.3,0.1-0.6,0.5-0.5c0.3,0,0.6-0.2,0.9-0.1
		c-0.1-0.4-0.2-0.8-0.2-1.2c0-0.4-0.2-0.4-0.4-0.3c0,0,0,0-0.1,0c-0.9,0.2-1,0.2-0.8,1.2c0.1,0.8-0.5,0.6-0.8,0.7
		c-0.2,0.1-0.5,0-0.7,0.2c-0.1-0.4-0.1-0.8-0.2-1.2c0-0.3,0-0.5,0.4-0.5c0.3,0,0.5-0.1,0.8-0.1c0.2,0,0.2-0.2,0.2-0.3
		c0.1-0.3-0.1-0.7-0.1-1s-0.3-0.2-0.5-0.2c-1.1,0.1-1.1,0.1-1.3-0.9c-0.1-0.4,0-0.8-0.1-1.2c-0.3-0.8,0.1-0.9,0.7-1s1.2-0.1,1.7-0.3
		c0.5-0.1,0.5,0.3,0.6,0.6c0,0.3,0,0.6,0.1,0.9c-0.4-0.1-0.7,0.2-1,0.1c-0.3,0-0.4,0-0.4,0.4c0,0.8,0.1,1.2,0.5,1.2
		c0.2,0,0.3,0.1,0.5,0s0.5-0.1,0.7-0.2c-0.1-0.5-0.1-1-0.2-1.5c0.5-0.1,1-0.2,1.6-0.3v-0.1c-0.2-0.4,0.1-0.9-0.3-1.2
		c-0.3-0.3-0.8,0.1-1.2,0.1c-0.3,0-0.4-0.2-0.4-0.4c0-0.7-0.2-1.3-0.3-2c0-0.6-0.2-0.7-0.8-0.6c-0.7,0.1-1.3,0.3-2,0.3
		c-0.4,0-0.4,0.2-0.4,0.4c0.1,0.4,0.3,0.9,0.1,1.2c-0.2,0.2-0.8,0.1-1.2,0.2c-0.5,0.1-1,0.2-1.5,0.2c-0.1,0-0.1,0.1-0.2,0.2
		c0,0.4,0.2,0.8,0.1,1.2c0,0.1,0.1,0.1,0.2,0.1s0.3,0,0.4,0c0.3-0.2,0.7-0.1,1-0.2c0.1,0.4,0.1,0.9,0.2,1.3c0,0.2-0.1,0.3-0.2,0.2
		c-0.4-0.1-0.8,0.2-1.3,0.1c0.1,0.4,0.1,0.7,0.2,1.1s0,0.6-0.5,0.6c-1.1,0-1.1,0.1-1.1-1c0-0.3-0.1-0.4-0.4-0.3
		c-1,0.1-1.9,0.3-2.9,0.4c-0.3,0.1-0.7,0-1,0.2c-0.1,0.1-0.2,0-0.3-0.2c-0.1-0.4,0-0.7-0.1-1.1c-0.1-0.3,0.1-0.1,0.2-0.2
		c0.7-0.1,1.4-0.3,2.1-0.4c0.6-0.1,0.8-0.2,0.6-0.8c-0.2-0.8-0.1-1,0.7-1c0.5,0,0.6-0.2,0.6-0.7c0-0.3-0.3-0.6-0.1-0.9
		c-0.1-0.1-0.2-0.1-0.2-0.1c-0.4,0.1-0.9-0.1-1.2,0.3c-0.2,0.3,0,0.8,0.1,1.1c0,0.3-0.2,0.4-0.4,0.5c-0.8,0.1-1.6,0.2-2.4,0.4
		c-0.2,0-0.2-0.1-0.2-0.2c-0.1-0.7-0.2-1.4-0.4-2.1c-0.1-0.5,0-0.9,0.6-0.8c0.1,0,0.3,0,0.4-0.1c0.3-0.1,0.5,0,0.4,0.3
		c0,0.3,0.2,0.6,0.1,0.9c0,0.1,0.1,0.2,0.1,0.2c0.5-0.1,1,0,1.4-0.2c0.3-0.2,0.1-0.5,0-0.7c-0.2-0.5,0-0.7,0.6-0.8
		c1.8-0.3,3.6-0.5,5.3-0.8c0.9-0.2,1.8-0.2,2.7-0.4c0.4-0.1,0.5,0.1,0.6,0.5c0.1,1,0.1,1,1.1,0.8c0.4-0.1,0.8,0,0.8,0.5
		c0,0.7,0.3,1.3,0.3,2c0,0.6,0.5,0.5,0.8,0.5c0.9-0.2,0.9-0.2,1,0.7c0.2,1.2,0.4,2.4,0.6,3.6c-0.4-0.1-0.8,0.2-1.3,0.2
		c-0.1,0-0.3,0-0.3,0.2c0,0.4,0.1,0.9,0.2,1.3c0,0.1,0.1,0.2,0.3,0.1c0.3-0.2,0.7,0,1.1-0.2c0.1-0.1,0.2,0,0.2-0.3
		C97,87.3,97,86.8,97,86.4c0.5-0.1,1-0.2,1.5-0.2c-0.1,0.4,0.1,0.8,0.2,1.3c0,0.1,0.1,0.4,0.3,0.3c0.4-0.2,0.8,0,1.1-0.2
		c0.1-0.1,0.3,0,0.2-0.2c-0.2-0.2-0.1-0.5-0.1-0.7c-0.1-0.4-0.1-0.8-0.8-0.6c-0.3,0.1-0.6,0.2-0.9,0.2c-0.2-0.9-0.3-1.8-0.5-2.7
		c0-0.1-0.1-0.3,0.1-0.3c0-0.3,0.4-0.3,0.9-0.3c0.3,0,0.2,0.4,0.3,0.6c0.2,1,0.2,1.1,1.1,0.8c0.5-0.2,0.5,0.1,0.6,0.4
		c0.2,0.8,0.3,1.7,0.4,2.6c0,0.4,0.1,0.8,0.2,1.2c0.1,0.4-0.1,0.5-0.3,0.5c-0.7,0-1.3,0.2-2,0.3c-0.6,0-0.7,0.1-0.5,0.8
		c0,0.2,0,0.3,0,0.5c0,0.3,0.2,0.4,0.4,0.3c0.9-0.2,1.8-0.3,2.7-0.4c0.1,0.2,0.1,0.4,0.1,0.7c0.2,0.8,0,0.9-1.1,1.1
		c-0.5,0.1-1,0.2-1.5,0.2c-0.4,0-0.4,0.3-0.3,0.5c0,0.3,0.2,0.5,0.1,0.8c0,0.3,0.2,0.2,0.3,0.2c0.4-0.1,0.9-0.1,1.3-0.2
		c0,0.4,0,0.7,0.1,1.1s0,0.6-0.5,0.6c-0.8,0-1.7,0.3-2.5,0.3l0,0c-0.1-1-0.2-1.9-0.4-2.9c0-0.2-0.1-0.2-0.3-0.2
		c-0.1,0-0.2,0.1-0.3,0.1c-1.1,0.3-1.2,0.2-1.3-1c0-0.4-0.1-0.6-0.5-0.4c-0.3,0.1-0.8,0-1,0.3s0,0.7,0.1,1c0.1,0.5-0.2,0.5-0.5,0.5
		c-0.6,0.1-1.1,0.2-1.7,0.3c-0.8,0.1-1,0.2-0.7,1c0.2,0.5-0.1,0.6-0.4,0.7c-1.2,0.1-2.4,0.4-3.6,0.5c-0.3,0-0.7,0-0.5,0.6
		c0.1,0.3,0,0.6,0.1,0.9c0.1,0.2,0,0.2-0.2,0.2c-0.9,0.1-1.8,0.2-2.6,0.4c-0.3,0.1-0.1-0.1-0.2-0.2c-0.2-0.3-0.2-0.7-0.2-1
		c-0.1-0.5-0.3-0.4-0.6-0.3c-0.2,0.1-0.5,0.1-0.7,0.1s-0.4-0.1-0.3-0.3c0.1-0.4-0.2-0.7-0.1-1c-0.6-0.1-1.1,0.3-1.6,0.1l0,0
		c-0.1-0.5-0.2-1-0.2-1.5c-0.9,0.1-1.8,0.3-2.6,0.4c-0.3,0.1-0.5-0.1-0.5-0.4c0-0.1,0-0.2,0-0.3c-0.1-0.7-0.1-0.7,0.7-0.8
		C79.2,92.3,80.5,92.1,81.7,91.9L81.7,91.9z"/>
	<path class="st9" d="M102.5,115.4c-1.4,0.2-2.8,0.4-4.2,0.6c-0.5,0.1-0.5,0.4-0.4,0.7c0.2,0.9,0.2,0.8-0.7,1
		c-0.7,0.2-0.7-0.2-0.8-0.6c-0.1-0.7-0.2-1.3-0.3-2c0-0.3-0.1-0.4-0.4-0.4c-1.1,0.2-2.3,0.4-3.4,0.6c-0.1,0-0.1,0-0.2,0
		c-0.7,0.1-0.8,0.1-0.7,0.9c0.1,0.8,0.1,0.8-0.7,0.9c-0.7,0-1.3,0.3-2,0.3c-0.2,0-0.3,0.1-0.3,0.3c0.2,1.4,0.5,2.8,0.7,4.2
		c0,0.2,0,0.3-0.3,0.3c-0.4,0-0.9,0.1-1.3,0.2l0,0c0-0.4-0.1-0.7-0.1-1c0-0.5-0.3-0.6-0.8-0.5c-0.8,0.2-0.8,0.1-0.9-0.6
		c-0.1-0.6-0.2-1.3-0.3-1.9c0-0.3-0.1-0.5,0.3-0.5c0.1,0,0.2-0.1,0.3-0.1c0.7,0.1,0.9-0.2,0.7-0.9c-0.2-0.7-0.2-0.9-0.9-0.7
		c-0.7,0.2-0.7,0.1-0.8-0.6c-0.3-1.8-0.6-3.6-0.8-5.4l0,0c0.1,0,0.3,0,0.4,0c0.3-0.2,0.7-0.2,1-0.2c0.5,0,0.1,0.6,0.3,0.9
		c0,0,0.1,0.1,0.1,0.2c0,0.3,0.1,0.5,0.4,0.3c0.4-0.2,0.9,0.1,1.2-0.4v-0.1c-0.2-0.9-0.3-1.8-0.5-2.8l0,0c0.1,0,0.1,0,0.2,0
		c1.2,0,1.2,0,1.2-1.3c0-0.3,0-0.4,0.4-0.5c1.2-0.2,2.5-0.4,3.7-0.6c0.3,0,0.5,0.1,0.4-0.4c-0.3-1.4-0.4-2.9-0.6-4.3l0,0
		c0.4,0,0.8-0.1,1.2-0.2c0.5-0.1,0.4,0.1,0.5,0.3c0.1,0.3-0.2,0.9,0.4,1c0.4,0.1,0.8-0.1,1.1-0.1c0.3-0.1,0.7-0.1,1-0.2
		c0.5-0.2,0.8,0,0.9,0.6c0.1,0.9,0.1,0.9,1,0.7c0.6-0.1,0.8,0.1,0.9,0.7s0.1,1.2,0.3,1.9c0,0.2,0.1,0.4,0.5,0.4c0.3,0,0.7-0.4,1-0.1
		c0.2,0.2,0.1,0.7,0.2,1c0.2,0.6,0.2,1.3,0.3,2l0,0c-1,0.2-2,0.3-3,0.5c0-0.3-0.1-0.5-0.1-0.8c0-0.4-0.2-0.8-0.7-0.6
		c-0.6,0.2-1.3,0.2-2,0.3c-0.4,0-0.5,0.2-0.4,0.5c0.1,0.4,0.1,0.7,0.2,1c-0.8,0.1-1.5,0.3-2.3,0.4c-0.4,0.1-0.8,0.2-0.8-0.5
		c0-0.3,0-0.6-0.1-0.9c-0.2,0-0.3,0-0.5,0.1c-1.1,0-1.1,0-1,1.1c0,0.3,0.1,0.6-0.4,0.6c-0.4,0-0.7,0.1-1.1,0.1
		c0.1,0.2,0.1,0.5,0.1,0.7c0.1,0.8,0.3,0.9,0.8,0.8c0.6-0.1,1.3-0.3,1.9-0.4c0.4-0.1,0.7-0.1,0.7,0.5c0,0.8,0.2,1,0.8,0.9
		c0.3-0.1,0.6,0,0.9-0.1c-0.2-0.3-0.1-0.6-0.2-0.8c-0.2-0.6-0.1-0.7,0.6-0.8c0.1,0,0.2,0,0.2-0.1c0.4-0.1,0.8-0.2,0.7,0.5
		c0,0.2,0.1,0.5,0.1,0.8c0,0.2,0.1,0.3,0.3,0.2c0.4-0.1,0.8-0.1,1.2-0.2c-0.1,0.4,0.2,0.9,0.1,1.3c0,0.3,0.2,0.1,0.3,0.1
		c0.6-0.1,1.3-0.2,1.9-0.3c1.2-0.1,0.9-0.3,0.8-1.1c-0.1-0.3,0-0.6,0.3-0.6c0.4,0,0.7-0.2,1.1-0.1l0,0c0,0.3,0.1,0.7,0.1,1
		C102.3,114,102.4,114.7,102.5,115.4L102.5,115.4z M86.4,113.1c0.1,0.2,0.1,0.4,0.1,0.6c0,0.9,0.1,0.9,0.9,0.7
		c0.7-0.2,0.8-0.1,0.9,0.7c0,0.4,0.1,0.7,0.7,0.6c0.7-0.1,1.5-0.3,2.2-0.4c0.3,0,0.3-0.2,0.3-0.4c-0.1-0.3-0.1-0.6-0.1-0.9
		s-0.2-0.2-0.3-0.2c-0.4,0-0.7,0.1-1.1,0.1c-0.1,0-0.3,0.1-0.3-0.2c0-0.3-0.2-0.5-0.1-0.8c0.1-0.6-0.3-0.6-0.7-0.5
		C88.1,112.8,87.3,113,86.4,113.1z M96.8,106.8c0.4,0.1,0.7-0.2,1-0.1c0.2,0,0.3-0.1,0.2-0.3c-0.2-0.7-0.2-1.3-0.3-2
		c-0.1-0.6-0.3-0.8-0.9-0.7c-0.2,0.1-0.4,0.1-0.6,0.1s-0.2,0.1-0.2,0.3c0.1,0.8,0.3,1.7,0.4,2.5C96.4,106.7,96.5,107,96.8,106.8z
		 M90.4,107.8c-0.2,0-0.3,0.1-0.5,0.1c-1.1,0.1-1,0.1-1,1.2c0,0.6,0.3,0.5,0.7,0.5c0.1,0,0.3-0.1,0.4-0.1c0.5,0.1,0.6-0.3,0.5-0.6
		C90.4,108.5,90.5,108.1,90.4,107.8z"/>
	<path class="st9" d="M84.6,100.9c-0.1,0.4,0.2,0.8,0.1,1.3c0,0.1,0.1,0.3,0.3,0.2c0.9-0.1,1.7-0.3,2.6-0.5c0.2,0,0.3,0,0.2-0.3
		c-0.1-0.3,0-0.7-0.2-1c-0.1-0.3,0.2-0.3,0.3-0.3c0.1,0,0.1-0.1,0.2-0.1c1.1-0.1,1.1-0.1,0.8-1.2c0-0.2-0.1-0.3,0.1-0.4
		c0.4-0.2,0.8-0.2,1.3-0.2c0.2,0,0.2,0.4,0.3,0.6c0.1,0.2,0,0.4,0.1,0.6c0,0.1,0.1,0.4,0.3,0.3c0.4-0.2,0.8,0,1.2-0.2l0,0
		c0.1,0.5,0.2,1.1,0.3,1.6l0,0c-0.3,0-0.5,0.1-0.7,0.1c-0.7,0.1-1.3,0.2-2,0.3c-0.2,0-0.4,0.1-0.3,0.3c0.2,0.4,0,0.8,0.2,1.2l0,0
		c-0.3,0.1-0.6,0.1-0.9,0.1c-0.7,0.1-0.8,0.1-0.6,0.8c0.2,0.8,0.1,0.9-0.7,1c-0.6,0.1-0.7,0.2-0.6,0.8c0.1,0.8,0.4,1.5,0.3,2.3l0,0
		c-1,0.2-2,0.3-3,0.5l0,0c-0.2-1.1-0.3-2.1-0.5-3.2c-0.2-1.2-0.3-2.4-0.5-3.6c-0.1-0.8-0.2-0.8-1-0.7c-0.1,0-0.3,0-0.4,0
		c-0.3,0.1-0.4,0-0.4-0.3c-0.1-1-0.1-0.9-1.1-0.9c-0.7,0-0.7,0.3-0.5,0.8c0.2,0.8,0.2,0.8,1.1,0.6c0,0,0,0,0.1,0
		c0.3,0,0.7-0.1,0.6,0.5c0,0.3,0.1,0.7,0.2,1.1c-1.5,0.1-1.5,0.1-1.4,1.4c0.1,0.8,0.6,0,0.9,0.2c0,0,0.2-0.1,0.4-0.1
		c0.3,0,0.4,0,0.4,0.3c0,0.1,0,0.3,0,0.4c0.2,0.8,0.2,0.8-0.6,0.9c-0.1,0-0.2,0-0.4,0c-0.3,0.1-0.5,0.1-0.4,0.5s0.2,0.8,0.1,1.2
		c-0.9,0.1-1.8,0.2-2.7,0.4c-0.2,0-0.4,0.1-0.3,0.5c0.2,0.3,0.1,0.7,0.1,1.1l0,0c-0.4,0-0.8,0.2-1.2,0.1c-0.2,0-0.4,0.2-0.3,0.3
		c0.2,0.3,0,0.7,0.2,1.1c0.1,0.2,0.1,0.2,0.3,0.2c0.4,0,0.8-0.2,1.2-0.1l0,0c0,0.3,0,0.7,0.2,1c0.3,0.5-0.2,0.6-0.4,0.6
		c-1.3,0.1-2.6,0.4-3.9,0.6l0,0c-0.5-0.2-0.2-0.8-0.4-1.1c-0.1-0.2,0.1-0.4,0.3-0.4c1.3-0.1,1.2-0.1,1-1.4c-0.1-0.5-0.1-1.1-0.3-1.6
		c0-0.1,0-0.2,0.2-0.2c0.3,0,0.6-0.1,0.9-0.1c0.5,0,0.4-0.2,0.4-0.6c-0.2-1.1-0.4-2.2-0.5-3.4c-0.1-0.7-0.3-0.8-0.9-0.6
		c-0.8,0.2-0.8,0.2-0.9-0.7c0-0.7-0.2-0.8-0.8-0.7c-0.9,0.2-0.9,0.2-1-0.8c-0.1-0.7-0.2-1.4-0.3-2.1l0,0c0.5,0,0.9,0,1.4-0.2
		c0.3-0.1,0.3,0,0.3,0.3c0,0.5,0.2,1,0.2,1.5c0,0.4,0,0.9,0.2,1.1c0.3,0.3,0.8-0.1,1.2,0c0.4,0.1,0.3-0.2,0.3-0.4
		c-0.2-1.3-0.4-2.7-0.6-4c0-0.2-0.1-0.2-0.4-0.2c-1,0.2-1.9,0.3-2.9,0.4l0,0c0-0.3,0-0.5-0.1-0.8c-0.2-0.4,0-0.8,0.5-0.7
		c0.7,0,1.3-0.3,2-0.3c0.3,0,0.5-0.1,0.5-0.5c0-0.3-0.2-0.6-0.1-1c0-0.2-0.2-0.2-0.3-0.1c-0.2,0.1-0.3,0-0.5,0.1
		c-0.7,0.3-0.9,0-1-0.7c-0.1-0.5,0.1-0.7,0.5-0.7c0.7-0.1,1.5-0.1,2.2-0.4c0.2-0.1,0.3,0,0.3,0.3c0.1,1,0.3,2,0.5,3
		c0,0.3,0.2,0.6,0.1,1c0,0.3,0.3,0.2,0.5,0.2c0.6-0.1,1.2-0.1,1.7-0.2c0.9-0.2,1-0.2,1,0.7c0,0.7,0.4,0.7,0.8,0.6
		c0.9-0.1,1-0.1,1,0.7c0,0.7,0.4,0.7,0.8,0.6c0.9-0.1,0.9-0.1,1,0.7c0,0.5,0.2,0.6,0.6,0.5C84,100.9,84.3,100.7,84.6,100.9
		L84.6,100.9z M77.1,103.6c0.7-0.1,1.3-0.2,1.9-0.3c1.1-0.2,1.1-0.1,1-1.2c0-0.6-0.3-0.5-0.6-0.4c-0.7,0.2-1.4,0.2-2.1,0.3
		c-0.3,0-0.3,0.1-0.3,0.3C77,102.7,77.2,103.1,77.1,103.6z M77.6,106.7c0.2,0,0.4-0.1,0.5-0.1c1-0.1,1-0.1,0.9-1c0-0.1,0-0.1,0-0.2
		c0.1-0.5-0.3-0.5-0.6-0.5c-0.2,0-0.4,0.1-0.6,0.1c-0.4,0-0.5,0.1-0.4,0.5C77.6,105.9,77.6,106.3,77.6,106.7z"/>
	<path class="st9" d="M85.1,124.3c-1.3,0.2-2.6,0.4-3.9,0.6c-1.2,0.2-2.4,0.3-3.6,0.5c-0.9,0.1-1.8,0.3-2.7,0.4
		c-0.3,0.1-0.5,0.1-0.6-0.4c-0.1-1.2-0.4-2.4-0.6-3.6c-0.2-1.5-0.5-2.9-0.7-4.4c-0.1-0.6-0.2-1.3-0.3-1.9c0-0.2,0-0.4,0.3-0.5
		c2.2-0.3,4.5-0.6,6.7-1c1.1-0.2,2.2-0.3,3.4-0.6c0.2,0,0.2,0,0.2,0.2c0.2,0.7,0.2,1.4,0.4,2.1c0.2,1.5,0.5,2.9,0.7,4.4
		c0.2,1.2,0.3,2.4,0.5,3.6C85,124,85,124.1,85.1,124.3z M83.3,123c-0.3-0.3-0.1-0.6-0.2-0.9c-0.2-1.5-0.5-3-0.7-4.5
		c-0.1-0.7-0.2-1.3-0.4-2c0-0.2,0-0.2-0.3-0.2c-1.1,0.2-2.3,0.4-3.4,0.5c-1.2,0.1-2.4,0.4-3.6,0.5c-0.2,0-0.4,0.2-0.4,0.5
		c0.1,0.6,0.2,1.1,0.3,1.7c0.3,1.7,0.5,3.5,0.8,5.2c0,0.3,0.1,0.4,0.4,0.3c0.6-0.1,1.1-0.2,1.7-0.3C79.5,123.7,81.4,123.3,83.3,123z
		"/>
	<path class="st9" d="M69.2,92.3c-0.3-2-0.6-3.8-0.9-5.7c-0.3-1.6-0.4-3.1-0.7-4.7c0-0.2,0-0.3,0.3-0.3c1.9-0.3,3.8-0.5,5.6-0.8
		c1.5-0.2,2.9-0.5,4.3-0.7c0.3,0,0.5,0,0.5,0.4c0.2,1.4,0.4,2.9,0.6,4.3c0.2,1.2,0.4,2.4,0.5,3.5c0.1,0.7,0.1,1.3,0.3,2
		c0.1,0.4-0.1,0.5-0.3,0.5c-0.9,0.1-1.8,0.2-2.7,0.4c-1.4,0.2-2.8,0.4-4.1,0.6c-1,0.2-2,0.3-3,0.5C69.6,92.2,69.4,92.2,69.2,92.3z
		 M76.7,81.6L76.7,81.6c-1.3,0.2-2.5,0.4-3.7,0.6c-1.1,0.2-2.3,0.3-3.4,0.5c-0.3,0-0.4,0.2-0.3,0.5c0.1,0.6,0.2,1.2,0.3,1.8
		c0.3,1.7,0.5,3.4,0.7,5.1c0,0.2,0.2,0.4,0.3,0.3c0.3-0.2,0.7-0.1,1-0.2c1.2-0.2,2.4-0.4,3.5-0.5c0.9-0.1,1.7-0.2,2.6-0.4
		c0.2,0,0.4-0.1,0.4-0.4c-0.4-2.4-0.8-4.7-1.1-7.1C77,81.7,76.9,81.6,76.7,81.6z"/>
	<path class="st9" d="M111.9,74.8c0.2,1.3,0.4,2.7,0.6,4.1c0.3,1.7,0.6,3.4,0.8,5.2c0.1,0.3,0,0.7,0.1,1s0,0.5-0.4,0.5
		c-2.1,0.3-4.3,0.7-6.4,1c-1.2,0.2-2.3,0.4-3.5,0.6c-0.2,0-0.3,0-0.4-0.3c-0.2-0.9-0.3-1.9-0.5-2.8c-0.2-1.4-0.4-2.9-0.7-4.3
		c-0.1-0.9-0.3-1.9-0.4-2.8c-0.1-0.4,0-0.6,0.5-0.6c1.5-0.2,2.9-0.5,4.4-0.7c1.4-0.2,2.8-0.4,4.2-0.6
		C110.9,74.9,111.4,74.9,111.9,74.8z M111.8,83.9c-0.1-0.7-0.3-1.4-0.4-2.1c-0.3-1.7-0.5-3.4-0.7-5.1c0-0.2-0.1-0.2-0.3-0.2
		c-1.7,0.3-3.5,0.5-5.2,0.8c-0.7,0.1-1.3,0.1-2,0.3c-0.2,0.1-0.2,0-0.2,0.3c0.3,1.7,0.5,3.5,0.8,5.2c0.1,0.6,0.1,1.3,0.3,1.9
		c0.1,0.2,0.1,0.4,0.3,0.3c0.3-0.1,0.6-0.1,0.9-0.1c2-0.4,4.1-0.6,6.2-0.9C111.8,84.2,111.9,84.1,111.8,83.9z"/>
	<path class="st9" d="M95.3,99.2c-0.7,0.2-1.4,0.3-2.1,0.4c-0.3,0-0.6,0.3-1,0.1l0,0c-0.1-1-0.3-2-0.4-3c0.4-0.2,0.8-0.1,1.2-0.3
		c0.3-0.1,0.4-0.2,0.3-0.4c-0.2-0.3,0-0.7-0.2-1c-0.1-0.2,0.1-0.2,0.2-0.2c0.8-0.3,1.7-0.2,2.6-0.5c0.2-0.1,0.3,0.1,0.3,0.3
		c0,0.3,0.1,0.5,0.1,0.8c0,0.6,0.3,0.5,0.6,0.4c0.3-0.1,0.6-0.1,1-0.2l0,0c0.2,0.4,0.1,0.9,0.2,1.3c0.1,0.3-0.2,0.4-0.4,0.4
		c-0.9,0.1-1.8,0.3-2.7,0.4C95.1,98.2,95.2,98.7,95.3,99.2L95.3,99.2z"/>
	<path class="st9" d="M108.7,94.1c-0.8,0-1.6,0.2-2.3,0.3c-0.6,0.1-0.7,0.1-0.8-0.6c-0.1-0.8-0.3-1.6-0.4-2.4
		c-0.4,0.1-0.8,0-1.2,0.2c-0.3,0.1-0.4-0.1-0.5-0.4c-0.1-0.7-0.2-1.5-0.3-2.2c0-0.2-0.1-0.3,0.3-0.5c0.4-0.1,0.8,0,1.1-0.2
		c0.1-0.1,0.2,0,0.2,0.1s0,0.1,0,0.2c0.3,1.2,0.4,1.3,1.6,1c0.3-0.1,0.7-0.1,1-0.2c0.5-0.2,0.7,0.1,0.8,0.6
		C108.3,91.5,108.5,92.8,108.7,94.1L108.7,94.1z"/>
	<path class="st9" d="M73.7,104.1c0.3,0,0.5,0.1,0.5,0.5c0.1,0.7,0.2,1.4,0.3,2.1c0.1,0.3,0,0.4-0.3,0.4c-0.7,0.1-1.4,0.1-2,0.3
		c-0.5,0.2-0.7,0-0.8-0.6c-0.1-0.7-0.2-1.4-0.3-2.1c0-0.2-0.1-0.3,0.1-0.3C72.1,104.4,72.9,104.2,73.7,104.1z"/>
	<path class="st9" d="M97.1,80.2c-0.3-0.1-0.6,0.1-0.9,0.1c-0.4,0-0.6-0.1-0.6-0.5c-0.1-0.9-0.1-0.9-1-0.8c-0.6,0.1-0.7-0.1-0.8-0.7
		c-0.2-0.9,0.3-0.8,0.8-0.9c1.1-0.1,2.1-0.3,3.1-0.5c0.4-0.1,0.8,0,0.7,0.5c0,0,0,0,0,0.1c0,0.9,0,0.9-1,1c-0.4,0-0.5,0-0.4,0.5
		C97,79.4,97.2,79.8,97.1,80.2L97.1,80.2z"/>
	<path class="st9" d="M109.6,120.6c-0.4,0-0.7,0-1.1,0.1c-0.2,0.1-0.6,0.1-0.6-0.1c0-0.4-0.4-0.9-0.1-1.3c0.1-0.2,0.6-0.2,0.9-0.2
		c0.5,0,0.5-0.2,0.5-0.6c-0.1-0.7-0.2-1.4-0.3-2c-0.1-0.4-0.1-0.8,0.5-0.7c0.1,0,0.1,0,0.2,0c0.5-0.3,0.8,0,0.9,0.5
		c0.1,0.8,0.2,1.6,0.4,2.3c0,0.2,0,0.3-0.2,0.2c-0.3-0.1-0.5,0.2-0.8,0.1c-0.6-0.1-0.6,0.3-0.4,0.6
		C109.6,119.9,109.4,120.2,109.6,120.6z"/>
	<path class="st9" d="M112.8,90.3c0-0.4-0.2-0.8-0.1-1.2c0-0.5-0.4-0.4-0.7-0.4c-1,0.2-0.9,0.2-1.1-0.9c-0.1-0.5,0-0.5,0.4-0.5
		c0.6,0,1.3-0.2,1.9-0.3c0.4-0.1,0.7-0.2,0.7,0.5c0,0.6,0.1,1.2,0.3,1.9c0.1,0.4,0.1,0.6-0.4,0.7C113.5,90.2,113.1,90.1,112.8,90.3
		L112.8,90.3z"/>
	<path class="st9" d="M93.8,119.8c-1,0.1-1.9,0.2-2.9,0.4c-0.3,0.1-0.2,0-0.3-0.2c-0.2-0.3,0-0.7-0.2-1c-0.1-0.2,0.1-0.3,0.3-0.4
		c1-0.1,1.9-0.3,2.9-0.4l0,0C93.7,118.8,93.8,119.3,93.8,119.8L93.8,119.8z"/>
	<path class="st9" d="M116.8,116.3c0.1,0.9,0.3,1.9,0.4,2.8c0,0.2,0,0.2-0.1,0.3c-0.4,0.2-0.8,0.1-1.2,0.2c-0.2,0.1-0.3-0.2-0.3-0.3
		c0-0.9-0.3-1.8-0.4-2.7l0,0C115.7,116.4,116.2,116.4,116.8,116.3L116.8,116.3z"/>
	<path class="st9" d="M97,80.2c0.7-0.3,1.4-0.3,2.1-0.4c1.1-0.1,1.1-0.1,1.2,1c0,0.2,0.1,0.4-0.3,0.5c-0.9,0.2-1.8,0.3-2.7,0.4
		C97.1,81.2,97.3,80.7,97,80.2C97.1,80.2,97,80.2,97,80.2z"/>
	<path class="st9" d="M80.6,95.1c0.1,0.3,0.1,0.6,0.2,0.9c0.1,0.6,0.3,0.8,0.9,0.6c0.5-0.2,0.8-0.2,0.9,0.5c0,0.3-0.1,0.6,0.1,0.8
		c0.1,0.1,0,0.2-0.1,0.2c-0.3,0-0.5,0.1-0.8,0.1c-0.4,0.1-0.7,0-0.7-0.6c0-0.9-0.1-0.9-1.1-0.7c-0.4,0.1-0.8,0.1-0.7-0.6
		c0-0.2-0.1-0.3-0.1-0.5s0-0.3,0.3-0.4C79.8,95.4,80.2,95.4,80.6,95.1L80.6,95.1z"/>
	<path class="st9" d="M82.7,88.5c-0.1-0.5-0.1-0.9-0.2-1.4c0.4,0,0.8-0.1,1.2-0.2c0.4,0,0.5,0.1,0.5,0.4c0,0.2,0,0.3,0,0.5
		c0.1,0.5,0.4,0.6,0.8,0.4c0.7-0.2,0.7-0.1,0.9,0.6c0.2,0.6,0.2,0.9-0.6,1c-0.7,0.1-0.8,0.1-0.9-0.6c-0.1-0.8-0.2-0.9-1-0.7
		C83.1,88.6,82.9,88.5,82.7,88.5L82.7,88.5z"/>
	<path class="st9" d="M112.8,90.3c0.2,0.5,0.1,1,0.2,1.5l0,0c-1,0.1-1.9,0.3-2.9,0.4c-0.2,0-0.2,0-0.3-0.1c-0.2-0.4,0-0.8-0.2-1.1
		c0-0.1,0.1-0.2,0.2-0.2C110.9,90.6,111.8,90.5,112.8,90.3L112.8,90.3z"/>
	<path class="st9" d="M81.7,91.9c-0.2-0.9-0.3-1.9-0.5-2.8c0-0.2,0-0.3,0.2-0.3c0.4-0.1,0.8,0,1.2-0.2l0,0c0.2,0.9,0.3,1.9,0.5,2.8
		c0.1,0.3,0,0.6-0.4,0.5C82.4,91.7,82.1,92,81.7,91.9L81.7,91.9z"/>
	<path class="st9" d="M71.3,96.2c0.1,0.4-0.2,0.5-0.5,0.6c-1,0.1-1,0.1-1.1-0.9c0-0.4-0.1-0.9-0.2-1.3c-0.1-0.6,0-0.8,0.6-0.8
		c0.3,0,0.6-0.3,0.8-0.1c0.2,0.2,0.1,0.6,0.2,1C71.2,95.2,71.2,95.7,71.3,96.2z"/>
	<path class="st9" d="M82.9,110.5c0.1,0.4,0.2,0.8,0.3,1.1c0.1,0.3-0.1,0.4-0.3,0.4c-0.8,0.1-1.7,0.2-2.5,0.4c-0.1,0-0.2,0-0.2-0.2
		c-0.1-0.4-0.1-0.8-0.2-1.3l0,0C80.9,110.9,81.9,110.7,82.9,110.5L82.9,110.5z"/>
	<path class="st9" d="M113.6,116.8c0.1,0.9,0.3,1.9,0.4,2.8c0,0.2,0,0.2-0.2,0.3c-0.3,0.1-0.6,0.1-0.9,0.1c-0.2,0-0.4,0-0.4-0.2
		c-0.1-0.8-0.2-1.6-0.4-2.4c0-0.1-0.1-0.4,0.2-0.3C112.8,117,113.2,116.7,113.6,116.8L113.6,116.8z"/>
	<path class="st9" d="M116.3,113.3c0.4-0.2,0.8-0.2,1.2-0.2c0.2-0.1,0.4,0.1,0.4,0.3c0.1,0.8,0.2,1.6,0.4,2.4c0,0.2,0,0.3-0.3,0.4
		c-0.4,0.2-0.8,0-1.2,0.2l0,0C116.6,115.3,116.5,114.3,116.3,113.3L116.3,113.3z"/>
	<path class="st9" d="M95.2,99.2c0.4,0,0.8,0,1.2-0.1c0.5-0.1,0.5,0.2,0.5,0.4c0,0.1,0,0.1,0,0.2c0.3,0.7,0,1-0.7,1.1
		c-0.4,0-0.7,0.1-0.8-0.5C95.4,99.9,95.3,99.5,95.2,99.2C95.3,99.2,95.2,99.2,95.2,99.2z"/>
	<path class="st9" d="M84.5,110.3c-0.5,0-1,0.3-1.6,0.2l0,0c0-0.5-0.1-1.1-0.3-1.6c0.5,0,1-0.2,1.6-0.2l0,0
		C84.3,109.2,84.5,109.8,84.5,110.3L84.5,110.3z"/>
	<path class="st9" d="M87.5,89.5c0.1-0.5-0.1-0.9-0.1-1.4c0-0.2,0-0.3,0.2-0.3c0.5,0,0.9-0.3,1.4-0.1l0,0c0.1,0.4,0.1,0.7,0.2,1.1
		c0.1,0.3,0,0.5-0.4,0.5C88.3,89.3,87.9,89.4,87.5,89.5L87.5,89.5z"/>
	<path class="st9" d="M79.9,111c-0.5,0.1-1.1,0.2-1.6,0.2l0,0c-0.1-0.5-0.2-1.1-0.2-1.6l0,0c0.3-0.2,0.7,0,1-0.2
		c0.4-0.2,0.6,0,0.6,0.3C79.8,110.2,79.8,110.6,79.9,111L79.9,111z"/>
	<path class="st9" d="M103.5,93.3c0.2-0.1,0.4-0.1,0.3,0.2c0,0.1,0,0.1,0,0.2c0.2,1.1,0,1.3-1.1,1.3c0,0,0,0-0.1,0
		c-0.5-0.3-0.2-0.8-0.4-1.2c-0.1-0.3,0.1-0.4,0.3-0.4C102.9,93.4,103.2,93.1,103.5,93.3z"/>
	<path class="st9" d="M115.2,116.6c-0.5,0-1.1,0.1-1.6,0.3l0,0c-0.1-0.5-0.2-1.1-0.3-1.6l0,0c0.3-0.3,0.7,0,1-0.2s0.6,0,0.6,0.4
		C115.1,115.8,115.1,116.2,115.2,116.6L115.2,116.6z"/>
	<path class="st9" d="M87.5,89.5c0.2,0.4,0.2,0.9,0.3,1.3c0,0.2-0.1,0.3-0.3,0.3c-0.4,0-0.9,0.1-1.3,0.2l0,0
		c0.1-0.5-0.1-0.9-0.1-1.4c0-0.2,0-0.3,0.2-0.3C86.7,89.6,87.1,89.5,87.5,89.5L87.5,89.5z"/>
	<path class="st9" d="M84.7,100.9c-0.3-0.4-0.1-0.9-0.3-1.3c0-0.1,0.1-0.3,0.2-0.3c0.4-0.1,0.8-0.2,1.2-0.1c0.3,0,0.2,0.4,0.3,0.7
		c0.1,0.2-0.1,0.5,0.1,0.7C85.7,100.7,85.1,100.8,84.7,100.9C84.6,100.9,84.7,100.9,84.7,100.9z"/>
	<path class="st9" d="M71.8,99.6c-0.4,0.3-0.9,0-1.3,0.2c-0.1,0-0.2,0-0.2-0.1c0-0.3,0-0.6-0.1-0.8c-0.2-0.7,0.2-0.7,0.7-0.7
		c0.2,0,0.5,0,0.7-0.1l0,0C71.7,98.6,71.8,99.1,71.8,99.6L71.8,99.6z"/>
	<path class="st9" d="M113,91.8c0.4-0.1,0.7-0.2,1.1-0.2c0.1,0,0.3-0.1,0.3,0.2c0,0.4,0.2,0.8,0.2,1.1c0,0.2-0.1,0.2-0.2,0.2
		c-0.3,0-0.7,0.1-1,0.2c-0.2,0-0.2-0.1-0.2-0.2C113.1,92.7,113.2,92.2,113,91.8L113,91.8z"/>
	<path class="st9" d="M72.5,110.5c-0.6,0-0.8-0.3-0.7-1.2c0.1-0.5,0.7-0.3,1.1-0.3c0.8,0,0.5,0.8,0.5,1.2
		C73.5,110.6,72.8,110.4,72.5,110.5z"/>
	<path class="st9" d="M88.9,87.7c-0.1-0.5-0.1-1-0.2-1.6c0.2,0,0.4,0.1,0.6,0c0.3-0.1,0.8-0.2,0.9,0c0.2,0.3,0.3,0.8,0.2,1.2
		c-0.1,0.3-0.6,0.2-0.9,0.3C89.2,87.6,89,87.5,88.9,87.7L88.9,87.7z"/>
	<path class="st9" d="M93.6,118.3c0-0.4-0.2-0.8-0.1-1.2l-0.1-0.1c0.3-0.4,0.8-0.1,1.1-0.3c0.2-0.1,0.4,0,0.4,0.3c0,0,0,0,0,0.1
		c0.1,1,0.1,1-1,1.2C93.8,118.2,93.7,118.3,93.6,118.3L93.6,118.3z"/>
	<path class="st9" d="M86.2,91.3c0.2,0.4,0.2,0.8,0.3,1.3c0.1,0.4-0.3,0.2-0.5,0.2C85,93,85,93,84.8,92c-0.1-0.6,0-0.6,0.5-0.7
		C85.6,91.4,85.9,91.3,86.2,91.3L86.2,91.3z"/>
	<path class="st9" d="M87.9,122.4c0,0.1,0,0.3,0,0.4c0.2,0.3,0.1,0.7,0.2,1.1c-0.4,0.1-0.9,0.2-1.3,0.2c-0.2,0-0.3-0.2-0.2-0.3
		c0.2-0.4-0.5-0.9,0.1-1.1C87,122.4,87.4,122.3,87.9,122.4L87.9,122.4z"/>
	<path class="st9" d="M108.4,89.4c-1-0.1-0.6-0.9-0.7-1.3c0-0.4,0.6-0.3,1-0.3c0.9-0.1,0.5,0.8,0.6,1.1
		C109.4,89.6,108.6,89,108.4,89.4z"/>
	<path class="st8" d="M105.8,113.3c-0.5,0.1-0.6-0.1-0.6-0.3c-0.1-1.3-0.4-2.7-0.6-4c0-0.2,0.1-0.2,0.2-0.3c0.7-0.1,1.4-0.2,2.1-0.4
		c0.6-0.1,1.3-0.1,1.9-0.3c0.4-0.1,0.4,0.1,0.5,0.3c0.1,1.3,0.3,2.7,0.6,4c0,0.2-0.1,0.3-0.2,0.4C108.3,112.9,107,113.1,105.8,113.3
		z M107.7,109.8c-0.4,0.1-0.8,0.2-1.1,0.2c-0.2,0-0.3,0.1-0.2,0.2c0.2,0.4,0,0.8,0.2,1.2c0.1,0.2,0.2,0.3,0.3,0.2
		c0.3-0.2,0.7,0,1.1-0.2c0.1-0.1,0.3-0.1,0.2-0.2c-0.2-0.4,0-0.8-0.2-1.2C107.9,109.8,107.8,109.8,107.7,109.8z"/>
	<path class="st8" d="M107.2,105.2c-0.5,0.1-1.1,0.2-1.6,0.2l0,0c-0.2-1.2-0.3-2.4-0.6-3.6c-0.1-0.3,0.1-0.7-0.2-0.9
		c-0.3-0.2-0.6,0.1-1,0.1c-0.7,0-1.3,0.2-2,0.3l0,0c-0.1-0.5-0.1-1-0.2-1.5c1.2-0.2,2.4-0.4,3.6-0.5c0.3,0,0.8-0.5,1,0.1
		c0.1,0.4,0.2,0.8,0.1,1.3c0.4-0.3,0.9-0.1,1.2-0.3c0.2-0.1,0.4,0,0.4,0.3c-0.1,0.4,0.3,0.8,0.1,1.2c-0.2,0.4-0.7,0.2-1.1,0.3
		c-0.2,0-0.3,0.1-0.2,0.4C107,103.4,107.1,104.3,107.2,105.2L107.2,105.2z"/>
	<path class="st8" d="M98.5,109.7c1-0.2,2-0.3,3-0.5c0.2,1.1,0.3,2.1,0.5,3.2c-0.4-0.1-0.7,0.1-1.1,0.1s-0.4,0.3-0.3,0.6
		c0.2,0.8,0.4,1-0.8,1.1c-0.6,0.1-1.3,0.2-1.9,0.3c-0.2,0-0.4,0.2-0.3-0.1c0-0.4-0.2-0.9-0.1-1.3l0,0c0.5-0.1,1-0.2,1.5-0.3
		c-0.1-0.5-0.1-1-0.2-1.6C98.6,110.7,98.5,110.2,98.5,109.7L98.5,109.7z"/>
	<path class="st8" d="M107.2,105.2c0.4,0,0.7-0.2,1-0.1c0.3,0,0.5-0.2,0.4-0.5c-0.1-0.6-0.2-1.2-0.3-1.8c-0.1-0.7,0-0.9,0.7-0.9
		c0.1,0,0.2,0,0.3-0.1c0.4-0.2,0.5-0.1,0.5,0.3c0,0.3,0.2,0.6,0.1,1c0,0.2,0.2,0.2,0.3,0.2c0.2-0.1,0.3-0.1,0.5-0.1
		c0.3,0.1,0.6-0.3,0.8,0c0.1,0.2,0.1,0.5,0.1,0.8c0.1,0.5,0.1,1,0.3,1.6c0.1,0.4,0,0.6-0.5,0.7c-1.2,0.1-2.4,0.3-3.5,0.5
		c-0.3,0.1-0.3,0-0.4-0.3C107.3,106,107.4,105.6,107.2,105.2L107.2,105.2z"/>
	<path class="st8" d="M115.2,116.6c0-0.4-0.1-0.8-0.1-1.2c-0.1-0.4-0.3-0.5-0.6-0.4c-0.3,0.2-0.7-0.1-1,0.2c0-0.5-0.2-1-0.2-1.5l0,0
		c0.6-0.3,1.3-0.2,2-0.4c0.4-0.1,0.8-0.2,1.2-0.1c0.2,1,0.3,2,0.5,3C116.2,116.4,115.7,116.4,115.2,116.6z"/>
	<path class="st8" d="M102.5,115.4c-0.1-0.7-0.2-1.4-0.4-2.1c-0.1-0.3-0.1-0.7-0.1-1c0.4-0.1,0.8-0.1,1.1-0.2
		c0.3-0.1,0.4-0.1,0.5,0.3c0.1,0.8,0.2,1.5,0.4,2.3c0.1,0.3-0.1,0.4-0.3,0.5C103.3,115.3,102.9,115.3,102.5,115.4z"/>
	<path class="st8" d="M105.6,105.4c0.1,0.4,0.2,0.9,0.2,1.3c0,0.1,0,0.2-0.2,0.3c-0.4,0.2-0.8,0-1.2,0.2c-0.1,0.1-0.2-0.1-0.2-0.2
		c-0.1-0.4-0.1-0.8-0.2-1.1c0-0.2,0.1-0.2,0.2-0.2C104.7,105.6,105.2,105.5,105.6,105.4C105.7,105.5,105.6,105.4,105.6,105.4z"/>
	<path class="st8" d="M113.2,113.8c-0.3,0-0.5,0-0.8,0.1c-0.4,0.2-0.7,0-0.8-0.5c0-0.2,0-0.5-0.1-0.7s0-0.3,0.3-0.4
		C113.1,112.2,113.2,112.3,113.2,113.8C113.1,113.8,113.2,113.8,113.2,113.8z"/>
	<path class="st8" d="M96.6,86.5c0,0.4,0,0.9,0.1,1.3c0.1,0.3,0,0.2-0.2,0.3c-0.4,0.2-0.7,0-1.1,0.2c-0.1,0.1-0.3,0-0.3-0.1
		c-0.1-0.4-0.1-0.9-0.2-1.3c0-0.2,0.2-0.2,0.3-0.2C95.7,86.6,96.2,86.4,96.6,86.5L96.6,86.5z"/>
	<path class="st8" d="M98,86.2c0.3,0,0.7-0.1,0.9-0.2c0.7-0.3,0.7,0.2,0.8,0.6c0.1,0.2-0.1,0.5,0.1,0.7c0.1,0.1-0.1,0.1-0.2,0.2
		c-0.4,0.2-0.8,0-1.1,0.2c-0.2,0.1-0.3-0.2-0.3-0.3C98.2,87.1,98,86.7,98,86.2L98,86.2z"/>
	<path class="st8" d="M92.9,83.9c0.1,0.5,0.1,1,0.2,1.5c-0.2,0.1-0.5,0-0.7,0.2c-0.1,0.1-0.3,0-0.5,0c-0.3,0-0.4-0.4-0.5-1.2
		c0-0.4,0.2-0.4,0.4-0.4C92.3,84.1,92.6,83.8,92.9,83.9C93,83.9,92.9,83.9,92.9,83.9z"/>
	<path class="st8" d="M97.4,113.1c-0.4,0-0.8,0.1-1.2,0.2c-0.2,0.1-0.3,0-0.3-0.2c0-0.3-0.1-0.5-0.1-0.8c0-0.7-0.3-0.6-0.7-0.5
		c-0.1,0-0.2,0-0.2,0.1c-0.6,0.1-0.8,0.2-0.6,0.8c0.1,0.3-0.1,0.6,0.2,0.8c-0.3,0.1-0.6,0.1-0.9,0.1c-0.6,0.2-0.8-0.1-0.8-0.9
		c0-0.6-0.3-0.6-0.7-0.5c-0.6,0.1-1.3,0.2-1.9,0.4c-0.6,0.1-0.7-0.1-0.8-0.8c0-0.2,0-0.5-0.1-0.7c0.4,0,0.8-0.1,1.1-0.1
		c0.5,0,0.4-0.3,0.4-0.6c-0.2-1.1-0.2-1.1,1-1.1c0.1,0,0.3,0,0.5-0.1c0.1,0.3,0.1,0.6,0.1,0.9c0,0.7,0.5,0.5,0.8,0.5
		c0.8-0.1,1.5-0.2,2.3-0.4c-0.1-0.3,0-0.7-0.2-1c-0.1-0.3,0-0.5,0.4-0.5c0.7-0.1,1.3-0.1,2-0.3c0.6-0.2,0.7,0.2,0.7,0.6
		c0,0.3,0.1,0.5,0.1,0.8l0,0c-0.1,0-0.2,0-0.4,0c-0.4,0.1-0.8,0-1.1,0.2c-0.4,0.3,0,0.7,0,1C97.1,111.7,97.3,112.4,97.4,113.1
		L97.4,113.1z"/>
	<path class="st8" d="M87.3,108.2c0-0.8-0.2-1.5-0.3-2.3c-0.1-0.6,0-0.8,0.6-0.8c0.8-0.1,0.9-0.2,0.7-1c-0.2-0.7-0.1-0.8,0.6-0.8
		c0.3,0,0.6,0,0.9-0.1c0,0.1,0,0.2,0,0.4c0.1,1.2,0.1,1.2,1.3,1.1c0.3,0,0.4-0.1,0.4-0.5c0-0.3-0.2-0.6-0.1-0.9
		c0-0.3-0.1-0.3-0.3-0.2c-0.4,0.1-0.8,0.1-1.3,0.2c-0.2-0.4,0-0.8-0.2-1.2c-0.1-0.2,0.1-0.2,0.3-0.3c0.7-0.1,1.3-0.3,2-0.3
		c0.3,0,0.5-0.1,0.7-0.1c0.2,1.4,0.4,2.9,0.6,4.3c0.1,0.5-0.1,0.4-0.4,0.4c-1.2,0.2-2.5,0.4-3.7,0.6c-0.4,0-0.4,0.1-0.4,0.5
		c0.1,1.2,0.1,1.2-1.2,1.3C87.4,108.2,87.3,108.2,87.3,108.2z"/>
	<path class="st8" d="M86.4,113.1c0.9-0.1,1.7-0.3,2.5-0.4c0.4,0,0.8-0.1,0.7,0.5c-0.1,0.3,0.2,0.5,0.1,0.8c0,0.2,0.2,0.2,0.3,0.2
		c0.4,0,0.7-0.1,1.1-0.1c0.1,0,0.4-0.1,0.3,0.2c0,0.3,0.1,0.6,0.1,0.9c0,0.2,0,0.3-0.3,0.4c-0.7,0.1-1.5,0.2-2.2,0.4
		c-0.5,0.1-0.6-0.2-0.7-0.6c-0.1-0.8-0.1-0.9-0.9-0.7c-0.9,0.2-0.9,0.2-0.9-0.7C86.5,113.6,86.5,113.4,86.4,113.1z"/>
	<path class="st8" d="M84.5,110.3c0-0.5-0.1-1.1-0.2-1.6c1-0.2,2-0.3,3-0.5c0.2,0.9,0.3,1.8,0.5,2.8v0.1c-0.3,0.5-0.8,0.2-1.2,0.4
		c-0.3,0.1-0.4-0.1-0.4-0.3c0,0,0-0.1-0.1-0.2c-0.2-0.3,0.2-0.9-0.3-0.9c-0.3,0-0.7,0-1,0.2C84.8,110.3,84.6,110.3,84.5,110.3z"/>
	<path class="st8" d="M96.8,106.8c-0.3,0.3-0.4-0.1-0.4-0.2c-0.2-0.8-0.3-1.7-0.4-2.5c0-0.2,0-0.3,0.2-0.3s0.4,0,0.6-0.1
		c0.6-0.2,0.8,0,0.9,0.7s0.1,1.4,0.3,2c0.1,0.2,0,0.3-0.2,0.3C97.5,106.6,97.2,106.9,96.8,106.8z"/>
	<path class="st8" d="M90.4,107.8c0.1,0.4,0,0.7,0.1,1.1s0,0.7-0.5,0.6c-0.1,0-0.3,0.1-0.4,0.1c-0.3,0.1-0.7,0.2-0.7-0.5
		c0-1.1-0.1-1.1,1-1.2C90.1,107.9,90.2,107.8,90.4,107.8z"/>
	<path class="st8" d="M84.3,108.7c-0.5,0-1,0.3-1.6,0.2l0,0c0-0.4-0.1-0.7-0.1-1.1s-0.2-0.4-0.6-0.4c-0.4,0.1-0.8,0.1-1.1,0.2l0,0
		c0.1-0.4-0.1-0.8-0.1-1.2c-0.1-0.4,0.1-0.5,0.4-0.5c0.1,0,0.2,0,0.4,0c0.8-0.1,0.8-0.1,0.6-0.9c0-0.1,0-0.3,0-0.4
		c0-0.3-0.2-0.4-0.4-0.3c-0.1,0-0.3,0.1-0.4,0.1c-0.3-0.3-0.8,0.6-0.9-0.2c-0.1-1.3-0.1-1.3,1.4-1.4c-0.1-0.4-0.2-0.7-0.2-1.1
		c0.1-0.6-0.3-0.5-0.6-0.5c0,0,0,0-0.1,0c-0.9,0.2-0.8,0.2-1.1-0.6c-0.1-0.5-0.2-0.8,0.5-0.8c1,0,1-0.1,1.1,0.9
		c0,0.3,0.1,0.5,0.4,0.3c0.1,0,0.2,0,0.4,0c0.9-0.1,0.9-0.1,1,0.7c0.2,1.2,0.3,2.4,0.5,3.6C83.9,106.6,84.1,107.7,84.3,108.7z"/>
	<path class="st8" d="M71.8,99.7c0-0.5-0.1-1.1-0.2-1.6c1-0.1,2-0.2,2.9-0.4c0.2,0,0.3,0,0.4,0.2c0.2,1.3,0.4,2.7,0.6,4
		c0,0.2,0,0.5-0.3,0.4c-0.4-0.1-0.9,0.4-1.2,0c-0.2-0.2-0.2-0.7-0.2-1.1c-0.1-0.5-0.2-1-0.2-1.5c0-0.2,0-0.3-0.3-0.3
		C72.7,99.6,72.2,99.6,71.8,99.7z"/>
	<path class="st8" d="M79.9,111c0-0.4-0.1-0.8-0.1-1.2c-0.1-0.3-0.2-0.6-0.6-0.3c-0.3,0.1-0.7,0-1,0.2c0-0.4,0-0.8-0.1-1.1
		c-0.2-0.4,0.1-0.4,0.3-0.5c0.9-0.1,1.8-0.2,2.7-0.4l0,0c0.2,0.3,0.2,0.8,0.2,1.1c0.1,0.4,0.2,0.4,0.5,0.3c0.4-0.1,0.8-0.1,1.1-0.2
		l0,0c0.1,0.5,0.2,1,0.3,1.6C81.9,110.7,80.9,110.9,79.9,111z"/>
	<path class="st8" d="M77.1,103.6c0.1-0.5-0.2-0.9-0.1-1.3c0-0.3,0.1-0.3,0.3-0.3c0.7-0.1,1.4-0.2,2.1-0.3c0.3-0.1,0.6-0.1,0.6,0.4
		c0,1.1,0.1,1.1-1,1.2C78.4,103.4,77.8,103.5,77.1,103.6z"/>
	<path class="st8" d="M77.6,106.7c0-0.4-0.1-0.8-0.2-1.2c-0.1-0.4,0-0.5,0.4-0.5c0.2,0,0.4-0.1,0.6-0.1c0.3-0.1,0.7,0,0.6,0.5
		c0,0.1,0,0.1,0,0.2c0.1,0.9,0.1,0.9-0.9,1C78,106.6,77.8,106.6,77.6,106.7z"/>
	<path class="st8" d="M78.1,109.7c0.1,0.5,0.2,1.1,0.2,1.6c-0.4-0.1-0.8,0.2-1.2,0.1c-0.2,0-0.2,0.1-0.3-0.2c-0.2-0.4,0-0.7-0.2-1.1
		c-0.1-0.1,0.1-0.3,0.3-0.3C77.3,109.9,77.7,109.7,78.1,109.7z"/>
	<path class="st8" d="M83.3,123c-2,0.3-3.8,0.6-5.7,0.9c-0.6,0.1-1.1,0.1-1.7,0.3c-0.3,0.1-0.4,0-0.4-0.3c-0.3-1.7-0.5-3.5-0.8-5.2
		c-0.1-0.6-0.1-1.1-0.3-1.7c-0.1-0.3,0.1-0.5,0.4-0.5c1.2-0.1,2.4-0.4,3.6-0.5c1.1-0.1,2.3-0.3,3.4-0.5c0.3,0,0.2,0,0.3,0.2
		c0.1,0.7,0.2,1.3,0.4,2c0.2,1.5,0.5,3,0.7,4.5C83.2,122.4,83,122.7,83.3,123z M81.5,121.3c-0.2-1.4-0.4-2.7-0.6-4.1
		c0-0.1-0.1-0.2-0.2-0.1c-1.3,0.2-2.6,0.5-3.9,0.6c-0.4,0-0.5,0.4-0.4,0.8c0.2,1.2,0.4,2.3,0.6,3.5c0.1,0.5,0.2,0.4,0.6,0.4
		c1.2-0.2,2.4-0.4,3.6-0.6C81.4,121.7,81.5,121.7,81.5,121.3z"/>
	<path class="st8" d="M76.7,81.6c0.2,0,0.3,0.1,0.3,0.3c0.3,2.4,0.7,4.7,1.1,7.1c0.1,0.3-0.2,0.3-0.4,0.4c-0.9,0.1-1.7,0.3-2.6,0.4
		c-1.2,0.2-2.4,0.3-3.5,0.5c-0.3,0.1-0.7-0.1-1,0.2c-0.1,0.1-0.3-0.1-0.3-0.3c-0.2-1.7-0.5-3.4-0.7-5.1c-0.1-0.6-0.2-1.2-0.3-1.8
		c-0.1-0.3,0-0.4,0.3-0.5c1.1-0.2,2.3-0.3,3.4-0.5C74.2,82.1,75.4,81.9,76.7,81.6C76.6,81.7,76.6,81.6,76.7,81.6z M72,88.7
		c0.7-0.1,1.5-0.2,2.2-0.3c0.7-0.1,1.3-0.2,2-0.3c0.2,0,0.3-0.1,0.2-0.3c-0.3-1.3-0.5-2.7-0.6-4c0-0.2-0.2-0.4-0.5-0.3
		c-1,0.2-2,0.4-3.1,0.5s-1.1,0.1-1,1.1c0.2,1.1,0.4,2.2,0.5,3.3C71.7,88.5,71.7,88.7,72,88.7z"/>
	<path class="st8" d="M111.8,83.9c0,0.2,0,0.3-0.3,0.3c-2.1,0.3-4.1,0.6-6.2,0.9c-0.3,0.1-0.6,0-0.9,0.1c-0.2,0.1-0.3-0.1-0.3-0.3
		c-0.2-0.6-0.2-1.3-0.3-1.9c-0.3-1.7-0.5-3.5-0.8-5.2c0-0.3,0-0.2,0.2-0.3c0.6-0.2,1.3-0.2,2-0.3c1.7-0.3,3.5-0.6,5.2-0.8
		c0.2,0,0.3-0.1,0.3,0.2c0.2,1.7,0.5,3.4,0.7,5.1C111.6,82.5,111.7,83.2,111.8,83.9z M110,82.6c0-0.3-0.1-0.6-0.1-0.8
		c-0.1-1.1-0.3-2.3-0.5-3.4c0-0.2-0.2-0.2-0.3-0.1c-0.2,0.1-0.3,0.1-0.5,0.1c-1.2,0.2-2.4,0.4-3.6,0.6c-0.2,0-0.3,0-0.2,0.3
		c0.2,1.3,0.4,2.6,0.6,3.9c0.1,0.4,0.2,0.4,0.5,0.4c1.2-0.3,2.5-0.4,3.8-0.6C109.9,82.9,110,82.8,110,82.6z"/>
	<path class="st9" d="M107.7,109.8c0.1,0,0.2,0,0.2,0.1c0.2,0.4,0,0.8,0.2,1.2c0.1,0.1-0.1,0.1-0.2,0.2c-0.3,0.2-0.7,0-1.1,0.2
		c-0.1,0.1-0.2,0-0.3-0.2c-0.2-0.4,0-0.8-0.2-1.2c-0.1-0.1,0-0.2,0.2-0.2C107,110,107.3,109.9,107.7,109.8z"/>
	<path class="st9" d="M97.4,113.1c-0.1-0.7-0.3-1.4-0.3-2.1c0-0.4-0.4-0.8,0-1c0.3-0.2,0.7-0.2,1.1-0.2c0.1,0,0.2,0,0.4,0
		c0,0.5,0.1,1,0.2,1.6c0.1,0.5,0.1,1,0.2,1.6C98.4,112.9,97.9,113,97.4,113.1z"/>
	<path class="st9" d="M89.7,103.2c0.4-0.1,0.9-0.1,1.3-0.2c0.2-0.1,0.3-0.1,0.3,0.2c0,0.3,0.1,0.6,0.1,0.9c0,0.4-0.1,0.5-0.4,0.5
		c-1.2,0.1-1.2,0.1-1.3-1.1C89.7,103.4,89.7,103.3,89.7,103.2C89.7,103.1,89.7,103.2,89.7,103.2z"/>
	<path class="st9" d="M82.7,109c-0.4,0.1-0.8,0.1-1.1,0.2c-0.3,0.1-0.4,0.1-0.5-0.3s0-0.8-0.2-1.1c0.4-0.1,0.8-0.1,1.1-0.2
		c0.3-0.1,0.5,0,0.6,0.4C82.6,108.3,82.6,108.6,82.7,109z"/>
	<path class="st9" d="M81.5,121.3c0.1,0.4-0.1,0.5-0.5,0.5c-1.2,0.1-2.4,0.4-3.6,0.6c-0.3,0.1-0.5,0.1-0.6-0.4
		c-0.1-1.2-0.4-2.4-0.6-3.5c-0.1-0.4,0-0.7,0.4-0.8c1.3-0.1,2.6-0.4,3.9-0.6c0.1,0,0.2,0,0.2,0.1C81.1,118.6,81.3,119.9,81.5,121.3z
		"/>
	<path class="st9" d="M72,88.7c-0.3,0.1-0.3-0.2-0.3-0.3c-0.1-1.1-0.3-2.2-0.5-3.3c-0.2-1-0.1-1,1-1.1c1-0.1,2.1-0.3,3.1-0.5
		c0.3-0.1,0.5,0.1,0.5,0.3c0.1,1.3,0.4,2.7,0.6,4c0,0.2-0.1,0.2-0.2,0.3c-0.7,0.1-1.3,0.2-2,0.3C73.5,88.5,72.7,88.6,72,88.7z"/>
	<path class="st9" d="M110,82.6c0,0.2-0.1,0.3-0.4,0.4c-1.3,0.2-2.5,0.3-3.8,0.6c-0.3,0.1-0.4,0-0.5-0.4c-0.2-1.3-0.4-2.6-0.6-3.9
		c0-0.3,0-0.2,0.2-0.3c1.2-0.2,2.4-0.4,3.6-0.6c0.2,0,0.3,0,0.5-0.1c0.1-0.1,0.3-0.1,0.3,0.1c0.2,1.1,0.3,2.2,0.5,3.4
		C109.9,82.1,110,82.3,110,82.6z"/>
	<g>
		<path class="st7" d="M87.8,68.1l-6.1-8.2L54.6,64c-1.2,0.2-2.4-0.1-3.3-0.8s-1.6-1.8-1.8-2.9l-3.4-22c-0.2-1.2,0.1-2.4,0.8-3.3
			s1.8-1.6,2.9-1.8l63.4-9.7c1.2-0.2,2.4,0.1,3.3,0.8c1,0.7,1.6,1.8,1.8,2.9l3.4,22c0.2,1.2-0.1,2.4-0.8,3.3s-1.8,1.6-2.9,1.8
			l-26.8,4.1L87.8,68.1z M82.1,58.8l5.3,7.2l3-8.5l27.4-4.2c0.9-0.1,1.7-0.6,2.3-1.4s0.8-1.7,0.6-2.6l-3.4-22
			c-0.1-0.9-0.6-1.7-1.4-2.3c-0.8-0.6-1.7-0.8-2.6-0.6l0,0L50,34.1c-0.9,0.1-1.7,0.6-2.3,1.4s-0.8,1.7-0.6,2.6l3.4,22
			c0.1,0.9,0.6,1.7,1.4,2.3c0.8,0.6,1.7,0.8,2.6,0.6L82.1,58.8z"/>
		<g>
			<path class="st7" d="M53.7,39.1c-0.1-0.4-0.1-0.7-0.2-0.9l0.7-0.1c0,0.3,0,0.5,0.1,1l0.1,0.9h0.3c0.2,0,0.4-0.1,0.6-0.1l0.1,0.6
				c-0.2,0-0.4,0-0.6,0.1h-0.3l0.3,1.9c0.3-0.2,0.5-0.3,0.6-0.4l0.1,0.5c-0.2,0.1-0.2,0.1-0.6,0.4l0.4,2.8c0.1,0.5-0.1,0.7-0.8,0.8
				c-0.2,0-0.5,0.1-0.7,0.1c0-0.2-0.1-0.3-0.2-0.6c0.3,0,0.6,0,0.9-0.1c0.2,0,0.2-0.1,0.2-0.2l-0.4-2.5c-0.2,0.1-0.2,0.1-0.7,0.4
				c-0.1,0.1-0.2,0.1-0.3,0.2l-0.2-0.6c0.3-0.1,0.5-0.2,1.2-0.5L54,40.7l-0.5,0.1c-0.2,0-0.4,0.1-0.6,0.1l-0.1-0.6
				c0.2,0,0.4,0,0.7-0.1l0.5-0.1L53.7,39.1z M58.8,42.5l1.2-0.2c0.3,0,0.4-0.1,0.7-0.1c0,0.1,0,0.3,0.1,0.7l0.2,1.4
				c0.1,0.4-0.1,0.6-0.6,0.7c-0.2,0-0.4,0-0.7,0c0-0.2-0.1-0.3-0.2-0.5c0.3,0,0.6,0,0.7,0c0.1,0,0.2-0.1,0.2-0.2l-0.2-1.5L58.8,43
				l0.3,2c0.1,0.4,0.1,0.7,0.2,0.9L58.7,46c0-0.3,0-0.5-0.1-0.9l-0.3-2l-1.2,0.2l0.2,1.5c0,0.3,0.1,0.6,0.2,0.8l-0.7,0.1
				c0-0.2,0-0.5-0.1-0.9l-0.2-1.2c0-0.2-0.1-0.5-0.1-0.7c0.2,0,0.5,0,0.8-0.1l1-0.2l-0.1-0.8L56.2,42l0.2,1.2l-0.6,0.1
				c0-0.2,0-0.3,0-0.6l-0.1-0.6c0-0.2-0.1-0.4-0.1-0.5c0.3,0,0.5,0,0.9-0.1l3.9-0.6c0.5-0.1,0.6-0.1,0.9-0.2c0,0.2,0,0.3,0.1,0.5
				l0.1,0.6c0,0.3,0.1,0.4,0.1,0.6L61,42.5l-0.2-1.2l-2.1,0.3L58.8,42.5z M56.9,39.6c-0.4,0.1-0.6,0.1-0.8,0.2L56,39.3
				c0.2,0,0.4,0,0.8-0.1l2.8-0.4l-0.1-0.6l-2.9,0.4c-0.4,0.1-0.7,0.1-0.9,0.2l-0.1-0.6c0.3,0,0.5,0,1-0.1l2.6-0.4
				c0.4-0.1,0.6-0.1,0.8-0.2c0,0.2,0,0.4,0.1,0.7l0.2,1.4c0,0.3,0.1,0.4,0.1,0.7c-0.3,0-0.5,0-0.8,0.1l-2.8,0.4
				c-0.4,0.1-0.7,0.1-0.9,0.2l-0.1-0.6c0.3,0,0.5,0,0.9-0.1l3-0.5l-0.1-0.6L56.9,39.6z"/>
			<path class="st7" d="M63.3,44.9c0-0.3,0-0.5-0.1-0.9l-0.9-6c-0.1-0.4-0.1-0.6-0.2-0.8c0.2,0,0.3,0,0.7-0.1l0.8-0.1
				c0.4-0.1,0.6-0.1,0.8-0.1c0,0.2,0,0.3,0.1,0.8l0.9,5.6c0.1,0.4,0.1,0.7,0.2,0.8L65,44.2l-0.1-0.5l-1.2,0.2l0.1,0.9L63.3,44.9z
				 M63,39.2l1.2-0.2L64,37.4l-1.2,0.2L63,39.2z M63.3,41.2l1.2-0.2l-0.2-1.6l-1.2,0.2L63.3,41.2z M63.7,43.4l1.2-0.2l-0.3-1.7
				l-1.2,0.2L63.7,43.4z M69,38c0,0.3,0.1,0.4,0.1,0.6l-0.6,0.1c0-0.2,0-0.3,0-0.6l-0.1-0.4l-1.5,0.2l0.1,0.4c0,0.2,0.1,0.4,0.1,0.5
				L66.5,39c0-0.2,0-0.3,0-0.5L66.4,38l-0.6,0.1c-0.4,0.1-0.6,0.1-0.8,0.2l-0.1-0.6c0.2,0,0.4,0,0.8-0.1l0.6-0.1l-0.1-0.6
				c0-0.2-0.1-0.4-0.1-0.6l0.6-0.1c0,0.2,0,0.4,0.1,0.6l0.1,0.6l1.5-0.2l-0.1-0.6c0-0.3-0.1-0.4-0.1-0.6l0.6-0.1
				c0,0.2,0,0.4,0.1,0.6l0.1,0.6l0.6-0.1c0.4-0.1,0.7-0.1,0.9-0.2l0.1,0.6c-0.2,0-0.5,0-0.9,0.1l-0.6,0.1L69,38z M65.7,40.2
				c-0.1-0.4-0.1-0.6-0.2-0.8c0.2,0,0.4,0,0.8-0.1l3-0.5c0.4-0.1,0.6-0.1,0.8-0.2c0,0.2,0,0.4,0.1,0.8l0.5,3.6
				c0.1,0.4,0.1,0.7,0.2,1l-0.6,0.1l-0.1-0.5l-3.5,0.5l0.1,0.5l-0.6,0.1c0-0.3,0-0.6-0.1-1L65.7,40.2z M66.2,39.9l0.2,1.5l1.5-0.2
				l-0.2-1.5L66.2,39.9z M66.5,41.9l0.3,1.7l1.5-0.2L68,41.6L66.5,41.9z M68.2,39.5l0.2,1.5l1.5-0.2l-0.2-1.5L68.2,39.5z M68.5,41.6
				l0.3,1.7l1.5-0.2L70,41.3L68.5,41.6z"/>
			<path class="st7" d="M78.1,42.8c-0.2-0.2-0.3-0.3-0.9-0.8c-0.5,0.4-0.9,0.6-1.6,0.7c-2,0.3-3.4-0.9-3.8-3.2
				c-0.3-2.2,0.7-3.9,2.7-4.2s3.4,0.9,3.8,3.2c0.1,0.7,0.1,1.3-0.1,1.8c-0.1,0.4-0.2,0.7-0.6,1.2c0.5,0.4,0.6,0.4,0.9,0.6L78.1,42.8
				z M76.2,40.5c0.2,0.2,0.3,0.3,0.9,0.7c0.2-0.4,0.3-0.5,0.4-0.8c0.1-0.5,0.1-1.1,0-1.7c-0.3-1.8-1.4-2.9-2.9-2.6
				c-1.5,0.2-2.3,1.6-2,3.4c0.3,1.8,1.4,2.9,3,2.6c0.4-0.1,0.7-0.2,1.1-0.4c-0.4-0.3-0.6-0.4-0.9-0.5L76.2,40.5z"/>
			<path class="st7" d="M84.8,41.2c-0.1-0.3-0.3-0.6-0.8-1.5c-0.7-1.2-1.2-1.5-1.9-1.4l-1.7,0.3l0.3,2.2c0.1,0.5,0.1,0.7,0.2,1
				L80,41.9c0-0.3,0-0.6-0.1-1.1l-0.8-5c-0.1-0.4-0.1-0.7-0.2-1.1c0.3,0,0.6-0.1,1-0.1l2.1-0.3c1.4-0.2,2.2,0.3,2.4,1.5
				c0.1,0.6,0,1.1-0.3,1.5c-0.2,0.3-0.4,0.4-0.9,0.6c0.4,0.1,0.7,0.3,1.1,0.9c0.3,0.4,0.6,0.9,1,1.5c0.2,0.3,0.4,0.6,0.6,0.8
				L84.8,41.2z M82.5,37.6c0.4-0.1,0.8-0.3,1-0.6s0.3-0.6,0.2-1c-0.1-0.8-0.7-1.1-1.5-1l-2.3,0.3l0.4,2.6L82.5,37.6z"/>
			<path class="st7" d="M94.4,34.5c-0.2-0.4-0.3-0.6-0.6-0.8c-0.4-0.4-1-0.5-1.7-0.4c-1.5,0.2-2.3,1.5-2,3.4
				c0.3,1.8,1.4,2.9,2.9,2.6c0.7-0.1,1.3-0.5,1.6-1c0.2-0.3,0.2-0.5,0.2-1l0.8,0.1c-0.1,0.6-0.2,0.9-0.3,1.2
				c-0.4,0.8-1.2,1.3-2.2,1.5c-0.9,0.1-1.7,0-2.3-0.5c-0.8-0.6-1.3-1.5-1.4-2.7c-0.2-1.2,0-2.3,0.6-3.1c0.5-0.6,1.1-1,2-1.1
				s1.6,0,2.2,0.4c0.4,0.3,0.6,0.5,0.9,1.1L94.4,34.5z"/>
			<path class="st7" d="M96.6,36.8c-0.2-1.6,0.6-2.8,2.1-3s2.6,0.6,2.9,2.2c0.2,1.6-0.6,2.8-2.1,3C98,39.3,96.9,38.4,96.6,36.8z
				 M97.3,36.7c0.2,1.3,1,1.9,2.1,1.8c1.1-0.2,1.6-1,1.5-2.3c-0.2-1.3-1-1.9-2.1-1.8C97.7,34.5,97.1,35.4,97.3,36.7z"/>
			<path class="st7" d="M107,37.3c0-0.1,0-0.3,0-0.5c-0.3,0.7-0.9,1.2-1.7,1.3c-1.4,0.2-2.5-0.6-2.7-2.3c-0.2-1.6,0.5-2.7,1.9-3
				c0.8-0.1,1.6,0.1,2.1,0.7v-0.1c-0.1-0.2-0.1-0.3-0.1-0.5l-0.2-1.2c-0.1-0.4-0.1-0.7-0.2-1.1l0.8-0.1c0,0.4,0,0.7,0.1,1.1l0.8,5
				c0.1,0.5,0.1,0.7,0.2,1.1l-0.7,0.1L107,37.3z M103.3,35.8c0.1,0.6,0.3,1.1,0.6,1.4c0.3,0.3,0.8,0.4,1.3,0.4
				c1.1-0.2,1.7-1.1,1.5-2.3c-0.1-0.6-0.4-1.1-0.7-1.4c-0.4-0.3-0.8-0.4-1.3-0.3C103.6,33.7,103.1,34.5,103.3,35.8z"/>
			<path class="st7" d="M109.4,35c0.1,0.6,0.3,1,0.6,1.2c0.4,0.4,0.9,0.5,1.4,0.4c0.8-0.1,1.2-0.6,1.4-1.3l0.7,0.2
				c-0.1,0.4-0.2,0.6-0.4,0.9c-0.4,0.5-0.9,0.8-1.6,0.9c-1.5,0.2-2.5-0.7-2.8-2.3c-0.2-1.6,0.5-2.8,1.9-3c1.2-0.2,2.2,0.5,2.6,1.7
				c0,0.1,0.1,0.5,0.2,0.7L109.4,35z M112.5,33.9c-0.1-0.5-0.3-0.8-0.7-1.1c-0.3-0.2-0.7-0.3-1.2-0.3c-0.6,0.1-1,0.4-1.2,1
				c-0.1,0.3-0.1,0.4-0.1,0.8L112.5,33.9z"/>
			<path class="st7" d="M60.5,49.9c0.4-0.6,0.6-1,0.8-1.7l0.6,0.1c-0.3,0.6-0.6,1.1-0.8,1.4l1.9-0.3c0.4-0.1,0.7-0.1,0.9-0.2
				l0.1,0.6c-0.3,0-0.5,0-0.9,0.1l-6.4,1c-0.4,0.1-0.6,0.1-0.9,0.2l-0.1-0.6c0.3,0,0.5,0,0.9-0.1l1.8-0.3c-0.4-0.4-0.6-0.7-1.2-1.1
				l0.5-0.3c0.8,0.7,0.9,0.8,1.3,1.4L60.5,49.9z M57.7,55.3l0.2,1.1c0.1,0.5,0.1,0.8,0.2,1l-0.7,0.1c0-0.3,0-0.5-0.1-1l-0.6-3.9
				c-0.1-0.5-0.1-0.6-0.2-0.8c0.3,0,0.5,0,0.9-0.1l1.5-0.2c0.5-0.1,0.7-0.1,0.8-0.2c0,0.2,0,0.5,0.1,1l0.6,4
				c0.1,0.6-0.1,0.7-0.7,0.8c-0.2,0-0.4,0.1-0.8,0.1c-0.1-0.3-0.1-0.3-0.2-0.6c0.4,0,0.6,0,0.8,0c0.3,0,0.3-0.1,0.3-0.3L59.7,55
				L57.7,55.3z M59.2,52l-2,0.3l0.2,1l2-0.3L59.2,52z M59.5,53.5l-2,0.3l0.2,1l2-0.3L59.5,53.5z M61.6,51.1c0,0.2,0,0.4,0.1,0.9
				l0.3,1.9c0.1,0.7,0.1,0.8,0.2,1L61.5,55c0-0.2,0-0.4-0.1-1.1L61.1,52c-0.1-0.5-0.1-0.6-0.2-0.9H61.6z M63.6,50.5
				c0,0.2,0,0.5,0.1,1l0.6,4c0.1,0.7-0.1,0.8-0.9,1c-0.3,0-0.6,0.1-1.1,0.1c-0.1-0.2-0.1-0.4-0.3-0.6c0.5,0,0.9,0,1.2-0.1
				c0.4-0.1,0.4-0.1,0.4-0.3l-0.6-4c-0.1-0.6-0.1-0.7-0.2-1L63.6,50.5z"/>
			<path class="st7" d="M67.7,47.7c-0.1,0.1-0.1,0.1-0.2,0.4c-0.4,0.7-1,1.4-1.6,2c-0.1-0.2-0.3-0.3-0.5-0.4
				c0.5-0.4,0.8-0.7,1.1-1.2c0.3-0.4,0.5-0.7,0.6-1.1L67.7,47.7z M67.1,52.8c-0.1-0.4-0.1-0.6-0.1-1c-0.2,0.4-0.4,0.7-0.8,1.1
				c-0.2-0.2-0.2-0.3-0.4-0.5c0.6-0.6,1-1.2,1.4-1.9c0.2-0.4,0.3-0.7,0.3-0.9l0.6,0.3c-0.1,0-0.1,0.1-0.2,0.2
				c-0.2,0.4-0.2,0.5-0.5,1l0.6,3.7c0.1,0.4,0.1,0.8,0.2,1.1L67.5,56c0-0.3,0-0.7-0.1-1.1L67.1,52.8z M71.4,51.5l1.3-0.2
				c0.4-0.1,0.7-0.1,1-0.2l0.1,0.6c-0.3,0-0.6,0-1,0.1L71.5,52l0.4,2.4l1.8-0.3c0.4-0.1,0.7-0.1,1-0.2l0.1,0.7c-0.3,0-0.7,0-1,0.1
				l-4.1,0.6c-0.4,0.1-0.7,0.1-1,0.2l-0.1-0.7c0.3,0,0.6,0,1-0.1l1.7-0.3L70.9,52l-1.1,0.2c-0.4,0.1-0.7,0.1-1,0.2l-0.1-0.6
				c0.3,0,0.6,0,1-0.1l1.1-0.2l-0.3-2.1l-1.3,0.2c-0.4,0.1-0.7,0.1-1,0.2l-0.1-0.6c0.3,0,0.5,0,1-0.1l3.5-0.5c0.4-0.1,0.7-0.1,1-0.2
				l0.1,0.6c-0.3,0-0.6,0-1,0.1l-1.6,0.3L71.4,51.5z M71.2,48.5c-0.7-0.5-1.1-0.7-2.1-1l0.4-0.5c0.8,0.3,1.3,0.5,2.1,1L71.2,48.5z"
				/>
			<path class="st7" d="M75.7,46.3c0.8,0.4,1.2,0.6,1.8,1l-0.3,0.5c-0.6-0.4-1-0.7-1.8-1.1L75.7,46.3z M75.7,48.7
				c0.8,0.2,1.1,0.4,1.9,0.8l-0.2,0.6c-0.7-0.4-1.2-0.7-1.9-0.9L75.7,48.7z M77.9,51.4c-0.2,0.7-0.5,1.7-0.7,2
				c-0.2,0.4-0.3,0.7-0.3,0.7c0,0.1,0,0.1-0.1,0.2L76.2,54c0.1-0.1,0.1-0.2,0.2-0.4c0.4-0.8,0.7-1.4,1-2.6L77.9,51.4z M81,48.2
				l1.8-0.3c0.4-0.1,0.7-0.1,0.9-0.2l0.1,0.7c-0.3,0-0.6,0-1,0.1L81,48.8l0.2,1.6l1.5-0.2c0.3-0.1,0.6-0.1,0.7-0.1
				c0,0.2,0,0.4,0.1,0.9l0.3,1.8c0.1,0.4,0.1,0.7,0.2,0.9l-0.6,0.1l-0.1-0.5l-3.6,0.6l0.1,0.5l-0.6,0.1c0-0.3,0-0.5-0.1-0.9
				l-0.3-1.8c0-0.3-0.1-0.6-0.2-0.8c0.2,0,0.4,0,0.7-0.1l1.4-0.2l-0.2-1.6l-1.8,0.3c-0.4,0.1-0.7,0.1-0.9,0.2l-0.1-0.7
				c0.2,0,0.5,0,0.9-0.1l1.8-0.3L80.2,47c-0.8,0.2-1.4,0.4-2.1,0.6c-0.1-0.2-0.2-0.3-0.3-0.5c1.3-0.2,2.6-0.6,3.9-1.1
				c0.5-0.2,0.8-0.3,1-0.5l0.5,0.5c-0.1,0-0.1,0-0.3,0.1c-0.5,0.2-1.3,0.6-2.1,0.8L81,48.2z M79.7,53.1l3.6-0.6L83,50.6l-3.6,0.6
				L79.7,53.1z"/>
			<path class="st7" d="M87.7,46l1.1-0.2c0.4-0.1,0.6-0.1,0.8-0.2l0.1,0.6c-0.2,0-0.3,0-0.8,0.1l-1.2,0.2l0.1,0.6l1-0.1
				c0.4-0.1,0.6-0.1,0.8-0.2c0,0.2,0,0.3,0.1,0.8l0.2,1.1c0.1,0.5,0.1,0.7,0.2,0.9c-0.2,0-0.5,0-0.9,0.1l-0.9,0.1l0.1,0.6l0.9-0.1
				c0.5-0.1,0.6-0.1,0.8-0.2l0.1,0.6c-0.2,0-0.3,0-0.8,0.1l-1,0.2l0.1,0.7c0.6-0.2,0.9-0.3,1.7-0.5l0.1,0.5
				c-1.3,0.4-2.2,0.7-3.7,1.1c-0.2,0.1-0.3,0.1-0.5,0.1l-0.2-0.6c0.2,0,0.3,0,0.4-0.1c0.3,0,1-0.2,1.8-0.4L88,51l-1,0.2
				c-0.3,0-0.6,0.1-0.8,0.2L86,50.8c0.2,0,0.5,0,0.9-0.1l1-0.2l-0.1-0.6L86.9,50c-0.4,0.1-0.6,0.1-0.9,0.2c0-0.2,0-0.4-0.1-0.9
				l-0.2-1.1c-0.1-0.5-0.1-0.6-0.2-0.8c0.2,0,0.5,0,0.9-0.1l0.9-0.1l-0.1-0.6L86,46.8c-0.4,0.1-0.6,0.1-0.8,0.2l-0.1-0.6
				c0.3,0,0.5,0,0.9-0.1l1.3-0.2l-0.1-0.7c-0.6,0.2-1,0.3-1.7,0.4c-0.1-0.2-0.1-0.2-0.3-0.5c1.5-0.3,3.2-0.8,3.8-1.2l0.5,0.4
				c-0.1,0-0.1,0-0.4,0.2s-0.5,0.2-1.3,0.5L87.7,46z M87.4,47.6l-1.2,0.2l0.1,0.7l1.2-0.2L87.4,47.6z M87.6,48.7l-1.2,0.2l0.1,0.7
				l1.2-0.2L87.6,48.7z M89.3,48l-0.1-0.7L88,47.5l0.1,0.7L89.3,48z M89.5,49.2l-0.1-0.7l-1.2,0.2l0.1,0.7L89.5,49.2z M91.6,46.4
				c0.1,1.3,0.2,2.3,0.1,3.1c-0.1,1.1-0.4,1.9-1,3c-0.1-0.1-0.4-0.2-0.6-0.3c0.4-0.6,0.7-1,0.8-1.7c0.3-1,0.3-2.2,0.1-3.9h-0.2
				c-0.4,0.1-0.6,0.1-0.9,0.2l-0.1-0.6c0.2,0,0.4,0,0.8-0.1h0.3c-0.1-0.5-0.1-0.8-0.2-1c-0.1-0.5-0.1-0.7-0.2-1l0.7-0.1
				c0,0.2,0,0.4,0.1,0.7c0.1,0.4,0.2,1.2,0.2,1.3l0.9-0.1c0.4-0.1,0.6-0.1,0.8-0.2c0,0.2,0,0.4,0.1,1c0.4,2.8,0.4,4.2,0.3,4.8
				c-0.1,0.4-0.3,0.5-0.8,0.6c-0.3,0-0.6,0.1-1,0.1c0-0.2-0.1-0.4-0.2-0.6c0.5,0,0.8,0,1,0c0.3,0,0.4-0.1,0.4-0.3
				c0.1-0.6,0-2.6-0.4-4.8l0,0L91.6,46.4z"/>
			<path class="st7" d="M95.4,48.3c0.2-0.1,0.3-0.2,0.5-0.5s0.4-0.7,0.7-1.5c-1.1,0.3-1.1,0.3-1.4,0.4L95,46.2
				c0.2-0.1,0.3-0.2,0.5-0.9c0.3-1,0.3-1.3,0.5-2.2l0.6,0.1c-0.3,1.5-0.3,1.7-0.7,2.8c0.5-0.1,0.5-0.1,1.1-0.3
				c0.2-0.4,0.4-1.1,0.5-1.6l0.6,0.2c-0.1,0.2-0.1,0.2-0.3,0.8c-0.3,0.8-0.9,2.2-1.3,2.9c0.5-0.2,1-0.4,1.4-0.6
				c-0.1-0.2-0.2-0.4-0.4-0.7l0.4-0.3c0.4,0.6,0.7,1.1,1,1.7l-0.5,0.3c-0.1-0.3-0.2-0.4-0.3-0.6c-0.1,0-0.1,0-0.4,0.2
				c0,0-0.3,0.1-0.6,0.2c-0.3,0.1-0.4,0.1-0.8,0.3c-0.2,0.1-0.2,0.1-0.4,0.2L95.4,48.3z M96.4,49.2c0,1.2,0,1.6-0.2,2.2l-0.5-0.2
				c0.2-0.7,0.2-1.1,0.2-2.1L96.4,49.2z M97.3,49c0.2,0.6,0.4,1,0.6,1.8L97.4,51c-0.2-0.8-0.3-1.3-0.5-1.8L97.3,49z M98.1,48.6
				c0.3,0.5,0.5,0.9,0.7,1.5l-0.5,0.3c-0.2-0.6-0.4-0.9-0.7-1.5L98.1,48.6z M98.2,44c-0.1-0.6-0.1-0.8-0.2-1c0.2,0,0.5,0,0.9-0.1
				l2.9-0.4c0.5-0.1,0.8-0.1,1-0.2c0,0.3,0.1,0.6,0.1,1.1l1,6.2c0.1,0.6-0.1,0.8-0.7,0.9c-0.3,0-0.7,0.1-1,0.1
				c0-0.2-0.1-0.4-0.2-0.6c0.5,0,0.8,0,1.1,0c0.3,0,0.3-0.1,0.3-0.3l-1-6.8l-3.7,0.6l1,6.6c0.1,0.6,0.1,0.8,0.2,1.1l-0.6,0.1
				c0-0.3,0-0.6-0.1-1.1L98.2,44z M100.9,45.1c0.2-0.7,0.3-1.1,0.4-1.8l0.5,0.1c-0.1,0.6-0.3,1.2-0.4,1.6h0.2c0.3,0,0.5-0.1,0.8-0.2
				l0.1,0.6c-0.2,0-0.5,0-0.8,0.1l-1.7,0.3c-0.3,0-0.6,0.1-0.8,0.2l-0.1-0.6c0.2,0,0.5,0,0.8-0.1L100.9,45.1z M99.7,43.6
				c0.3,0.4,0.5,0.7,0.8,1.2l-0.4,0.3c-0.3-0.5-0.4-0.8-0.8-1.2L99.7,43.6z M101.8,46.4c0.3,0,0.6-0.1,0.8-0.2l0.1,0.6
				c-0.2,0-0.5,0-0.8,0.1l-1.2,0.2l0.3,1.7l1.1-0.2c0.3,0,0.5-0.1,0.7-0.2l0.1,0.6c-0.2,0-0.5,0-0.7,0.1l-0.8,0.1
				c-0.4,0.1-0.6,0.1-0.9,0.2c0-0.2,0-0.5-0.1-0.9l-0.2-1.3c-0.3,0.1-0.5,0.1-0.7,0.1l-0.1-0.6c0.2,0,0.4,0,0.8-0.1l0.6-0.1
				c-0.1-0.2-0.2-0.4-0.4-0.6l0.4-0.3c0.2,0.3,0.4,0.5,0.5,0.8L101.8,46.4z"/>
			<path class="st7" d="M107.5,42.9c0.3,0,0.5-0.1,0.6-0.1l0.1,0.6c-0.2,0-0.4,0-0.7,0.1l-2.1,0.3c-0.2,0-0.4,0.1-0.7,0.2l-0.1-0.6
				c0.2,0,0.4,0,0.7,0l1-0.2c0,0,0,0-0.1-0.2c-0.2-0.2-0.4-0.5-0.9-1l0.4-0.3c0.4,0.4,0.7,0.7,1.1,1.2l-0.3,0.2L107.5,42.9z
				 M105.8,44.3c0.5,1.2,0.7,1.8,1.1,3l-0.5,0.2c-0.3-1.2-0.5-1.8-1.1-3L105.8,44.3z M105.4,48.7c0.3-0.1,0.9-0.3,1.8-0.8
				c0.2-1.7,0.3-3.3,0.2-4L108,44c0,0.1,0,0.1-0.1,1.1c0,0.9-0.1,1.1-0.2,2.6c0.3-0.2,0.5-0.3,1-0.6l0.1,0.6c-1,0.6-1.5,0.8-2.7,1.4
				c-0.2,0.1-0.2,0.1-0.4,0.2L105.4,48.7z M112.2,44.9c0.3-0.1,0.6-0.1,0.8-0.2c0,0.3,0,0.6,0.1,1l0.3,1.9c0.1,0.5,0.2,0.9,0.2,1.2
				l-0.6,0.1l-0.1-0.5l-3,0.5l0.1,0.5l-0.6,0.1c0-0.3,0-0.7-0.1-1.1l-0.3-2.1c-0.1-0.4-0.1-0.6-0.2-0.9c0.2,0,0.4,0,0.8-0.1l0.9-0.1
				l-0.5-3.3c-0.1-0.4-0.1-0.7-0.2-0.9l0.7-0.1c0,0.3,0,0.5,0.1,0.9l0.1,0.9l1.6-0.2c0.4-0.1,0.6-0.1,0.8-0.2l0.1,0.6
				c-0.3,0-0.5,0-0.8,0.1l-1.6,0.2l0.3,1.9L112.2,44.9z M109.9,48.4l3-0.5l-0.4-2.5l-3,0.5L109.9,48.4z"/>
		</g>
	</g>
	<path class="st7" d="M17.6,6.7L17.6,6.7c4.1,7.4,10.2,13.5,17.6,17.6l0,0l0,0c-7.4,4.1-13.5,10.2-17.6,17.6l0,0l0,0
		C13.5,34.5,7.4,28.4,0,24.3l0,0l0,0C7.4,20.3,13.5,14.2,17.6,6.7L17.6,6.7z"/>
</g>
</svg>
