<?xml version="1.0" encoding="utf-8"?>
<!-- Generator: Adobe Illustrator 25.3.1, SVG Export Plug-In . SVG Version: 6.00 Build 0)  -->
<svg version="1.1" id="圖層_1" xmlns="http://www.w3.org/2000/svg" xmlns:xlink="http://www.w3.org/1999/xlink" x="0px" y="0px"
	 viewBox="0 0 600 100" style="enable-background:new 0 0 600 100;" xml:space="preserve">
<style type="text/css">
	.st0{enable-background:new    ;}
	.st1{fill:#FFFFFF;}
</style>
<g>
	<g class="st0">
		<path class="st1" d="M157.4,74.3c-0.1,0.1-0.4,0.4-0.6,0.6c2.7,2,7.6,3.8,12.1,4.5c-0.7,0.7-1.6,1.8-2,2.7
			c-1.6-0.3-3.1-0.7-4.7-1.3c-0.1,0.6-0.4,1-0.7,1.6c1.6,0.8,3.5,2,4.5,2.8l-1.6,1.7c-0.8-0.8-2.5-1.8-4.1-2.8
			c-0.8,1.1-1.8,2-2.8,2.7c-0.4-0.4-1-1-1.6-1.3v5.4c2-1.1,3.5-2.8,4.1-4.8l2.3,0.4c-0.1,0.6-0.4,1.1-0.7,1.6c1.7,0.8,3.7,2.1,4.7,3
			l-1.6,1.6c-0.8-0.8-2.5-2-4.1-3c-0.8,1.1-1.8,2.1-3,2.8c-0.4-0.4-1.1-1-1.7-1.4v1.6H167v2.4h-10.9v5.1h-2.7v-5.1h-10.7v-2.4h10.7
			v-14h2.7v6.5c1.8-1.1,3.2-2.8,3.9-4.9l0.7,0.1c-2.4-1-4.5-2.1-6.3-3.5c-1.7,1.3-3.5,2.4-5.5,3.4l1.6,0.3c-0.3,0.7-0.6,1.3-1,1.8
			c1.3,0.8,3,1.8,3.7,2.7l-1.3,1.6c-0.7-0.7-2.3-1.8-3.5-2.7c-1,1.3-2.3,2.3-3.7,3.1c-0.3-0.4-1.1-1.1-1.6-1.6
			c2.3-1,4.1-2.8,5.1-4.8c-1.8,0.8-3.8,1.6-5.6,2c-0.1-0.8-0.7-2.3-1.1-3c5.2-1,10.7-3.5,13.4-6.6L157.4,74.3z M150.5,86
			c-0.3,0.6-0.4,1.1-0.8,1.7c1.4,0.8,3.1,2,3.9,2.7L152,92c-0.7-0.7-2.1-1.8-3.5-2.7c-1.1,1.1-2.3,2.3-3.5,3
			c-0.4-0.4-1.1-1.1-1.7-1.4c2.3-1.1,4.1-3,5.1-5.2L150.5,86z"/>
		<path class="st1" d="M187.7,72.7c0,1.1,0,2.7-0.1,4.4c0.4,3.7,2.3,15.5,12.5,20.2c-0.8,0.6-1.7,1.6-2,2.4
			c-6.9-3.2-10.1-9.7-11.7-15.1c-1.4,5.5-4.7,11.6-11.3,15.2c-0.4-0.7-1.4-1.6-2.3-2.3c12.1-6.3,11.8-20,11.8-24.8H187.7z"/>
		<path class="st1" d="M227.9,84.9c-1.3,1-2.7,2.1-4.2,3.1c1.3,3.7,3.9,6.9,7.3,8.3c-0.6,0.4-1.4,1.6-1.8,2.3
			c-3.7-1.7-6.2-4.9-7.8-9.2c-0.4,0.3-0.8,0.4-1.1,0.7c1,3.7,0.3,7.2-1.4,8.5c-1,1-1.8,1.1-3.2,1.1c-0.7,0-1.6,0-2.4,0
			c0-0.7-0.3-1.8-0.7-2.5c1,0.1,2,0.1,2.7,0.1s1.3-0.1,1.8-0.7c0.7-0.6,1.1-2.3,1-4.2c-3.4,2.5-8.2,4.8-12.3,6.1
			c-0.3-0.7-1-1.7-1.4-2.3c4.7-1.1,10.3-3.7,13.2-6.3c-0.1-0.6-0.4-1.1-0.6-1.7c-3,2-7.3,3.9-10.9,4.9c-0.3-0.6-0.8-1.6-1.4-2.1
			c3.7-0.8,8.5-2.8,11.1-4.7c-0.3-0.4-0.7-1-1.1-1.4c-2.5,1.4-5.5,2.5-8.3,3.4c-0.3-0.6-1-1.7-1.4-2.3c3.5-0.7,7.3-2.1,10-3.8h-6
			v-2.4h16.8v2.4h-7c-0.6,0.6-1.3,1-2,1.4c1.3,1.3,2.3,2.7,2.8,4.1c2.1-1.4,4.5-3.2,6.1-4.8L227.9,84.9z M207.6,81.4h-2.7v-6.3h10.9
			c-0.3-0.7-0.6-1.3-1-2l2.8-0.8c0.6,0.8,1,1.8,1.4,2.8h10.7v6.3h-2.8v-3.8h-19.5v3.8H207.6z"/>
		<path class="st1" d="M245.6,84.8c-0.1,9.2-0.4,12.3-1.1,13.2c-0.6,0.7-1,1-1.8,1.1c-0.7,0.1-1.8,0.1-3,0.1c0-0.7-0.3-1.8-0.7-2.4
			c1,0.1,2,0.1,2.4,0.1s0.6,0,0.8-0.4c0.4-0.6,0.6-3.2,0.8-10.3h-3c-0.4,5.8-1.3,10.4-3.8,13.7c-0.4-0.6-1.3-1.6-2-2
			c3-3.8,3.2-10.1,3.4-18h-3.1v-2.5h5.6c-0.6-1.1-1.4-2.7-2.3-3.9l2.4-0.8c1,1.3,2,3,2.5,4.1l-2,0.7h5.1V80H240c0,1.3,0,2.7-0.1,3.9
			h5.4v0.8L245.6,84.8L245.6,84.8z M250,78.7c-0.7,1.4-1.7,2.8-2.5,3.8c-0.4-0.4-1.6-1.1-2.1-1.4c2-2.1,3.7-5.2,4.5-8.5l2.5,0.6
			c-0.3,1-0.7,2.1-1.1,3.1h10.4v2.5L250,78.7L250,78.7z M255.2,91c-0.7,3-2.5,6.3-7.5,8.9c-0.4-0.6-1.3-1.4-1.8-2
			c4.4-2,6.1-4.7,6.6-6.9h-5.6v-2.5h6.1c0-0.3,0-0.6,0-0.8v-3h-1.8c-0.6,1.1-1.4,2.1-2.1,2.8c-0.6-0.4-1.6-1.1-2.1-1.4
			c1.7-1.7,3.1-4.1,3.9-6.6l2.5,0.6c-0.3,0.7-0.6,1.6-1,2.3h8.2v2.4h-4.9v3c0,0.3,0,0.6,0,0.8h6.1V91H255.2z M257.1,91.5
			c1.7,2.1,3.9,4.9,4.9,6.8l-2.3,1.4c-1-1.8-3.1-4.8-4.8-7L257.1,91.5z"/>
		<path class="st1" d="M270.3,90.7c0,0.4-0.1,0.7-0.1,1.1h11.1v7.8h-2.4v-1h-6.3v1.1h-2.4v-7.5c-0.4,2.3-1.1,4.7-2.3,6.5
			c-0.6-0.4-1.7-1-2.4-1.1c2.3-3.7,2.5-8.7,2.5-12V82h12.4v8.9h-10.1L270.3,90.7L270.3,90.7z M276.7,73.6c-0.1,0.3-0.3,0.6-0.6,0.7
			c2.3,1.3,4.8,3,6.2,3.9l-1.4,2.3c-1.4-1.1-4.1-3-6.3-4.4c-0.7,0.8-1.6,1.7-2.5,2.4h5.6v1.7h-6.1V79c-1.4,1.1-3,2.1-4.5,3
			c-0.3-0.6-1-2-1.4-2.5c3.4-1.6,6.6-3.9,8.5-6.9L276.7,73.6z M278.1,88.7V87h-7.5c0,0.6,0,1.1-0.1,1.7H278.1z M270.7,83.8v1.6h7.3
			v-1.6H270.7z M272.6,93.8v2.7h6.3v-2.7H272.6z M286.1,92.1h-2.5V75.8h2.5V92.1z M291.6,72.8v23.5c0,1.6-0.4,2.4-1.3,2.8
			c-1,0.4-2.4,0.6-4.8,0.6c-0.1-0.7-0.6-2-0.8-2.8c1.7,0,3.2,0,3.7,0c0.6,0,0.7-0.1,0.7-0.7V72.8H291.6z"/>
		<path class="st1" d="M297.2,97.7c1.4-1.3,2.8-3.4,3.5-5.1l2.3,1c-0.8,1.8-2.1,4.1-3.5,5.4L297.2,97.7z M323,81.5h-25.4v-2.3h6.5
			c-0.1-0.7-0.6-1.4-0.8-2.1l2-0.4H299v-2.1h10.1c-0.3-0.6-0.4-1.1-0.7-1.7l2.7-0.6c0.4,0.7,0.8,1.4,1.1,2.3h9.3v2.1h-5.9l2,0.4
			c-0.4,0.8-0.8,1.6-1.3,2.1h6.6L323,81.5C322.9,81.5,323,81.5,323,81.5z M319.6,91.5h-9.7c1.4,0.7,3,1.7,3.8,2.5l-1.7,1.7
			c-1-1-3-2.3-4.7-3.1l1.1-1H301v-8.7h18.6V91.5z M317,84.6h-13.2v1.7H317V84.6z M317,88h-13.2v1.7H317V88z M313.3,97.3
			c1.1,0,1.4-0.3,1.4-2.7c0.6,0.4,1.7,0.7,2.4,0.8c-0.3,3.2-1.1,4.1-3.7,4.1h-5.2c-3.4,0-4.1-0.7-4.1-3.1V93h2.7v3.5
			c0,0.7,0.3,0.8,1.7,0.8H313.3z M306,76.7c0.4,0.8,1,1.8,1.1,2.5h6.5c0.4-0.8,0.8-1.8,1.1-2.5H306z M319.4,92.2
			c1.4,1.6,3.1,3.7,3.8,5.2l-2.4,1.1c-0.6-1.4-2.1-3.7-3.7-5.2L319.4,92.2z"/>
		<path class="st1" d="M344.2,73.8c-0.3,0.4-0.6,0.8-1,1.3c3.7,3.5,7.6,5.8,12,7.6c-0.7,0.6-1.6,1.7-2,2.5c-1.6-0.7-3.1-1.6-4.5-2.4
			v2h-14.8v-1.6c-1.4,0.8-2.8,1.7-4.2,2.3c-0.4-0.7-1.3-1.8-2-2.4c5.5-2.1,11-5.9,14-10.4L344.2,73.8z M332.3,87.7h18.5v11.8h-3
			v-1.4H335v1.6h-2.8L332.3,87.7L332.3,87.7z M335,90.3v5.5h12.8v-5.5H335z M347.8,82.1c-2.1-1.4-4.2-3-6.3-5.1
			c-1.7,1.8-3.7,3.7-5.9,5.1H347.8z"/>
		<path class="st1" d="M358.8,98.7c1.3-1.4,2.8-3.9,3.7-6.1l2.7,0.7c-1,2.3-2.4,4.8-3.7,6.5L358.8,98.7z M362.8,92.2h-2.5V73.8h8.9
			v17.1h-6.3v1.3H362.8z M362.8,76.3v4.5h3.8v-4.5H362.8z M366.6,88.4v-5.1h-3.8v5.1H366.6z M370,93.4c0.4,1.8,0.7,4.4,0.7,5.9
			l-2.7,0.4c0-1.6-0.3-4.1-0.6-6.1L370,93.4z M377.4,76.2c-0.7,3.4-2.3,5.8-6.8,7c-0.3-0.6-1-1.6-1.4-2c3.7-1,4.9-2.7,5.5-5.1H370
			v-2.4h14.8c0,0,0,0.6,0,1c-0.3,4.1-0.6,5.9-1.1,6.6c-0.6,0.6-1.1,0.7-1.8,0.8c-0.7,0.1-2,0.1-3.4,0c0-0.7-0.3-1.7-0.7-2.3
			c1.1,0.1,2.3,0.1,2.8,0.1c0.4,0,0.7,0,0.8-0.3c0.3-0.3,0.6-1.3,0.7-3.7C382.2,76.2,377.4,76.2,377.4,76.2z M384.1,91.8h-13v-8.3
			h13V91.8z M381.4,85.6h-7.8v3.9h7.8V85.6z M376.2,93.1c0.7,1.8,1.6,4.4,1.8,5.9l-2.7,0.6c-0.3-1.6-1-4.1-1.7-6.1L376.2,93.1z
			 M382.1,92.5c1.3,1.8,3,4.5,3.7,6.2l-2.7,1.1c-0.7-1.7-2.3-4.4-3.5-6.3L382.1,92.5z"/>
		<path class="st1" d="M397.9,87.9h7.8v2.5h-7.8V87.9z"/>
		<path class="st1" d="M444.7,90.4h-11.8v5.8c0,1.8-0.6,2.5-1.7,3c-1.3,0.4-3.2,0.6-6.3,0.4c-0.1-0.7-0.7-2-1.1-2.7
			c2.4,0.1,4.8,0.1,5.4,0c0.7,0,0.8-0.1,0.8-0.8v-5.8h-12v-2.5h11.8v-4.2H420v-2.7h9.9v-4.1c-3.1,0.3-6.3,0.4-9.4,0.6
			c0-0.7-0.4-1.8-0.7-2.4c7-0.3,15.4-1.1,20-2.4l2,2.3c-2.5,0.7-5.8,1.3-9,1.7V81h10.1v2.7h-10.1v4.2h11.8v2.7h0.1V90.4z"/>
		<path class="st1" d="M455.7,88.7c-0.3-0.7-0.8-2-1.4-3.2v14.2h-2.4V86.9c-0.7,2.5-1.6,4.9-2.4,6.6c-0.1-0.8-0.7-2-1.1-2.8
			c1.4-2.3,2.8-6.5,3.4-10H449v-2.5h2.8v-5.5h2.4v5.5h2.3v2.5h-2.3v1.7c0.7,1,2.4,3.7,2.7,4.5L455.7,88.7z M474,90.8
			c-0.8,1.7-2,3.2-3.4,4.7c0.7,1,1.6,1.6,2.5,1.7c0.6,0,1-1,1.1-3.1c0.4,0.6,1.3,1.1,1.8,1.4c-0.6,3.5-1.7,4.5-3,4.4
			c-1.8-0.1-3.2-1.1-4.5-2.8c-1.6,1.1-3.1,2-4.9,2.7c-0.3-0.6-1-1.3-1.4-1.8c2-0.7,3.8-1.7,5.2-2.8c-0.6-1.4-1.1-3.1-1.6-5.1h-4.5
			c0,0.3,0,0.6,0,1c1.4,1.1,3.1,2.5,3.9,3.4l-1.7,1.7c-0.6-0.7-1.6-1.7-2.7-2.5c-0.6,2.3-1.8,4.7-4.2,6.5c-0.4-0.4-1.3-1.3-1.8-1.7
			c3.4-2.5,4.1-5.8,4.1-8.3h-2.1v-2.3h8.5c-0.7-4.2-1.1-9.3-1.3-14.9h2.3c0.1,5.8,0.6,10.9,1.3,14.9h3.5c-0.7-0.6-1.4-1.1-2.1-1.6
			l1.3-1.1c-1.4,0.3-1.8,0.4-2.1,0.6c-0.1-0.4-0.4-1.4-0.7-2c0.4-0.1,1-0.6,1.4-1.3c0.3-0.4,1-1.3,1.6-2.4c-1.8,0.3-2.4,0.4-2.7,0.6
			c-0.1-0.4-0.4-1.4-0.7-2c0.4-0.1,0.7-0.4,1-1s1.4-2.5,2-4.5l2,0.6c-0.7,1.7-1.6,3.4-2.4,4.7l1.7-0.1c0.4-0.7,0.7-1.3,1-2l2,0.7
			c-1.3,2.3-2.7,4.7-4.1,6.5l2.4-0.3c-0.1-0.6-0.4-1.1-0.6-1.6l1.6-0.4c0.6,1.4,1.3,3.2,1.6,4.4l-1.7,0.6c-0.1-0.4-0.1-0.8-0.3-1.3
			c-1.1,0.1-2,0.3-2.7,0.4c1,0.6,2.1,1.4,2.7,2l-0.7,0.7h2.4V90h-6.9c0.3,1.3,0.7,2.4,1.1,3.4c1-1,1.7-2.1,2.3-3.4L474,90.8z
			 M463,86.2c0-0.3-0.1-0.7-0.1-1.1c-3.9,0.6-4.7,0.7-5.1,1c-0.1-0.4-0.4-1.4-0.7-2c0.4-0.1,1-0.6,1.6-1.3c0.3-0.4,1-1.3,1.7-2.4
			c-2,0.3-2.4,0.4-2.8,0.6c-0.1-0.4-0.4-1.4-0.7-2c0.4-0.1,0.7-0.4,1.1-1.1c0.4-0.6,1.6-2.8,2.3-4.9l2,0.6c-0.8,1.8-1.8,3.7-2.8,5.2
			l1.8-0.1c0.4-0.6,0.7-1.3,1-2l2,0.7c-1.3,2.3-2.8,4.7-4.2,6.3l2.4-0.3c-0.1-0.6-0.4-1.1-0.6-1.7l1.7-0.4c0.6,1.4,1.1,3.2,1.4,4.2
			L463,86.2z"/>
		<path class="st1" d="M485.5,87.6v8.9c0,1.3-0.3,2.1-1,2.5c-0.8,0.4-2,0.6-3.7,0.6c0-0.7-0.4-1.8-0.7-2.5c1.1,0,2.1,0,2.4,0
			c0.4,0,0.4-0.1,0.4-0.4v-7.5c-0.8,0.6-1.7,1-2.5,1.4l-0.8-2.5c1-0.4,2.1-1.1,3.4-1.8V81h-3v-2.5h3v-5.8h2.5v5.8h2.4V81h-2.4v3.8
			l1.6-0.8l0.7,2.4L485.5,87.6z M488.1,85.9h8.9v2h-1v11.8h-2.1v-3.1c-2.3,0.3-4.2,0.4-6.1,0.7l-0.3-2l1.7-0.1v-7.3h-1.1V85.9z
			 M500.3,84.2h-11.8v-2h3.5v-6.6h-2.7v-2h16.8v2H503v6.6h3.8v2H503v1.1h-2.5v-1.1H500.3z M494,87.9h-2.7v1.3h2.7V87.9z M494,90.7
			h-2.7v1.4h2.7V90.7z M494,94.9v-1.3h-2.7V95L494,94.9z M494.4,75.5v1.1h5.9v-1.1H494.4z M494.4,79.4h5.9v-1.3h-5.9V79.4z
			 M500.3,82.2V81h-5.9v1.3h5.9V82.2z M507,96.9h-1.3v3h-2.1v-3h-6.2v-2h1.4v-7h-1.1v-2h9.3v2h-1.3v7h1.3L507,96.9L507,96.9z
			 M500.8,87.9v1.3h2.7v-1.3H500.8z M500.8,92h2.7v-1.3h-2.7V92z M503.4,94.9v-1.4h-2.7v1.4H503.4z"/>
		<path class="st1" d="M516.3,93.8c-0.7,1.8-2,3.7-3.1,4.9c-0.4-0.4-1.4-1.1-2-1.4c1.1-1.1,2.1-2.7,2.8-4.1L516.3,93.8z M527.3,85.6
			h-15.9v-2.1h6.8c-0.1-0.4-0.4-0.8-0.6-1.1l2.4-0.6h-7.2v-8.2h13.5v8.2h-6.2c0.3,0.4,0.7,1.1,0.8,1.7h6.3L527.3,85.6L527.3,85.6z
			 M520.6,92.7V97c0,1.3-0.1,1.8-1,2.1s-2,0.4-3.5,0.4c-0.1-0.7-0.4-1.7-0.8-2.3c1.1,0,2.1,0,2.4,0s0.4-0.1,0.4-0.4v-4.4h-4.9v-5.8
			H526v5.8h-5.4V92.7z M515.3,76.9h8.3v-1.4h-8.3V76.9z M515.3,80.1h8.3v-1.6h-8.3V80.1z M515.6,90.8h7.6v-2.1h-7.6V90.8z M538,90.4
			c-2.3,3.9-5.9,7-9.9,9.2c-0.4-0.7-1.1-1.6-1.8-2l-2,1c-0.4-1.3-1.6-3.1-2.5-4.5l2-0.8c1,1.4,2.1,3.1,2.5,4.2
			c3.7-1.7,7.2-4.7,9-7.9L538,90.4z M536.6,74.2c-2,2.7-4.9,5.4-7.8,7c-0.4-0.6-1.3-1.4-2-1.8c2.5-1.4,5.5-3.8,7-6.2L536.6,74.2z
			 M537.3,82.1c-2.1,3-5.5,5.6-8.5,7.3c-0.4-0.6-1.3-1.4-1.8-2c2.8-1.4,6.1-3.9,7.9-6.5L537.3,82.1z"/>
		<path class="st1" d="M554.8,93.4c0,0.8,0.1,2,0.3,2.5c-8.3,2.3-9.6,2.5-10.3,3.1c-0.3-0.7-0.8-1.8-1.3-2.3
			c0.6-0.4,1.3-1.1,1.3-2.4V72.7h2.8v8.9h7v2.7h-7v10.9L554.8,93.4z M564.8,96.5c1.3,0,1.4-1,1.7-5.2c0.7,0.6,1.8,1,2.5,1.3
			c-0.4,4.8-1.1,6.6-3.9,6.6h-4.5c-3.1,0-3.9-1-3.9-4.7V72.7h2.8v8.9h7.6v2.7h-7.6v10.4c0,1.7,0.1,2,1.6,2h3.8L564.8,96.5
			L564.8,96.5z"/>
		<path class="st1" d="M594.6,95.9h-3.2c2.7,0.7,5.5,1.6,7.3,2.3l-2.3,1.6c-2-0.7-5.2-1.8-8.5-2.8l1.1-1h-5.9l1.4,0.8
			c-2.4,1.3-6.3,2.4-9.4,3c-0.4-0.4-1.1-1.3-1.7-1.8c2.7-0.4,5.8-1.3,7.9-2h-3.2v-6.8c-1.3,0.7-2.5,1.3-3.8,1.7
			c-0.4-0.6-1.1-1.6-1.7-2c2.4-0.7,5.1-2,7-3.4h-6.2v-2h7.3v-1.1H577v-1.6h3.8v-1.1h-4.2v-1.6h4.2V77h2.5v1.1h6.1V77h2.5v1.1h4.2
			v1.6H592v1.1h3.9v1.6H592v1.1h7.3v2h-5.8c1.8,1.3,4.2,2.4,6.5,3c-0.6,0.6-1.4,1.4-1.7,2.1c-1.3-0.4-2.5-1-3.7-1.7V95.9L594.6,95.9
			z M576.2,79h-2.5v-4.7h11.6c-0.1-0.4-0.4-1-0.7-1.4l2.7-0.7c0.4,0.6,0.8,1.4,1.1,2.1H599V79h-2.5v-2.5h-20.3V79L576.2,79z
			 M592,88.2h-11.4v1.1H592V88.2z M592,90.7h-11.4v1.1H592V90.7z M592,93.2h-11.4v1.1H592V93.2z M582.7,85.5
			c-0.4,0.4-0.8,0.8-1.3,1.3h10.3c-0.4-0.4-0.8-0.8-1.3-1.3H582.7z M583.2,80.8h6.1v-1.1h-6.1V80.8z M583.2,83.5h6.1v-1.1h-6.1V83.5
			z"/>
	</g>
</g>
<g>
	<g>
		<path class="st1" d="M64.6,58.8c1.6-2.1,2.4-4.6,2.4-7.4c0-3.7-1.7-6.9-4.2-9.2C69.4,38,73.7,33,72,28.8
			c-2.7-6.9-17.5-10.9-28.5-6.3S24.9,40.6,28.1,47.7c1.6,3.5,8,3.6,14.4,2.5c0,0.5-0.1,1.1-0.1,1.6c0,2.5,0.7,4.7,2.1,6.6l-8.5,19
			l0,0c-0.2,0.4-0.4,0.9-0.4,1.4c0,2.8,4.6,5.3,11.1,6.2v7.9c0,0,5.3,1.6,5.9,1.6c0.6,0,2.6-0.6,1.9-2.8C53.8,89.4,52,89,52,89
			l-0.1-3.6c0.5,0,1.2,0,1.7,0c0.6,0,1.4,0,2-0.1l0.1,6.1c0,0,5.3,1.5,5.9,1.4c0.6,0,2.5-0.7,1.7-2.8c-0.7-2.2-2.6-2.6-2.6-2.6
			l-0.2-2.6c6.3-1.2,10.9-3.7,10.8-6.4c0-0.1-0.2-0.9-0.6-1.7L64.6,58.8z M70.6,30.5c1.1,2.6-2.8,7.3-8.5,11.3
			c-2.1-1.6-4.6-2.4-7.4-2.4c-1.1,0-2,0.1-2.8,0.4l-3-9.8l0,0C57.9,26.5,68.9,26.4,70.6,30.5z M29.8,47.2c-2-4.1,6.7-11.9,15.8-16
			l2.8,9.8l0,0c-2.8,1.7-5.2,4.6-5.8,8C36.4,49.9,30.8,49.5,29.8,47.2z M57.3,57.3c-2.8,0-5.3-3.1-5.3-7.1c0-0.9,0.1-1.9,0.4-2.6
			c0.1-0.4,0.2-0.7,0.4-1.1c0.9-2,2.5-3.3,4.3-3.3c0.6,0,1.2,0.1,1.9,0.4c0.2,0.1,0.5,0.2,0.7,0.4c1.6,1.2,2.7,3.5,2.7,6.1
			C62.5,54,60.3,57.2,57.3,57.3z"/>
		<g>
			<path class="st1" d="M3,30.6c0.1,0.1,1.5-2.6,2.2-2.8C6.1,27.6,9,25.7,9.7,25c0.6-0.7,3.6-3.5,5.1-3.6s4.5-0.7,5.6-1.1
				c1.1-0.2,5-1.2,6.6-0.7c0,0,0.7-2.5-1.6-4.1c-2.6-1.7-4.2-0.6-5.3-0.5c-0.9,0-4,0.5-5.8,0.4c-1.9-0.1-4.2,1.1-5,1.5
				c-1.7,1.2-1.9,2.7-3.8,4.3C2,23.5,1,25,0.7,25.8C0.7,26.4,0.1,29.6,3,30.6z"/>
			<path class="st1" d="M36.9,79.2c0-0.1-0.2-1.2-0.6-2.2l-8.9-24.9c1.2-2.5,2.4-5.8,2.4-9.3c-0.1-5.1-2.7-8.7-6.1-11.4
				c-4.1-4.2-3.6-4.6-3.6-4.6c2.5-1.4,8.3-5.7,7.4-6.1c-0.9-0.2-4.2-0.2-4.7,0.1c-0.4,0.2-2.8,0.9-4.2,1.1c-1.4,0.1-3.3,0.7-4,1.2
				c-0.2,0.1-1.5,0.7-2.1,1.2c-0.6,0.4-0.9,0.7-1.9,1.6c-1.9,1.6-2.7,2-3.6,2.5c-2.8,1.9-2.8,3.1-2.8,3.1c0.6,1.2,7.6-1.4,7.6-1.4
				s0,1.6-0.9,3.1C10,34.7,7.8,38.8,8,43.8c0,4.2,2.7,7.6,4.7,9.8l-10.6,23C2,77,1.8,77.8,1.8,78.3c0,3.5,5,5.9,10.8,7.1V93
				c0,0,5.3,1.6,5.9,1.6s2.6-0.6,1.9-2.8c-0.7-2.2-2.6-2.6-2.6-2.6L17.6,86c0.5,0,1.2,0,1.7,0c0.6,0,1.4,0,2.1-0.1l0.1,5.6
				c0,0,5.3,1.5,5.9,1.4c0.6,0,2.5-0.7,1.7-2.8c-0.7-2.2-2.6-2.6-2.6-2.6l-0.1-1.9C32.1,84.4,36.9,82.6,36.9,79.2z M21.7,47.9
				c-2.6,0.1-5.1-2.7-5.3-6.6c-0.2-3.8,1.9-7.1,4.5-7.2c2.6-0.1,5.1,2.7,5.3,6.6C26.2,44.6,24.3,47.8,21.7,47.9z"/>
		</g>
		<g>
			<path class="st1" d="M97.5,83l0.2,9.7c0,0-5.9,1.9-6.7,1.9c-0.7,0-2.8-0.6-2.1-3.2c0.7-2.5,2.8-3.1,2.8-3.1l0.1-5.4L97.5,83z"/>
			<path class="st1" d="M88.6,81.2l-0.1,9.7c0,0-6.1,1.7-6.7,1.6c-0.7,0-2.8-0.7-2.1-3.3c0.7-2.5,3.1-3.1,3.1-3.1l0.2-5.4L88.6,81.2
				z"/>
			<g>
				<g>
					<path class="st1" d="M112.4,6.4c-9-4.7-20.2-4.5-27,0.5c-4.2,3.1-3,8.4,1.4,14.2c0.2,0.2,0.5,0.6,0.7,1.1
						c0.5-0.2,0.9-0.4,1.4-0.4c-0.2-0.4-0.6-0.6-0.9-1.1c-3.3-4.2-4.6-8-3.1-10.3c2.6-4,13.1-1.6,23.6,5.3c0.4,0.2,0.7,0.5,1.2,0.7
						c0.2,0.1,0.5,0.4,0.7,0.5c10.4,7.3,16.7,16.2,13.9,20.2c-2.7,4.1-13.9,1.4-24.9-6.1c0,0-0.1,0-0.1-0.1
						c-0.2,0.4-0.5,0.6-0.7,1.1c2,1.4,4,2.5,5.9,3.6c10.8,5.6,21,7.1,22.2,0.1C128.5,27.6,126.4,13.4,112.4,6.4z M91.2,24.3
						c0,0.5-0.1,1.1-0.4,1.5c1.9,1.7,3.8,3.5,6.1,5.2c0.2-0.4,0.5-0.6,0.7-1.1C95.3,28,93,26.1,91.2,24.3z"/>
					<path class="st1" d="M111,16.6c0,0-0.1,0.1-0.4,0.5c-1.5,1.9-6.4,8.3-11,14.1c0-0.1-0.1-0.2-0.1-0.4c0.1-0.5,0.1-1.1,0.1-1.6
						s0-1.1-0.1-1.6c3.8-5.1,7.8-10.2,9.2-11.9c0.2-0.4,0.4-0.5,0.4-0.5L111,16.6z"/>
				</g>
				<path class="st1" d="M107.8,41.2c-0.6-2.5-1.9-4.2-3.1-5.6c-2.2-2.2-4.6-2.7-4.6-2.7s-0.2-1.1-0.5-1.7c-0.2,0.4-0.5,0.6-0.7,1.1
					c-3.5,4.3-6.6,8-7.6,9c-2.5,2.2-3.8,1.9-4.7,1.2c-1.6-1-1.2-3.4-0.6-4.5c0.5-1.1,2.6-4.1,2.6-4.1l1.5,1.1
					c-0.5,0.6-2,3.1-2.1,3.3c-0.2,0.4-0.9,2.1,0.1,2.5c1.1,0.5,2.1-0.7,2.6-1.5c0.2-0.2,3.1-3.8,6.3-8.2c0.2-0.4,0.5-0.6,0.7-1.1
					c0.5-0.7,1.2-1.5,1.7-2.2c-0.7-4.1-4.3-7.3-8.7-7.3c-0.9,0-1.9,0.1-2.6,0.4c-0.4,0.1-0.9,0.2-1.4,0.5c-2.8,1.5-5,4.5-5,7.9
					c0,0.5,0,0.9,0.1,1.4c-0.1,0-0.1,0.1-0.2,0.1c0,0-8.7,1.9-10.9,18.1c-1.5,11.4-2.5,32.9-2.1,33.2c0.4,0.1,8.7,4,21.9,3.8
					s20.9-2.5,20.9-2.6C111.5,83.1,112,57.8,107.8,41.2z M85.8,23.8c0.5-0.6,1.2-1.2,1.7-1.5c0.5-0.2,0.9-0.4,1.4-0.4
					s1.1,0.1,1.5,0.4c0.5,0.4,0.7,1.2,0.7,2c0,0.5-0.1,1.1-0.4,1.5c-0.2,0.4-0.5,0.9-0.7,1.4c-1.5,1.7-3.5,2.5-4.6,1.6
					C84.2,27.7,84.4,25.5,85.8,23.8z"/>
			</g>
		</g>
	</g>
	<path class="st1" d="M5.2,27.7c0.9-0.2,3.8-2.1,4.5-2.8c0.6-0.7,3.6-3.5,5.1-3.6s4.5-0.7,5.6-1.1c1.1-0.2,5-1.2,6.6-0.7
		c0,0,0.7-2.5-1.6-4.1c-2.6-1.7-4.2-0.6-5.3-0.5c-0.9,0-4,0.5-5.8,0.4c-1.9-0.1-4.2,1.1-5,1.5c-1.7,1.2-1.9,2.7-3.8,4.3
		C2,23.5,1,25,0.7,25.8c-0.2,0.6-0.9,3.8,2,5C3.1,30.7,4.3,28,5.2,27.7z"/>
</g>
<g>
	<g class="st0">
		<path class="st1" d="M201.2,23v7.4h-53.1V23H201.2z"/>
		<path class="st1" d="M223.4,44.9c3.1,1,6.9,1.3,11.5,1.3c4.4,0.1,19.7,0.1,24.9-0.2c-1,1.6-2.2,4.7-2.6,6.8H235
			c-10.7,0-17.5-1.4-22.1-7.9c-0.6,3.9-1.4,7.3-2.7,10.2c-1.3-0.8-4.3-2.3-5.8-2.9c2.8-5.8,3.4-15.5,3.5-25.3l6.3,0.5
			c-0.1,2.5-0.2,5.1-0.3,7.4c0.8,2.5,1.9,4.6,3.2,6.1V23.4H206v-6h9.7V12h-8.1V6.1h8.1V0.5h6.5v5.6h7.7V12h-7.7v5.4h9.1v6h-7.8v6.2
			h7.3v5.9h-7.3V44.9z M242.2,43.5c-6.5,0-8.5-2-8.5-9.3V2.5h22.3v21.9h-15.6v9.7c0,2.7,0.3,3.1,2.8,3.1h7.4c2.2,0,2.6-1.3,2.9-7.4
			c1.4,1.1,4.2,2.2,6,2.7c-0.8,8.2-2.6,11-8.4,11H242.2z M240.3,8.5v10h9.1v-10H240.3z"/>
		<path class="st1" d="M270.1,0h19.1v6.2h-12.3v30.6h-6.8V0z"/>
		<path class="st1" d="M323.9,4.2c-0.4,0.4-0.8,0.8-1.2,1.2c5.1,3.5,14,6.2,23.1,7.3c-1.7,1.5-3.8,4.6-4.8,6.5
			c-2.7-0.5-5.3-1-7.8-1.8c-0.3,1-0.8,1.9-1.2,2.7c3.1,1.6,6.7,3.6,8.7,5.1l-3.7,3.9c-1.6-1.4-4.7-3.3-7.5-4.9
			c-1.5,1.8-3.2,3.3-5,4.6c-0.6-0.7-1.8-1.7-2.9-2.6v9.2c3.2-2.1,5.8-5.1,7-8.6l5.4,1.1c-0.3,0.9-0.7,1.8-1.2,2.7
			c3.1,1.6,6.9,3.8,8.8,5.5l-3.5,3.3h4.4v5.9h-21v9.3h-6.7v-9.3h-20.6v-5.9h20.6v-3.5l-2.9,2.7c-1.3-1.3-4-3.2-6.3-4.7
			c-2,2.1-4.2,3.9-6.5,5.4c-0.9-0.9-2.9-2.6-4.1-3.3c4.4-2.2,8.1-5.7,9.8-9.9l5.1,1.2c-0.4,1-0.9,1.9-1.4,2.8
			c2.1,1.2,4.6,2.9,6.3,4.2v-9l-2.3,2.9c-1.4-1.4-4-3.3-6.5-4.8c-2,2.1-4.3,4-6.8,5.4c-0.8-1-2.8-2.9-3.9-3.6
			c4.1-1.9,7.4-4.9,9.3-8.5c-3.5,1.4-7,2.6-10.4,3.5c-0.5-2-1.7-5.4-2.8-7.4c10.3-1.8,21.5-6.6,27-12.3L323.9,4.2z M328.9,15.8
			c-4.3-1.7-8.2-3.7-11.5-6.3c-3.2,2.2-6.7,4.1-10.4,5.8l3.5,0.7c-0.5,1.3-1.1,2.4-1.7,3.5c2.1,1.2,4.5,2.8,6.1,4.1V12.6h6.7v11.5
			c2.9-2.1,5.2-5.1,6.3-8.5L328.9,15.8z M324.7,39.3c-0.7-0.8-2-1.8-3.2-2.7v2.7H324.7z M337.3,39.3c-1.7-1.4-4.5-3.2-7.1-4.8
			c-1.5,2-3.3,3.6-5.2,4.8H337.3z"/>
		<path class="st1" d="M379.8,0.3c-0.1,2.4-0.2,5.5-0.4,9c0.8,7.8,4.3,29.5,24.5,38.4c-2.1,1.7-4.1,4-5,5.9
			c-12.8-6.1-19.2-17.4-22.6-27.3c-3.2,10.2-9.2,20.6-21.2,27.6c-1.2-1.8-3.4-4-5.7-5.6c23.4-12.5,22.3-38.4,22.6-48.1H379.8z"/>
		<path class="st1" d="M425.2,54.4H406v-6.2h12.3V17.6h6.9V54.4z"/>
	</g>
	<g class="st0">
		<path class="st1" d="M435.6,43.8h9.2v-27H437v-5.2c4.3-0.8,7.2-1.9,9.9-3.6h6.3v35.8h8v6.9h-25.7V43.8z"/>
		<path class="st1" d="M471.1,29.6c-1.8,0-3.4,1.3-4.8,3.8l-4.4-3.3c3-4.7,6.2-6.5,9.4-6.5c5.3,0,7.7,5.1,11.3,5.1
			c1.8,0,3.4-1.3,4.8-3.7l4.4,3.3c-2.9,4.7-6.2,6.5-9.3,6.5C477.1,34.7,474.7,29.6,471.1,29.6z"/>
		<path class="st1" d="M491.3,45.8c11.6-10.4,18.5-18.4,18.5-25c0-4.3-2.4-6.9-6.4-6.9c-3.1,0-5.7,2-7.8,4.4l-4.6-4.6
			c3.9-4.2,7.7-6.5,13.6-6.5c8.1,0,13.4,5.2,13.4,13.2c0,7.7-6.4,16-14.2,23.6c2.1-0.2,5-0.5,6.9-0.5h9.3v7.2h-28.6V45.8z"/>
		<path class="st1" d="M529.1,29.6c-1.8,0-3.4,1.3-4.8,3.8l-4.4-3.3c3-4.7,6.2-6.5,9.4-6.5c5.3,0,7.7,5.1,11.3,5.1
			c1.8,0,3.4-1.3,4.8-3.7l4.4,3.3c-2.9,4.7-6.2,6.5-9.3,6.5C535.1,34.7,532.8,29.6,529.1,29.6z"/>
		<path class="st1" d="M548.4,45.6l4-5.4c2.5,2.5,5.7,4.4,9.5,4.4c4.3,0,7.3-2.1,7.3-5.9c0-4.2-2.5-6.8-11.8-6.8v-6.1
			c7.8,0,10.4-2.7,10.4-6.5c0-3.3-2.1-5.3-5.7-5.4c-3.1,0.1-5.5,1.5-8.1,3.8l-4.3-5.2c3.7-3.2,7.8-5.2,12.8-5.2
			c8.2,0,13.8,4,13.8,11.4c0,4.6-2.6,8-7.2,9.7v0.3c4.8,1.3,8.5,4.9,8.5,10.5c0,7.8-6.9,12.4-15,12.4
			C555.9,51.5,551.4,49,548.4,45.6z"/>
		<path class="st1" d="M589.4,46c0-3.1,2.2-5.5,5.2-5.5c3,0,5.3,2.4,5.3,5.5s-2.3,5.5-5.3,5.5C591.7,51.5,589.4,49.1,589.4,46z
			 M590.7,14.9l-0.3-8h8.5l-0.3,8l-1.2,21.3h-5.5L590.7,14.9z"/>
	</g>
</g>
</svg>
