<?xml version="1.0" encoding="utf-8"?>
<!-- Generator: Adobe Illustrator 25.3.1, SVG Export Plug-In . SVG Version: 6.00 Build 0)  -->
<svg version="1.1" id="圖層_1" xmlns="http://www.w3.org/2000/svg" xmlns:xlink="http://www.w3.org/1999/xlink" x="0px" y="0px"
	 viewBox="0 0 450 80" style="enable-background:new 0 0 450 80;" xml:space="preserve">
<style type="text/css">
	.st0{enable-background:new    ;}
	.st1{fill:#333333;}
	.st2{fill:#ED5D15;}
	.st3{fill:#EB631F;}
</style>
<g>
	<g class="st0">
		<path class="st1" d="M120.7,27.1l-0.3-0.3V20l0.3-0.3l8,0.1h26.8l8-0.1l0.3,0.3v6.7l-0.3,0.3l-8-0.1h-26.8L120.7,27.1z"/>
		<path class="st1" d="M182.9,37.7c0.6,0.1,1.2,0.3,1.9,0.5c3.4,0.7,8.2,0.8,12.3,0.9c5.1,0,10-0.1,16.1-0.5l-2.8,6.4
			c-0.2,0.4-0.3,0.5-0.9,0.5c-4,0-8.9,0-12.6,0c-4.4,0-9.6-0.2-13.4-1.3c-4.4-1.2-7.1-3.2-9.4-6c-0.6,2.5-1.2,4.7-2.4,7.2
			c-0.2,0.2-0.3,0.3-0.5,0.3c-0.1,0-0.2-0.1-0.4-0.2l-4.3-4c1.8-4.4,2.7-10,3-17l0.4-0.3l5.2,1l0.4,0.3c0,2.3-0.2,4.1-0.4,5.9
			c0.5,0.8,1,1.6,1.6,2.4V22.2H173l-5.5,0.1l-0.3-0.3v-5.2l0.3-0.3l5.6,0.1h3.4v-4h-1.4l-5.5,0.1l-0.3-0.3V7.2l0.3-0.3l5.6,0.1h1.4
			v-6l0.3-0.3h5.9l0.3,0.4v5.9h0.6l5.7-0.1l0.3,0.2v5.3l-0.3,0.2l-5.7-0.1h-0.6v4h1.8l5.7-0.1l0.3,0.2v5.3l-0.3,0.2l-5.7-0.1h-1.8
			v4.5h1.7l4.8-0.1l0.3,0.2V32l-0.3,0.2l-4.8-0.1h-1.7V37.7z M199,21.2v8.1c0,1.7,0.3,1.8,3.5,1.8c3.6,0,3.7-0.5,4-5.3l5.4,1.9
			c0.5,0.2,0.5,0.3,0.5,0.8c-0.2,4.4-0.7,6.1-2,7.2c-1.4,1.2-2.9,1.7-8.4,1.7c-8.4,0-9.6-0.9-9.5-5.6l0.1-6.2v-4.5l-0.1-5.2l0.3-0.3
			l5.2,0.1h5.9V9.5h-6.2l-5.6,0.1l-0.3-0.4V4.1l0.4-0.3l5.7,0.1h6.2l6.1-0.1l0.4,0.4l-0.1,5.5v4.8l0.1,6.6l-0.4,0.3l-5.6-0.1H199z"
			/>
		<path class="st1" d="M232.8,24.6l-0.5,0c-1.5-1.3-3.2-2.7-5.1-3.8c-1.7,1.6-3.4,3.1-5.1,4c-0.3,0.1-0.5,0.2-0.7,0.2
			c-0.2,0-0.5-0.1-0.8-0.5l-3-3.1c3.3-1.9,6.2-4.1,8.5-6.7c-2,0.9-3.9,1.8-5.8,2.4c-0.4,0.1-0.6,0.2-0.8,0.2c-0.2,0-0.3-0.1-0.5-0.2
			l-4.3-4.9c9.2-2.5,16.1-6.6,20.9-11.6l0.5-0.1l6.3,1.6l0.1,0.4c-0.2,0.2-0.4,0.4-0.5,0.6c5,3.4,11.2,6.3,19.2,8.2l-3.4,5.4
			c-0.2,0.4-0.3,0.5-0.6,0.5c-0.1,0-0.3,0-0.5-0.1c-1.5-0.5-3-1.1-4.5-1.7c-0.4,0.5-0.7,1-1.1,1.4c2.6,1.2,5.3,2.8,6.9,3.9v0.5
			l-3.1,3.6l-0.5,0c-1.4-1.4-3.9-3.2-6.2-4.4c-1.4,1.5-2.9,2.9-4.3,3.8c-0.3,0.1-0.5,0.2-0.7,0.2c-0.2,0-0.5-0.2-0.8-0.5l-1.3-1.3
			v6.6c3.4-2,5.4-4.1,7.5-6.9h0.5l4.1,2.4l0,0.4c-0.4,0.6-0.8,1.1-1.2,1.6c2.1,1.1,4.2,2.5,6,3.6V31l-2.6,3l4.6-0.1l0.3,0.3v5
			l-0.3,0.3l-8-0.1h-10.8l0.1,7.3h-6.7l0.1-7.3h-10.5l-8,0.1l-0.3-0.3v-5l0.3-0.3l8,0.1h6.4c-1.3-1.2-2.7-2.4-4.3-3.4
			c-1.5,1.2-3.1,2.3-4.8,3c-0.3,0.1-0.5,0.2-0.6,0.2c-0.2,0-0.5-0.2-0.8-0.6l-3.1-3.5c4.5-1.9,6.9-3.9,10-7.2h0.5l4,2.4l0,0.5
			c-0.6,0.6-1.1,1.2-1.7,1.8c1.8,1.1,3.4,2.1,4.8,3.1V31l-2.7,3h2.8V22.2L232.8,24.6z M234.9,10.8l0.3-0.3h5.6l0.3,0.4v9
			c2.5-1.9,4.6-4.2,6.5-6.7c-3.3-1.8-6.6-3.7-9.6-6c-2.6,2.2-5.5,4.1-8.5,5.8l2.9,1.2l0.1,0.5c-0.7,0.9-1.4,1.7-2.1,2.5
			c1.5,0.8,3,1.7,4.4,2.7V10.8z M252,34l1.9,0c-1.6-1.3-3.3-2.4-5-3.6c-1.3,1.2-2.6,2.3-4.1,3.2c-0.2,0.1-0.4,0.2-0.6,0.2
			c-0.2,0-0.5-0.2-0.9-0.6l-2.3-2.3V34H252z"/>
		<path class="st1" d="M289.5,3.3c0,5.2-0.2,9.4-0.6,13.2c3.7,11.9,10.5,18,20.6,23.3l-4.6,6c-0.1,0.2-0.3,0.3-0.5,0.3
			c-0.2,0-0.4-0.1-0.7-0.2c-8-4.2-14.1-10.8-17.4-18.5c-2.9,8.1-9.3,14.7-17.7,18.8c-0.2,0.1-0.4,0.2-0.6,0.2
			c-0.1,0-0.3-0.1-0.5-0.2l-4.8-5.4c9.1-4.2,15.2-10.1,17.4-18.6c1.1-4.3,1.8-10.2,1.6-19.1l0.3-0.3l7.1,0.2L289.5,3.3z"/>
	</g>
	<g class="st0">
		<path class="st1" d="M335.8,40v6h-23.3v-6h7.5V16.8l-8.3,3.1v-6.6L324,8.6h4.3V40H335.8z"/>
		<path class="st1" d="M359.3,31.2c-2.2,2.9-4.9,4.1-7.5,4.1c-1.9,0-3.7-0.5-6.2-2c-3.1-1.8-3.9-2.2-5.5-2.2c-2,0-3.7,1.1-5.5,3.2
			l-1.9-2.2c2.2-2.9,4.9-4.1,7.5-4.1c1.9,0,3.7,0.5,6.2,2c3.1,1.8,3.9,2.2,5.5,2.2c2,0,3.7-1.1,5.5-3.2L359.3,31.2z"/>
		<path class="st1" d="M383.9,38.8V46h-26.2v-5.1c13.4-13.3,16.7-17.5,16.7-22.8c0-2.4-1.2-4-3.5-4c-3,0-4.6,2.3-5.3,7.6l-7.8-2.3
			c1.3-7.2,6-11.2,13.2-11.2c7.7,0,12.3,3.9,12.3,10.5c0,5.8-3.6,10.3-14.4,20.3H383.9z"/>
		<path class="st1" d="M407.8,31.2c-2.2,2.9-4.9,4.1-7.5,4.1c-1.9,0-3.7-0.5-6.2-2c-3.1-1.8-3.9-2.2-5.5-2.2c-2,0-3.7,1.1-5.5,3.2
			l-1.9-2.2c2.2-2.9,4.9-4.1,7.5-4.1c1.9,0,3.7,0.5,6.2,2c3.1,1.8,3.9,2.2,5.5,2.2c2,0,3.7-1.1,5.5-3.2L407.8,31.2z"/>
		<path class="st1" d="M405.7,17.8c1.2-5.5,5.7-9.6,13.2-9.6c6.9,0,12,3.3,12,9.5c0,3-2,6.8-7.3,8.3c5.4,1,8.7,4.1,8.7,9.8
			c0,6.3-5.2,11-13.7,11c-7.2,0-11.6-2.7-14.2-8.9l8.6-3.3c0.4,3.6,2.1,6.1,5.3,6.1c3.1,0,4.3-2.3,4.3-4.7c0-3.8-2.8-5.5-6.6-5.5
			h-3.3l1.5-7h2.4c3.3,0,5.5-2.2,5.5-5.3c0-2.8-1.9-4.2-4-4.2c-2.4,0-3.9,1.6-4.7,5.5L405.7,17.8z"/>
	</g>
	<g class="st0">
		<path class="st1" d="M446.3,41.9c0,2.5-2.1,4.6-4.6,4.6c-2.5,0-4.7-2.1-4.7-4.6c0-2.5,2.1-4.7,4.7-4.7
			C444.2,37.3,446.3,39.4,446.3,41.9z M445.5,34.3h-7.5V8.6h7.5V34.3z"/>
	</g>
</g>
<g>
	<g class="st0">
		<path class="st2" d="M132.3,58.5c-0.1,0.1-0.3,0.3-0.4,0.4c1.9,1.4,5.4,2.7,8.6,3.2c-0.5,0.5-1.1,1.3-1.4,1.9
			c-1.1-0.2-2.2-0.5-3.3-0.9c-0.1,0.4-0.3,0.7-0.5,1.1c1.1,0.6,2.5,1.4,3.2,2l-1.1,1.2c-0.6-0.6-1.8-1.3-2.9-2
			c-0.6,0.8-1.3,1.4-2,1.9c-0.3-0.3-0.7-0.7-1.1-0.9v3.8c1.4-0.8,2.5-2,2.9-3.4l1.6,0.3c-0.1,0.4-0.3,0.8-0.5,1.1
			c1.2,0.6,2.6,1.5,3.3,2.1l-1.1,1.1c-0.6-0.6-1.8-1.4-2.9-2.1c-0.6,0.8-1.3,1.5-2.1,2c-0.3-0.3-0.8-0.7-1.2-1v1.1h7.7v1.7h-7.7v3.6
			h-1.9v-3.6h-7.6v-1.7h7.6v-9.9h1.9v4.6c1.3-0.8,2.3-2,2.8-3.5l0.5,0.1c-1.7-0.7-3.2-1.5-4.5-2.5c-1.2,0.9-2.5,1.7-3.9,2.4l1.1,0.2
			c-0.2,0.5-0.4,0.9-0.7,1.3c0.9,0.6,2.1,1.3,2.6,1.9l-0.9,1.1c-0.5-0.5-1.6-1.3-2.5-1.9c-0.7,0.9-1.6,1.6-2.6,2.2
			c-0.2-0.3-0.8-0.8-1.1-1.1c1.6-0.7,2.9-2,3.6-3.4c-1.3,0.6-2.7,1.1-4,1.4c-0.1-0.6-0.5-1.6-0.8-2.1c3.7-0.7,7.6-2.5,9.5-4.7
			L132.3,58.5z M127.4,66.8c-0.2,0.4-0.3,0.8-0.6,1.2c1,0.6,2.2,1.4,2.8,1.9l-1.1,1.1c-0.5-0.5-1.5-1.3-2.5-1.9
			c-0.8,0.8-1.6,1.6-2.5,2.1c-0.3-0.3-0.8-0.8-1.2-1c1.6-0.8,2.9-2.1,3.6-3.7L127.4,66.8z"/>
		<path class="st2" d="M153.8,57.3c0,0.8,0,1.9-0.1,3.1c0.3,2.6,1.6,11,8.9,14.3c-0.6,0.4-1.2,1.1-1.4,1.7
			c-4.9-2.3-7.2-6.9-8.3-10.7c-1,3.9-3.3,8.2-8,10.8c-0.3-0.5-1-1.1-1.6-1.6c8.6-4.5,8.4-14.2,8.4-17.6H153.8z"/>
		<path class="st2" d="M182.3,66c-0.9,0.7-1.9,1.5-3,2.2c0.9,2.6,2.8,4.9,5.2,5.9c-0.4,0.3-1,1.1-1.3,1.6c-2.6-1.2-4.4-3.5-5.5-6.5
			c-0.3,0.2-0.6,0.3-0.8,0.5c0.7,2.6,0.2,5.1-1,6c-0.7,0.7-1.3,0.8-2.3,0.8c-0.5,0-1.1,0-1.7,0c0-0.5-0.2-1.3-0.5-1.8
			c0.7,0.1,1.4,0.1,1.9,0.1c0.5,0,0.9-0.1,1.3-0.5c0.5-0.4,0.8-1.6,0.7-3c-2.4,1.8-5.8,3.4-8.7,4.3c-0.2-0.5-0.7-1.2-1-1.6
			c3.3-0.8,7.3-2.6,9.4-4.5c-0.1-0.4-0.3-0.8-0.4-1.2c-2.1,1.4-5.2,2.8-7.7,3.5c-0.2-0.4-0.6-1.1-1-1.5c2.6-0.6,6-2,7.9-3.3
			c-0.2-0.3-0.5-0.7-0.8-1c-1.8,1-3.9,1.8-5.9,2.4c-0.2-0.4-0.7-1.2-1-1.6c2.5-0.5,5.2-1.5,7.1-2.7h-4.3v-1.7h11.9v1.7h-5
			c-0.4,0.4-0.9,0.7-1.4,1c0.9,0.9,1.6,1.9,2,2.9c1.5-1,3.2-2.3,4.3-3.4L182.3,66z M167.9,63.5h-1.9v-4.5h7.7
			c-0.2-0.5-0.4-0.9-0.7-1.4l2-0.6c0.4,0.6,0.7,1.3,1,2h7.6v4.5h-2v-2.7h-13.8V63.5z"/>
		<path class="st2" d="M194.9,65.9c-0.1,6.5-0.3,8.7-0.8,9.4c-0.4,0.5-0.7,0.7-1.3,0.8c-0.5,0.1-1.3,0.1-2.1,0.1
			c0-0.5-0.2-1.3-0.5-1.7c0.7,0.1,1.4,0.1,1.7,0.1c0.3,0,0.4,0,0.6-0.3c0.3-0.4,0.4-2.3,0.6-7.3h-2.1c-0.3,4.1-0.9,7.4-2.7,9.7
			c-0.3-0.4-0.9-1.1-1.4-1.4c2.1-2.7,2.3-7.2,2.4-12.8h-2.2v-1.8h4c-0.4-0.8-1-1.9-1.6-2.8l1.7-0.6c0.7,0.9,1.4,2.1,1.8,2.9
			l-1.4,0.5h3.6v1.8h-4.1c0,0.9,0,1.9-0.1,2.8h3.8V65.9z M198,61.6c-0.5,1-1.2,2-1.8,2.7c-0.3-0.3-1.1-0.8-1.5-1
			c1.4-1.5,2.6-3.7,3.2-6l1.8,0.4c-0.2,0.7-0.5,1.5-0.8,2.2h7.4v1.8H198z M201.7,70.3c-0.5,2.1-1.8,4.5-5.3,6.3
			c-0.3-0.4-0.9-1-1.3-1.4c3.1-1.4,4.3-3.3,4.7-4.9h-4v-1.8h4.3c0-0.2,0-0.4,0-0.6v-2.1h-1.3c-0.4,0.8-1,1.5-1.5,2
			c-0.4-0.3-1.1-0.8-1.5-1c1.2-1.2,2.2-2.9,2.8-4.7l1.8,0.4c-0.2,0.5-0.4,1.1-0.7,1.6h5.8v1.7H202v2.1c0,0.2,0,0.4,0,0.6h4.3v1.8
			H201.7z M203,70.7c1.2,1.5,2.8,3.5,3.5,4.8l-1.6,1c-0.7-1.3-2.2-3.4-3.4-5L203,70.7z"/>
		<path class="st2" d="M212.4,70.1c0,0.3-0.1,0.5-0.1,0.8h7.9v5.5h-1.7v-0.7H214v0.8h-1.7v-5.3c-0.3,1.6-0.8,3.3-1.6,4.6
			c-0.4-0.3-1.2-0.7-1.7-0.8c1.6-2.6,1.8-6.2,1.8-8.5v-2.6h8.8v6.3H212.4z M216.9,58c-0.1,0.2-0.2,0.4-0.4,0.5
			c1.6,0.9,3.4,2.1,4.4,2.8l-1,1.6c-1-0.8-2.9-2.1-4.5-3.1c-0.5,0.6-1.1,1.2-1.8,1.7h4v1.2h-4.3v-0.9c-1,0.8-2.1,1.5-3.2,2.1
			c-0.2-0.4-0.7-1.4-1-1.8c2.4-1.1,4.7-2.8,6-4.9L216.9,58z M217.9,68.7v-1.2h-5.3c0,0.4,0,0.8-0.1,1.2H217.9z M212.7,65.2v1.1h5.2
			v-1.1H212.7z M214,72.3v1.9h4.5v-1.9H214z M223.6,71.1h-1.8V59.5h1.8V71.1z M227.5,57.4v16.7c0,1.1-0.3,1.7-0.9,2
			c-0.7,0.3-1.7,0.4-3.4,0.4c-0.1-0.5-0.4-1.4-0.6-2c1.2,0,2.3,0,2.6,0c0.4,0,0.5-0.1,0.5-0.5V57.4H227.5z"/>
		<path class="st2" d="M231.5,75.1c1-0.9,2-2.4,2.5-3.6l1.6,0.7c-0.6,1.3-1.5,2.9-2.5,3.8L231.5,75.1z M249.8,63.6h-18V62h4.6
			c-0.1-0.5-0.4-1-0.6-1.5l1.4-0.3h-4.5v-1.5h7.2c-0.2-0.4-0.3-0.8-0.5-1.2l1.9-0.4c0.3,0.5,0.6,1,0.8,1.6h6.6v1.5h-4.2l1.4,0.3
			c-0.3,0.6-0.6,1.1-0.9,1.5h4.7V63.6z M247.4,70.7h-6.9c1,0.5,2.1,1.2,2.7,1.8l-1.2,1.2c-0.7-0.7-2.1-1.6-3.3-2.2l0.8-0.7h-5.3
			v-6.2h13.2V70.7z M245.5,65.8h-9.4V67h9.4V65.8z M245.5,68.2h-9.4v1.2h9.4V68.2z M242.9,74.8c0.8,0,1-0.2,1-1.9
			c0.4,0.3,1.2,0.5,1.7,0.6c-0.2,2.3-0.8,2.9-2.6,2.9h-3.7c-2.4,0-2.9-0.5-2.9-2.2v-2.5h1.9v2.5c0,0.5,0.2,0.6,1.2,0.6H242.9z
			 M237.7,60.2c0.3,0.6,0.7,1.3,0.8,1.8h4.6c0.3-0.6,0.6-1.3,0.8-1.8H237.7z M247.2,71.2c1,1.1,2.2,2.6,2.7,3.7l-1.7,0.8
			c-0.4-1-1.5-2.6-2.6-3.7L247.2,71.2z"/>
		<path class="st2" d="M264.8,58.1c-0.2,0.3-0.4,0.6-0.7,0.9c2.6,2.5,5.4,4.1,8.5,5.4c-0.5,0.4-1.1,1.2-1.4,1.8
			c-1.1-0.5-2.2-1.1-3.2-1.7v1.4h-10.5v-1.1c-1,0.6-2,1.2-3,1.6c-0.3-0.5-0.9-1.3-1.4-1.7c3.9-1.5,7.8-4.2,9.9-7.4L264.8,58.1z
			 M256.4,68h13.1v8.4h-2.1v-1h-9.1v1.1h-2V68z M258.3,69.8v3.9h9.1v-3.9H258.3z M267.4,64c-1.5-1-3-2.1-4.5-3.6
			c-1.2,1.3-2.6,2.6-4.2,3.6H267.4z"/>
		<path class="st2" d="M275.2,75.8c0.9-1,2-2.8,2.6-4.3l1.9,0.5c-0.7,1.6-1.7,3.4-2.6,4.6L275.2,75.8z M278,71.2h-1.8V58.1h6.3v12.1
			H278V71.2z M278,59.9v3.2h2.7v-3.2H278z M280.7,68.5v-3.6H278v3.6H280.7z M283.1,72c0.3,1.3,0.5,3.1,0.5,4.2l-1.9,0.3
			c0-1.1-0.2-2.9-0.4-4.3L283.1,72z M288.4,59.8c-0.5,2.4-1.6,4.1-4.8,5c-0.2-0.4-0.7-1.1-1-1.4c2.6-0.7,3.5-1.9,3.9-3.6h-3.3v-1.7
			h10.5c0,0,0,0.4,0,0.7c-0.2,2.9-0.4,4.2-0.8,4.7c-0.4,0.4-0.8,0.5-1.3,0.6c-0.5,0.1-1.4,0.1-2.4,0c0-0.5-0.2-1.2-0.5-1.6
			c0.8,0.1,1.6,0.1,2,0.1c0.3,0,0.5,0,0.6-0.2c0.2-0.2,0.4-0.9,0.5-2.6H288.4z M293.1,70.9h-9.2v-5.9h9.2V70.9z M291.2,66.5h-5.5
			v2.8h5.5V66.5z M287.5,71.8c0.5,1.3,1.1,3.1,1.3,4.2l-1.9,0.4c-0.2-1.1-0.7-2.9-1.2-4.3L287.5,71.8z M291.7,71.4
			c0.9,1.3,2.1,3.2,2.6,4.4l-1.9,0.8c-0.5-1.2-1.6-3.1-2.5-4.5L291.7,71.4z"/>
		<path class="st2" d="M302.9,68.1h5.5v1.8h-5.5V68.1z"/>
		<path class="st2" d="M336.1,69.9h-8.4V74c0,1.3-0.4,1.8-1.2,2.1c-0.9,0.3-2.3,0.4-4.5,0.3c-0.1-0.5-0.5-1.4-0.8-1.9
			c1.7,0.1,3.4,0.1,3.8,0c0.5,0,0.6-0.1,0.6-0.6v-4.1h-8.4V68h8.4v-3h-7v-1.9h7v-2.9c-2.2,0.2-4.5,0.3-6.7,0.4
			c0-0.5-0.3-1.3-0.5-1.7c5-0.2,10.9-0.8,14.2-1.7l1.4,1.6c-1.8,0.5-4.1,0.9-6.4,1.2v3.1h7.2V65h-7.2v3h8.4V69.9z"/>
		<path class="st2" d="M343.9,68.7c-0.2-0.5-0.6-1.4-1-2.3v10.1h-1.7v-9.1c-0.5,1.8-1.1,3.5-1.7,4.7c-0.1-0.6-0.5-1.4-0.8-2
			c1-1.6,2-4.6,2.4-7.1h-1.9v-1.8h2v-3.9h1.7v3.9h1.6V63h-1.6v1.2c0.5,0.7,1.7,2.6,1.9,3.2L343.9,68.7z M356.9,70.2
			c-0.6,1.2-1.4,2.3-2.4,3.3c0.5,0.7,1.1,1.1,1.8,1.2c0.4,0,0.7-0.7,0.8-2.2c0.3,0.4,0.9,0.8,1.3,1c-0.4,2.5-1.2,3.2-2.1,3.1
			c-1.3-0.1-2.3-0.8-3.2-2c-1.1,0.8-2.2,1.4-3.5,1.9c-0.2-0.4-0.7-0.9-1-1.3c1.4-0.5,2.7-1.2,3.7-2c-0.4-1-0.8-2.2-1.1-3.6H348
			c0,0.2,0,0.4,0,0.7c1,0.8,2.2,1.8,2.8,2.4l-1.2,1.2c-0.4-0.5-1.1-1.2-1.9-1.8c-0.4,1.6-1.3,3.3-3,4.6c-0.3-0.3-0.9-0.9-1.3-1.2
			c2.4-1.8,2.9-4.1,2.9-5.9h-1.5V68h6c-0.5-3-0.8-6.6-0.9-10.6h1.6c0.1,4.1,0.4,7.7,0.9,10.6h2.5c-0.5-0.4-1-0.8-1.5-1.1l0.9-0.8
			c-1,0.2-1.3,0.3-1.5,0.4c-0.1-0.3-0.3-1-0.5-1.4c0.3-0.1,0.7-0.4,1-0.9c0.2-0.3,0.7-0.9,1.1-1.7c-1.3,0.2-1.7,0.3-1.9,0.4
			c-0.1-0.3-0.3-1-0.5-1.4c0.3-0.1,0.5-0.3,0.7-0.7c0.2-0.4,1-1.8,1.4-3.2l1.4,0.4c-0.5,1.2-1.1,2.4-1.7,3.3l1.2-0.1
			c0.3-0.5,0.5-0.9,0.7-1.4l1.4,0.5c-0.9,1.6-1.9,3.3-2.9,4.6l1.7-0.2c-0.1-0.4-0.3-0.8-0.4-1.1l1.1-0.3c0.4,1,0.9,2.3,1.1,3.1
			l-1.2,0.4c-0.1-0.3-0.1-0.6-0.2-0.9c-0.8,0.1-1.4,0.2-1.9,0.3c0.7,0.4,1.5,1,1.9,1.4l-0.5,0.5h1.7v1.5h-4.9
			c0.2,0.9,0.5,1.7,0.8,2.4c0.7-0.7,1.2-1.5,1.6-2.4L356.9,70.2z M349.1,66.9c0-0.2-0.1-0.5-0.1-0.8c-2.8,0.4-3.3,0.5-3.6,0.7
			c-0.1-0.3-0.3-1-0.5-1.4c0.3-0.1,0.7-0.4,1.1-0.9c0.2-0.3,0.7-0.9,1.2-1.7c-1.4,0.2-1.7,0.3-2,0.4c-0.1-0.3-0.3-1-0.5-1.4
			c0.3-0.1,0.5-0.3,0.8-0.8c0.3-0.4,1.1-2,1.6-3.5l1.4,0.4c-0.6,1.3-1.3,2.6-2,3.7l1.3-0.1c0.3-0.4,0.5-0.9,0.7-1.4l1.4,0.5
			c-0.9,1.6-2,3.3-3,4.5l1.7-0.2c-0.1-0.4-0.3-0.8-0.4-1.2l1.2-0.3c0.4,1,0.8,2.3,1,3L349.1,66.9z"/>
		<path class="st2" d="M365.1,67.9v6.3c0,0.9-0.2,1.5-0.7,1.8c-0.6,0.3-1.4,0.4-2.6,0.4c0-0.5-0.3-1.3-0.5-1.8c0.8,0,1.5,0,1.7,0
			c0.3,0,0.3-0.1,0.3-0.3V69c-0.6,0.4-1.2,0.7-1.8,1l-0.6-1.8c0.7-0.3,1.5-0.8,2.4-1.3v-3.7h-2.1v-1.8h2.1v-4.1h1.8v4.1h1.7v1.8
			h-1.7v2.7l1.1-0.6l0.5,1.7L365.1,67.9z M366.9,66.7h6.3v1.4h-0.7v8.4h-1.5v-2.2c-1.6,0.2-3,0.3-4.3,0.5l-0.2-1.4l1.2-0.1v-5.2
			h-0.8V66.7z M375.6,65.5h-8.4v-1.4h2.5v-4.7h-1.9V58h11.9v1.4h-2.2v4.7h2.7v1.4h-2.7v0.8h-1.8V65.5z M371.1,68.1h-1.9V69h1.9V68.1
			z M371.1,70.1h-1.9v1h1.9V70.1z M371.1,73.1v-0.9h-1.9v1L371.1,73.1z M371.4,59.3v0.8h4.2v-0.8H371.4z M371.4,62.1h4.2v-0.9h-4.2
			V62.1z M375.6,64.1v-0.9h-4.2v0.9H375.6z M380.3,74.5h-0.9v2.1h-1.5v-2.1h-4.4v-1.4h1v-5h-0.8v-1.4h6.6v1.4h-0.9v5h0.9V74.5z
			 M375.9,68.1V69h1.9v-0.9H375.9z M375.9,71h1.9v-0.9h-1.9V71z M377.8,73.1v-1h-1.9v1H377.8z"/>
		<path class="st2" d="M386.9,72.3c-0.5,1.3-1.4,2.6-2.2,3.5c-0.3-0.3-1-0.8-1.4-1c0.8-0.8,1.5-1.9,2-2.9L386.9,72.3z M394.7,66.5
			h-11.3V65h4.8c-0.1-0.3-0.3-0.6-0.4-0.8l1.7-0.4h-5.1V58h9.6v5.8h-4.4c0.2,0.3,0.5,0.8,0.6,1.2h4.5V66.5z M390,71.5v3.1
			c0,0.9-0.1,1.3-0.7,1.5s-1.4,0.3-2.5,0.3c-0.1-0.5-0.3-1.2-0.6-1.6c0.8,0,1.5,0,1.7,0c0.2,0,0.3-0.1,0.3-0.3v-3.1h-3.5v-4.1h9.1
			v4.1H390z M386.2,60.3h5.9v-1h-5.9V60.3z M386.2,62.6h5.9v-1.1h-5.9V62.6z M386.4,70.2h5.4v-1.5h-5.4V70.2z M402.3,69.9
			c-1.6,2.8-4.2,5-7,6.5c-0.3-0.5-0.8-1.1-1.3-1.4l-1.4,0.7c-0.3-0.9-1.1-2.2-1.8-3.2l1.4-0.6c0.7,1,1.5,2.2,1.8,3
			c2.6-1.2,5.1-3.3,6.4-5.6L402.3,69.9z M401.3,58.4c-1.4,1.9-3.5,3.8-5.5,5c-0.3-0.4-0.9-1-1.4-1.3c1.8-1,3.9-2.7,5-4.4L401.3,58.4
			z M401.8,64c-1.5,2.1-3.9,4-6,5.2c-0.3-0.4-0.9-1-1.3-1.4c2-1,4.3-2.8,5.6-4.6L401.8,64z"/>
		<path class="st2" d="M414.2,72c0,0.6,0.1,1.4,0.2,1.8c-5.9,1.6-6.8,1.8-7.3,2.2c-0.2-0.5-0.6-1.3-0.9-1.6c0.4-0.3,0.9-0.8,0.9-1.7
			V57.3h2v6.3h5v1.9h-5v7.7L414.2,72z M421.3,74.2c0.9,0,1-0.7,1.2-3.7c0.5,0.4,1.3,0.7,1.8,0.9c-0.3,3.4-0.8,4.7-2.8,4.7h-3.2
			c-2.2,0-2.8-0.7-2.8-3.3V57.3h2v6.3h5.4v1.9h-5.4v7.4c0,1.2,0.1,1.4,1.1,1.4H421.3z"/>
		<path class="st2" d="M442.5,73.8h-2.3c1.9,0.5,3.9,1.1,5.2,1.6l-1.6,1.1c-1.4-0.5-3.7-1.3-6-2l0.8-0.7h-4.2l1,0.6
			c-1.7,0.9-4.5,1.7-6.7,2.1c-0.3-0.3-0.8-0.9-1.2-1.3c1.9-0.3,4.1-0.9,5.6-1.4h-2.3V69c-0.9,0.5-1.8,0.9-2.7,1.2
			c-0.3-0.4-0.8-1.1-1.2-1.4c1.7-0.5,3.6-1.4,5-2.4h-4.4V65h5.2v-0.8h-2.7v-1.1h2.7v-0.8h-3v-1.1h3v-0.8h1.8v0.8h4.3v-0.8h1.8v0.8h3
			v1.1h-3v0.8h2.8v1.1h-2.8V65h5.2v1.4h-4.1c1.3,0.9,3,1.7,4.6,2.1c-0.4,0.4-1,1-1.2,1.5c-0.9-0.3-1.8-0.7-2.6-1.2V73.8z
			 M429.4,61.8h-1.8v-3.3h8.2c-0.1-0.3-0.3-0.7-0.5-1l1.9-0.5c0.3,0.4,0.6,1,0.8,1.5h7.6v3.3h-1.8V60h-14.4V61.8z M440.6,68.3h-8.1
			v0.8h8.1V68.3z M440.6,70.1h-8.1v0.8h8.1V70.1z M440.6,71.9h-8.1v0.8h8.1V71.9z M434,66.4c-0.3,0.3-0.6,0.6-0.9,0.9h7.3
			c-0.3-0.3-0.6-0.6-0.9-0.9H434z M434.4,63.1h4.3v-0.8h-4.3V63.1z M434.4,65h4.3v-0.8h-4.3V65z"/>
	</g>
</g>
<g>
	<g>
		<path class="st3" d="M54.6,48.1c1.3-1.7,1.9-3.7,1.9-6c0-3-1.4-5.6-3.4-7.4c5.3-3.4,8.8-7.4,7.4-10.8c-2.2-5.6-14.1-8.8-23-5.1
			s-15,14.6-12.4,20.3c1.3,2.8,6.5,2.9,11.6,2c0,0.4-0.1,0.9-0.1,1.3c0,2,0.6,3.8,1.7,5.3l-6.8,15.4l0,0c-0.2,0.3-0.3,0.7-0.3,1.1
			c0,2.3,3.7,4.3,9,5v6.4c0,0,4.3,1.3,4.8,1.3s2.1-0.5,1.5-2.3s-2.1-2.1-2.1-2.1l-0.1-2.9c0.4,0,1,0,1.4,0c0.5,0,1.1,0,1.6-0.1
			l0.1,4.9c0,0,4.3,1.2,4.8,1.1c0.5,0,2-0.6,1.4-2.3c-0.6-1.8-2.1-2.1-2.1-2.1L51.3,69c5.1-1,8.8-3,8.7-5.2c0-0.1-0.2-0.7-0.5-1.4
			L54.6,48.1z M59.4,25.2c0.9,2.1-2.3,5.9-6.9,9.1c-1.7-1.3-3.7-1.9-6-1.9c-0.9,0-1.6,0.1-2.3,0.3l-2.3-7.9l0,0
			C49.2,22,58.1,21.9,59.4,25.2z M26.5,38.7c-1.6-3.3,5.4-9.6,12.8-12.9l2.3,7.9l0,0c-2.3,1.4-4.2,3.7-4.7,6.5
			C31.8,40.9,27.3,40.6,26.5,38.7z M48.7,46.9c-2.3,0-4.3-2.5-4.3-5.7c0-0.7,0.1-1.5,0.3-2.1c0.1-0.3,0.2-0.6,0.3-0.9
			c0.7-1.6,2-2.7,3.5-2.7c0.5,0,1,0.1,1.5,0.3c0.2,0.1,0.4,0.2,0.6,0.3c1.3,1,2.2,2.8,2.2,4.9C52.9,44.2,51.1,46.8,48.7,46.9z"/>
		<g>
			<path class="st3" d="M4.8,25.3C4.9,25.4,6,23.2,6.6,23c0.7-0.2,3.1-1.7,3.6-2.3c0.5-0.6,2.9-2.8,4.1-2.9s3.6-0.6,4.5-0.9
				c0.9-0.2,4-1,5.3-0.6c0,0,0.6-2-1.3-3.3c-2.1-1.4-3.4-0.5-4.3-0.4c-0.7,0-3.2,0.4-4.7,0.3c-1.5-0.1-3.4,0.9-4,1.2
				c-1.4,1-1.5,2.2-3.1,3.5c-2.7,2-3.5,3.2-3.7,3.8C3,21.9,2.5,24.5,4.8,25.3z"/>
			<path class="st3" d="M32.2,64.6c0-0.1-0.2-1-0.5-1.8l-7.2-20.1c1-2,1.9-4.7,1.9-7.5c-0.1-4.1-2.2-7-4.9-9.2
				c-3.3-3.4-2.9-3.7-2.9-3.7c2-1.1,6.7-4.6,6-4.9c-0.7-0.2-3.4-0.2-3.8,0.1c-0.3,0.2-2.3,0.7-3.4,0.9c-1.1,0.1-2.7,0.6-3.2,1
				c-0.2,0.1-1.2,0.6-1.7,1C12,20.7,11.8,21,11,21.7c-1.5,1.3-2.2,1.6-2.9,2c-2.3,1.5-2.3,2.5-2.3,2.5c0.5,1,6.1-1.1,6.1-1.1
				s0,1.3-0.7,2.5S8.7,31.9,8.9,36c0,3.4,2.2,6.1,3.8,7.9L4.1,62.5c-0.1,0.3-0.2,0.9-0.2,1.3c0,2.8,4,4.8,8.7,5.7v6.2
				c0,0,4.3,1.3,4.8,1.3s2.1-0.5,1.5-2.3s-2.1-2.1-2.1-2.1L16.6,70c0.4,0,1,0,1.4,0c0.5,0,1.1,0,1.7-0.1l0.1,4.5
				c0,0,4.3,1.2,4.8,1.1c0.5,0,2-0.6,1.4-2.3c-0.6-1.8-2.1-2.1-2.1-2.1l-0.1-1.5C28.3,68.8,32.2,67.3,32.2,64.6z M19.9,39.3
				c-2.1,0.1-4.1-2.2-4.3-5.3s1.5-5.7,3.6-5.8c2.1-0.1,4.1,2.2,4.3,5.3C23.6,36.6,22,39.2,19.9,39.3z"/>
		</g>
		<g>
			<path class="st3" d="M81.2,67.6l0.2,7.8c0,0-4.8,1.5-5.4,1.5s-2.3-0.5-1.7-2.6c0.6-2,2.3-2.5,2.3-2.5l0.1-4.4L81.2,67.6z"/>
			<path class="st3" d="M74,66.2L73.9,74c0,0-4.9,1.4-5.4,1.3c-0.6,0-2.3-0.6-1.7-2.7c0.6-2,2.5-2.5,2.5-2.5l0.2-4.4L74,66.2z"/>
			<g>
				<g>
					<path class="st3" d="M93.2,5.8C85.9,2,76.9,2.2,71.4,6.2C68,8.7,69,13,72.5,17.7c0.2,0.2,0.4,0.5,0.6,0.9
						c0.4-0.2,0.7-0.3,1.1-0.3c-0.2-0.3-0.5-0.5-0.7-0.9c-2.7-3.4-3.7-6.5-2.5-8.3c2.1-3.2,10.6-1.3,19.1,4.3c0.3,0.2,0.6,0.4,1,0.6
						c0.2,0.1,0.4,0.3,0.6,0.4c8.4,5.9,13.5,13.1,11.2,16.3c-2.2,3.3-11.2,1.1-20.1-4.9c0,0-0.1,0-0.1-0.1c-0.2,0.3-0.4,0.5-0.6,0.9
						c1.6,1.1,3.2,2,4.8,2.9c8.7,4.5,17,5.7,17.9,0.1C106.2,22.9,104.5,11.4,93.2,5.8z M76.1,20.2c0,0.4-0.1,0.9-0.3,1.2
						c1.5,1.4,3.1,2.8,4.9,4.2c0.2-0.3,0.4-0.5,0.6-0.9C79.4,23.2,77.5,21.7,76.1,20.2z"/>
					<path class="st3" d="M92.1,14c0,0-0.1,0.1-0.3,0.4c-1.2,1.5-5.2,6.7-8.9,11.4c0-0.1-0.1-0.2-0.1-0.3c0.1-0.4,0.1-0.9,0.1-1.3
						s0-0.9-0.1-1.3c3.1-4.1,6.3-8.2,7.4-9.6c0.2-0.3,0.3-0.4,0.3-0.4L92.1,14z"/>
				</g>
				<path class="st3" d="M89.5,33.9c-0.5-2-1.5-3.4-2.5-4.5c-1.8-1.8-3.7-2.2-3.7-2.2s-0.2-0.9-0.4-1.4c-0.2,0.3-0.4,0.5-0.6,0.9
					c-2.8,3.5-5.3,6.5-6.1,7.3c-2,1.8-3.1,1.5-3.8,1c-1.3-0.9-1-2.8-0.5-3.7C72.3,30.4,74,28,74,28l1.2,0.9
					c-0.4,0.5-1.6,2.5-1.7,2.7c-0.2,0.3-0.7,1.7,0.1,2c0.9,0.4,1.7-0.6,2.1-1.2c0.2-0.2,2.5-3.1,5.1-6.6c0.2-0.3,0.4-0.5,0.6-0.9
					c0.4-0.6,1-1.2,1.4-1.8c-0.6-3.3-3.5-5.9-7-5.9c-0.7,0-1.5,0.1-2.1,0.3c-0.3,0.1-0.7,0.2-1.1,0.4c-2.3,1.2-4,3.6-4,6.4
					c0,0.4,0,0.7,0.1,1.1c-0.1,0-0.1,0.1-0.2,0.1c0,0-7,1.5-8.8,14.6c-1.2,9.2-2,26.6-1.7,26.8c0.3,0.1,7,3.2,17.7,3.1
					s16.9-2,16.9-2.1C92.5,67.7,92.9,47.3,89.5,33.9z M71.7,19.8c0.4-0.5,1-1,1.4-1.2s0.7-0.3,1.1-0.3s0.9,0.1,1.2,0.3
					c0.4,0.3,0.6,1,0.6,1.6c0,0.4-0.1,0.9-0.3,1.2c-0.2,0.3-0.4,0.7-0.6,1.1c-1.2,1.4-2.8,2-3.7,1.3C70.4,23,70.6,21.2,71.7,19.8z"
					/>
			</g>
		</g>
	</g>
	<path class="st3" d="M6.6,23c0.7-0.2,3.1-1.7,3.6-2.3c0.5-0.6,2.9-2.8,4.1-2.9s3.6-0.6,4.5-0.9c0.9-0.2,4-1,5.3-0.6
		c0,0,0.6-2-1.3-3.3c-2.1-1.4-3.4-0.5-4.3-0.4c-0.7,0-3.2,0.4-4.7,0.3c-1.5-0.1-3.4,0.9-4,1.2c-1.4,1-1.5,2.2-3.1,3.5
		c-2.7,2-3.5,3.2-3.7,3.8c-0.2,0.5-0.7,3.1,1.6,4C4.9,25.4,5.9,23.2,6.6,23z"/>
</g>
</svg>
