<?xml version="1.0" encoding="utf-8"?>
<!-- Generator: Adobe Illustrator 25.3.1, SVG Export Plug-In . SVG Version: 6.00 Build 0)  -->
<svg version="1.1" id="圖層_1" xmlns="http://www.w3.org/2000/svg" xmlns:xlink="http://www.w3.org/1999/xlink" x="0px" y="0px"
	 viewBox="0 0 480 80" style="enable-background:new 0 0 480 80;" xml:space="preserve">
<style type="text/css">
	.st0{enable-background:new    ;}
	.st1{fill:#FFFFFF;}
</style>
<g>
	<g class="st0">
		<path class="st1" d="M130,58.5c-0.1,0.1-0.3,0.3-0.4,0.4c1.9,1.4,5.4,2.7,8.6,3.2c-0.5,0.5-1.1,1.3-1.4,1.9
			c-1.1-0.2-2.2-0.5-3.3-0.9c-0.1,0.4-0.3,0.7-0.5,1.1c1.1,0.6,2.5,1.4,3.2,2l-1.1,1.2c-0.6-0.6-1.8-1.3-2.9-2
			c-0.6,0.8-1.3,1.4-2,1.9c-0.3-0.3-0.7-0.7-1.1-0.9v3.8c1.4-0.8,2.5-2,2.9-3.4l1.6,0.3c-0.1,0.4-0.3,0.8-0.5,1.1
			c1.2,0.6,2.6,1.5,3.3,2.1l-1.1,1.1c-0.6-0.6-1.8-1.4-2.9-2.1c-0.6,0.8-1.3,1.5-2.1,2c-0.3-0.3-0.8-0.7-1.2-1v1.1h7.7v1.7h-7.7v3.6
			h-1.9v-3.6h-7.6v-1.7h7.6v-9.9h1.9v4.6c1.3-0.8,2.3-2,2.8-3.5l0.5,0.1c-1.7-0.7-3.2-1.5-4.5-2.5c-1.2,0.9-2.5,1.7-3.9,2.4l1.1,0.2
			c-0.2,0.5-0.4,0.9-0.7,1.3c0.9,0.6,2.1,1.3,2.6,1.9l-0.9,1.1c-0.5-0.5-1.6-1.3-2.5-1.9c-0.7,0.9-1.6,1.6-2.6,2.2
			c-0.2-0.3-0.8-0.8-1.1-1.1c1.6-0.7,2.9-2,3.6-3.4c-1.3,0.6-2.7,1.1-4,1.4c-0.1-0.6-0.5-1.6-0.8-2.1c3.7-0.7,7.6-2.5,9.5-4.7
			L130,58.5z M125.1,66.8c-0.2,0.4-0.3,0.8-0.6,1.2c1,0.6,2.2,1.4,2.8,1.9l-1.1,1.1c-0.5-0.5-1.5-1.3-2.5-1.9
			c-0.8,0.8-1.6,1.6-2.5,2.1c-0.3-0.3-0.8-0.8-1.2-1c1.6-0.8,2.9-2.1,3.6-3.7L125.1,66.8z"/>
		<path class="st1" d="M151.5,57.3c0,0.8,0,1.9-0.1,3.1c0.3,2.6,1.6,11,8.9,14.3c-0.6,0.4-1.2,1.1-1.4,1.7
			c-4.9-2.3-7.2-6.9-8.3-10.7c-1,3.9-3.3,8.2-8,10.8c-0.3-0.5-1-1.1-1.6-1.6c8.6-4.5,8.4-14.2,8.4-17.6
			C149.4,57.3,151.5,57.3,151.5,57.3z"/>
		<path class="st1" d="M180,66c-0.9,0.7-1.9,1.5-3,2.2c0.9,2.6,2.8,4.9,5.2,5.9c-0.4,0.3-1,1.1-1.3,1.6c-2.6-1.2-4.4-3.5-5.5-6.5
			c-0.3,0.2-0.6,0.3-0.8,0.5c0.7,2.6,0.2,5.1-1,6c-0.7,0.7-1.3,0.8-2.3,0.8c-0.5,0-1.1,0-1.7,0c0-0.5-0.2-1.3-0.5-1.8
			c0.7,0.1,1.4,0.1,1.9,0.1s0.9-0.1,1.3-0.5c0.5-0.4,0.8-1.6,0.7-3c-2.4,1.8-5.8,3.4-8.7,4.3c-0.2-0.5-0.7-1.2-1-1.6
			c3.3-0.8,7.3-2.6,9.4-4.5c-0.1-0.4-0.3-0.8-0.4-1.2c-2.1,1.4-5.2,2.8-7.7,3.5c-0.2-0.4-0.6-1.1-1-1.5c2.6-0.6,6-2,7.9-3.3
			c-0.2-0.3-0.5-0.7-0.8-1c-1.8,1-3.9,1.8-5.9,2.4c-0.2-0.4-0.7-1.2-1-1.6c2.5-0.5,5.2-1.5,7.1-2.7h-4.3v-1.7h11.9v1.7h-5
			c-0.4,0.4-0.9,0.7-1.4,1c0.9,0.9,1.6,1.9,2,2.9c1.5-1,3.2-2.3,4.3-3.4L180,66z M165.6,63.5h-1.9V59h7.7c-0.2-0.5-0.4-0.9-0.7-1.4
			l2-0.6c0.4,0.6,0.7,1.3,1,2h7.6v4.5h-2v-2.7h-13.8L165.6,63.5L165.6,63.5z"/>
		<path class="st1" d="M192.6,65.9c-0.1,6.5-0.3,8.7-0.8,9.4c-0.4,0.5-0.7,0.7-1.3,0.8c-0.5,0.1-1.3,0.1-2.1,0.1
			c0-0.5-0.2-1.3-0.5-1.7c0.7,0.1,1.4,0.1,1.7,0.1s0.4,0,0.6-0.3c0.3-0.4,0.4-2.3,0.6-7.3h-2.1c-0.3,4.1-0.9,7.4-2.7,9.7
			c-0.3-0.4-0.9-1.1-1.4-1.4c2.1-2.7,2.3-7.2,2.4-12.8h-2.2v-1.8h4c-0.4-0.8-1-1.9-1.6-2.8l1.7-0.6c0.7,0.9,1.4,2.1,1.8,2.9
			l-1.4,0.5h3.6v1.8h-4.1c0,0.9,0,1.9-0.1,2.8h3.8v0.6H192.6z M195.7,61.6c-0.5,1-1.2,2-1.8,2.7c-0.3-0.3-1.1-0.8-1.5-1
			c1.4-1.5,2.6-3.7,3.2-6l1.8,0.4c-0.2,0.7-0.5,1.5-0.8,2.2h7.4v1.8L195.7,61.6L195.7,61.6z M199.4,70.3c-0.5,2.1-1.8,4.5-5.3,6.3
			c-0.3-0.4-0.9-1-1.3-1.4c3.1-1.4,4.3-3.3,4.7-4.9h-4v-1.8h4.3c0-0.2,0-0.4,0-0.6v-2.1h-1.3c-0.4,0.8-1,1.5-1.5,2
			c-0.4-0.3-1.1-0.8-1.5-1c1.2-1.2,2.2-2.9,2.8-4.7l1.8,0.4c-0.2,0.5-0.4,1.1-0.7,1.6h5.8v1.7h-3.5v2.1c0,0.2,0,0.4,0,0.6h4.3v1.8
			H199.4z M200.7,70.7c1.2,1.5,2.8,3.5,3.5,4.8l-1.6,1c-0.7-1.3-2.2-3.4-3.4-5L200.7,70.7z"/>
		<path class="st1" d="M210.1,70.1c0,0.3-0.1,0.5-0.1,0.8h7.9v5.5h-1.7v-0.7h-4.5v0.8H210v-5.3c-0.3,1.6-0.8,3.3-1.6,4.6
			c-0.4-0.3-1.2-0.7-1.7-0.8c1.6-2.6,1.8-6.2,1.8-8.5v-2.6h8.8v6.3h-7.2V70.1z M214.6,58c-0.1,0.2-0.2,0.4-0.4,0.5
			c1.6,0.9,3.4,2.1,4.4,2.8l-1,1.6c-1-0.8-2.9-2.1-4.5-3.1c-0.5,0.6-1.1,1.2-1.8,1.7h4v1.2H211v-0.9c-1,0.8-2.1,1.5-3.2,2.1
			c-0.2-0.4-0.7-1.4-1-1.8c2.4-1.1,4.7-2.8,6-4.9L214.6,58z M215.6,68.7v-1.2h-5.3c0,0.4,0,0.8-0.1,1.2H215.6z M210.4,65.2v1.1h5.2
			v-1.1H210.4z M211.7,72.3v1.9h4.5v-1.9H211.7z M221.3,71.1h-1.8V59.5h1.8V71.1z M225.2,57.4v16.7c0,1.1-0.3,1.7-0.9,2
			c-0.7,0.3-1.7,0.4-3.4,0.4c-0.1-0.5-0.4-1.4-0.6-2c1.2,0,2.3,0,2.6,0c0.4,0,0.5-0.1,0.5-0.5V57.4H225.2z"/>
		<path class="st1" d="M229.2,75.1c1-0.9,2-2.4,2.5-3.6l1.6,0.7c-0.6,1.3-1.5,2.9-2.5,3.8L229.2,75.1z M247.5,63.6h-18V62h4.6
			c-0.1-0.5-0.4-1-0.6-1.5l1.4-0.3h-4.5v-1.5h7.2c-0.2-0.4-0.3-0.8-0.5-1.2l1.9-0.4c0.3,0.5,0.6,1,0.8,1.6h6.6v1.5h-4.2l1.4,0.3
			c-0.3,0.6-0.6,1.1-0.9,1.5h4.7v1.6H247.5z M245.1,70.7h-6.9c1,0.5,2.1,1.2,2.7,1.8l-1.2,1.2c-0.7-0.7-2.1-1.6-3.3-2.2l0.8-0.7
			h-5.3v-6.2h13.2V70.7z M243.2,65.8h-9.4V67h9.4V65.8z M243.2,68.2h-9.4v1.2h9.4V68.2z M240.6,74.8c0.8,0,1-0.2,1-1.9
			c0.4,0.3,1.2,0.5,1.7,0.6c-0.2,2.3-0.8,2.9-2.6,2.9H237c-2.4,0-2.9-0.5-2.9-2.2v-2.5h1.9v2.5c0,0.5,0.2,0.6,1.2,0.6H240.6z
			 M235.4,60.2c0.3,0.6,0.7,1.3,0.8,1.8h4.6c0.3-0.6,0.6-1.3,0.8-1.8H235.4z M244.9,71.2c1,1.1,2.2,2.6,2.7,3.7l-1.7,0.8
			c-0.4-1-1.5-2.6-2.6-3.7L244.9,71.2z"/>
		<path class="st1" d="M262.5,58.1c-0.2,0.3-0.4,0.6-0.7,0.9c2.6,2.5,5.4,4.1,8.5,5.4c-0.5,0.4-1.1,1.2-1.4,1.8
			c-1.1-0.5-2.2-1.1-3.2-1.7v1.4h-10.5v-1.1c-1,0.6-2,1.2-3,1.6c-0.3-0.5-0.9-1.3-1.4-1.7c3.9-1.5,7.8-4.2,9.9-7.4L262.5,58.1z
			 M254.1,68h13.1v8.4h-2.1v-1H256v1.1h-2V68H254.1z M256,69.8v3.9h9.1v-3.9H256z M265.1,64c-1.5-1-3-2.1-4.5-3.6
			c-1.2,1.3-2.6,2.6-4.2,3.6H265.1z"/>
		<path class="st1" d="M272.9,75.8c0.9-1,2-2.8,2.6-4.3l1.9,0.5c-0.7,1.6-1.7,3.4-2.6,4.6L272.9,75.8z M275.7,71.2h-1.8V58.1h6.3
			v12.1h-4.5V71.2z M275.7,59.9v3.2h2.7v-3.2H275.7z M278.4,68.5v-3.6h-2.7v3.6H278.4z M280.8,72c0.3,1.3,0.5,3.1,0.5,4.2l-1.9,0.3
			c0-1.1-0.2-2.9-0.4-4.3L280.8,72z M286.1,59.8c-0.5,2.4-1.6,4.1-4.8,5c-0.2-0.4-0.7-1.1-1-1.4c2.6-0.7,3.5-1.9,3.9-3.6h-3.3v-1.7
			h10.5c0,0,0,0.4,0,0.7c-0.2,2.9-0.4,4.2-0.8,4.7c-0.4,0.4-0.8,0.5-1.3,0.6c-0.5,0.1-1.4,0.1-2.4,0c0-0.5-0.2-1.2-0.5-1.6
			c0.8,0.1,1.6,0.1,2,0.1c0.3,0,0.5,0,0.6-0.2c0.2-0.2,0.4-0.9,0.5-2.6C289.5,59.8,286.1,59.8,286.1,59.8z M290.8,70.9h-9.2V65h9.2
			V70.9z M288.9,66.5h-5.5v2.8h5.5V66.5z M285.2,71.8c0.5,1.3,1.1,3.1,1.3,4.2l-1.9,0.4c-0.2-1.1-0.7-2.9-1.2-4.3L285.2,71.8z
			 M289.4,71.4c0.9,1.3,2.1,3.2,2.6,4.4l-1.9,0.8c-0.5-1.2-1.6-3.1-2.5-4.5L289.4,71.4z"/>
		<path class="st1" d="M300.6,68.1h5.5v1.8h-5.5V68.1z"/>
		<path class="st1" d="M333.8,69.9h-8.4V74c0,1.3-0.4,1.8-1.2,2.1c-0.9,0.3-2.3,0.4-4.5,0.3c-0.1-0.5-0.5-1.4-0.8-1.9
			c1.7,0.1,3.4,0.1,3.8,0c0.5,0,0.6-0.1,0.6-0.6v-4.1h-8.4V68h8.4v-3h-7v-1.9h7v-2.9c-2.2,0.2-4.5,0.3-6.7,0.4
			c0-0.5-0.3-1.3-0.5-1.7c5-0.2,10.9-0.8,14.2-1.7l1.4,1.6c-1.8,0.5-4.1,0.9-6.4,1.2v3.1h7.2V65h-7.2v3h8.4v1.9H333.8z"/>
		<path class="st1" d="M341.6,68.7c-0.2-0.5-0.6-1.4-1-2.3v10.1h-1.7v-9.1c-0.5,1.8-1.1,3.5-1.7,4.7c-0.1-0.6-0.5-1.4-0.8-2
			c1-1.6,2-4.6,2.4-7.1h-1.9v-1.8h2v-3.9h1.7v3.9h1.6V63h-1.6v1.2c0.5,0.7,1.7,2.6,1.9,3.2L341.6,68.7z M354.6,70.2
			c-0.6,1.2-1.4,2.3-2.4,3.3c0.5,0.7,1.1,1.1,1.8,1.2c0.4,0,0.7-0.7,0.8-2.2c0.3,0.4,0.9,0.8,1.3,1c-0.4,2.5-1.2,3.2-2.1,3.1
			c-1.3-0.1-2.3-0.8-3.2-2c-1.1,0.8-2.2,1.4-3.5,1.9c-0.2-0.4-0.7-0.9-1-1.3c1.4-0.5,2.7-1.2,3.7-2c-0.4-1-0.8-2.2-1.1-3.6h-3.2
			c0,0.2,0,0.4,0,0.7c1,0.8,2.2,1.8,2.8,2.4l-1.2,1.2c-0.4-0.5-1.1-1.2-1.9-1.8c-0.4,1.6-1.3,3.3-3,4.6c-0.3-0.3-0.9-0.9-1.3-1.2
			c2.4-1.8,2.9-4.1,2.9-5.9h-1.5V68h6c-0.5-3-0.8-6.6-0.9-10.6h1.6c0.1,4.1,0.4,7.7,0.9,10.6h2.5c-0.5-0.4-1-0.8-1.5-1.1l0.9-0.8
			c-1,0.2-1.3,0.3-1.5,0.4c-0.1-0.3-0.3-1-0.5-1.4c0.3-0.1,0.7-0.4,1-0.9c0.2-0.3,0.7-0.9,1.1-1.7c-1.3,0.2-1.7,0.3-1.9,0.4
			c-0.1-0.3-0.3-1-0.5-1.4c0.3-0.1,0.5-0.3,0.7-0.7s1-1.8,1.4-3.2l1.4,0.4c-0.5,1.2-1.1,2.4-1.7,3.3l1.2-0.1
			c0.3-0.5,0.5-0.9,0.7-1.4l1.4,0.5c-0.9,1.6-1.9,3.3-2.9,4.6l1.7-0.2c-0.1-0.4-0.3-0.8-0.4-1.1l1.1-0.3c0.4,1,0.9,2.3,1.1,3.1
			l-1.2,0.4c-0.1-0.3-0.1-0.6-0.2-0.9c-0.8,0.1-1.4,0.2-1.9,0.3c0.7,0.4,1.5,1,1.9,1.4l-0.5,0.5h1.7v1.5h-4.9
			c0.2,0.9,0.5,1.7,0.8,2.4c0.7-0.7,1.2-1.5,1.6-2.4L354.6,70.2z M346.8,66.9c0-0.2-0.1-0.5-0.1-0.8c-2.8,0.4-3.3,0.5-3.6,0.7
			c-0.1-0.3-0.3-1-0.5-1.4c0.3-0.1,0.7-0.4,1.1-0.9c0.2-0.3,0.7-0.9,1.2-1.7c-1.4,0.2-1.7,0.3-2,0.4c-0.1-0.3-0.3-1-0.5-1.4
			c0.3-0.1,0.5-0.3,0.8-0.8c0.3-0.4,1.1-2,1.6-3.5l1.4,0.4c-0.6,1.3-1.3,2.6-2,3.7l1.3-0.1c0.3-0.4,0.5-0.9,0.7-1.4l1.4,0.5
			c-0.9,1.6-2,3.3-3,4.5l1.7-0.2c-0.1-0.4-0.3-0.8-0.4-1.2l1.2-0.3c0.4,1,0.8,2.3,1,3L346.8,66.9z"/>
		<path class="st1" d="M362.8,67.9v6.3c0,0.9-0.2,1.5-0.7,1.8c-0.6,0.3-1.4,0.4-2.6,0.4c0-0.5-0.3-1.3-0.5-1.8c0.8,0,1.5,0,1.7,0
			c0.3,0,0.3-0.1,0.3-0.3V69c-0.6,0.4-1.2,0.7-1.8,1l-0.6-1.8c0.7-0.3,1.5-0.8,2.4-1.3v-3.7h-2.1v-1.8h2.1v-4.1h1.8v4.1h1.7v1.8
			h-1.7v2.7l1.1-0.6l0.5,1.7L362.8,67.9z M364.6,66.7h6.3v1.4h-0.7v8.4h-1.5v-2.2c-1.6,0.2-3,0.3-4.3,0.5l-0.2-1.4l1.2-0.1v-5.2
			h-0.8V66.7z M373.3,65.5h-8.4v-1.4h2.5v-4.7h-1.9V58h11.9v1.4h-2.2v4.7h2.7v1.4h-2.7v0.8h-1.8v-0.8H373.3z M368.8,68.1h-1.9V69
			h1.9V68.1z M368.8,70.1h-1.9v1h1.9V70.1z M368.8,73.1v-0.9h-1.9v1L368.8,73.1z M369.1,59.3v0.8h4.2v-0.8H369.1z M369.1,62.1h4.2
			v-0.9h-4.2V62.1z M373.3,64.1v-0.9h-4.2v0.9H373.3z M378,74.5h-0.9v2.1h-1.5v-2.1h-4.4v-1.4h1v-5h-0.8v-1.4h6.6v1.4h-0.9v5h0.9
			L378,74.5L378,74.5z M373.6,68.1V69h1.9v-0.9H373.6z M373.6,71h1.9v-0.9h-1.9V71z M375.5,73.1v-1h-1.9v1H375.5z"/>
		<path class="st1" d="M384.6,72.3c-0.5,1.3-1.4,2.6-2.2,3.5c-0.3-0.3-1-0.8-1.4-1c0.8-0.8,1.5-1.9,2-2.9L384.6,72.3z M392.4,66.5
			h-11.3V65h4.8c-0.1-0.3-0.3-0.6-0.4-0.8l1.7-0.4h-5.1V58h9.6v5.8h-4.4c0.2,0.3,0.5,0.8,0.6,1.2h4.5L392.4,66.5L392.4,66.5z
			 M387.7,71.5v3.1c0,0.9-0.1,1.3-0.7,1.5s-1.4,0.3-2.5,0.3c-0.1-0.5-0.3-1.2-0.6-1.6c0.8,0,1.5,0,1.7,0s0.3-0.1,0.3-0.3v-3.1h-3.5
			v-4.1h9.1v4.1L387.7,71.5L387.7,71.5z M383.9,60.3h5.9v-1h-5.9V60.3z M383.9,62.6h5.9v-1.1h-5.9V62.6z M384.1,70.2h5.4v-1.5h-5.4
			V70.2z M400,69.9c-1.6,2.8-4.2,5-7,6.5c-0.3-0.5-0.8-1.1-1.3-1.4l-1.4,0.7c-0.3-0.9-1.1-2.2-1.8-3.2l1.4-0.6c0.7,1,1.5,2.2,1.8,3
			c2.6-1.2,5.1-3.3,6.4-5.6L400,69.9z M399,58.4c-1.4,1.9-3.5,3.8-5.5,5c-0.3-0.4-0.9-1-1.4-1.3c1.8-1,3.9-2.7,5-4.4L399,58.4z
			 M399.5,64c-1.5,2.1-3.9,4-6,5.2c-0.3-0.4-0.9-1-1.3-1.4c2-1,4.3-2.8,5.6-4.6L399.5,64z"/>
		<path class="st1" d="M411.9,72c0,0.6,0.1,1.4,0.2,1.8c-5.9,1.6-6.8,1.8-7.3,2.2c-0.2-0.5-0.6-1.3-0.9-1.6c0.4-0.3,0.9-0.8,0.9-1.7
			V57.3h2v6.3h5v1.9h-5v7.7L411.9,72z M419,74.2c0.9,0,1-0.7,1.2-3.7c0.5,0.4,1.3,0.7,1.8,0.9c-0.3,3.4-0.8,4.7-2.8,4.7H416
			c-2.2,0-2.8-0.7-2.8-3.3V57.3h2v6.3h5.4v1.9h-5.4v7.4c0,1.2,0.1,1.4,1.1,1.4h2.7V74.2z"/>
		<path class="st1" d="M440.2,73.8h-2.3c1.9,0.5,3.9,1.1,5.2,1.6l-1.6,1.1c-1.4-0.5-3.7-1.3-6-2l0.8-0.7h-4.2l1,0.6
			c-1.7,0.9-4.5,1.7-6.7,2.1c-0.3-0.3-0.8-0.9-1.2-1.3c1.9-0.3,4.1-0.9,5.6-1.4h-2.3V69c-0.9,0.5-1.8,0.9-2.7,1.2
			c-0.3-0.4-0.8-1.1-1.2-1.4c1.7-0.5,3.6-1.4,5-2.4h-4.4V65h5.2v-0.8h-2.7v-1.1h2.7v-0.8h-3v-1.1h3v-0.8h1.8v0.8h4.3v-0.8h1.8v0.8h3
			v1.1h-3v0.8h2.8v1.1h-2.8V65h5.2v1.4h-4.1c1.3,0.9,3,1.7,4.6,2.1c-0.4,0.4-1,1-1.2,1.5c-0.9-0.3-1.8-0.7-2.6-1.2L440.2,73.8
			L440.2,73.8z M427.1,61.8h-1.8v-3.3h8.2c-0.1-0.3-0.3-0.7-0.5-1l1.9-0.5c0.3,0.4,0.6,1,0.8,1.5h7.6v3.3h-1.8V60h-14.4L427.1,61.8
			L427.1,61.8z M438.3,68.3h-8.1v0.8h8.1V68.3z M438.3,70.1h-8.1v0.8h8.1V70.1z M438.3,71.9h-8.1v0.8h8.1V71.9z M431.7,66.4
			c-0.3,0.3-0.6,0.6-0.9,0.9h7.3c-0.3-0.3-0.6-0.6-0.9-0.9H431.7z M432.1,63.1h4.3v-0.8h-4.3V63.1z M432.1,65h4.3v-0.8h-4.3V65z"/>
	</g>
</g>
<g>
	<g>
		<path class="st1" d="M52.3,48.1c1.3-1.7,1.9-3.7,1.9-6c0-3-1.4-5.6-3.4-7.4c5.3-3.4,8.8-7.4,7.4-10.8c-2.2-5.6-14.1-8.8-23-5.1
			s-15,14.6-12.4,20.3c1.3,2.8,6.5,2.9,11.6,2c0,0.4-0.1,0.9-0.1,1.3c0,2,0.6,3.8,1.7,5.3l-6.8,15.4l0,0c-0.2,0.3-0.3,0.7-0.3,1.1
			c0,2.3,3.7,4.3,9,5v6.4c0,0,4.3,1.3,4.8,1.3s2.1-0.5,1.5-2.3s-2.1-2.1-2.1-2.1L42,69.6c0.4,0,1,0,1.4,0c0.5,0,1.1,0,1.6-0.1
			l0.1,4.9c0,0,4.3,1.2,4.8,1.1c0.5,0,2-0.6,1.4-2.3c-0.6-1.8-2.1-2.1-2.1-2.1L49,69c5.1-1,8.8-3,8.7-5.2c0-0.1-0.2-0.7-0.5-1.4
			L52.3,48.1z M57.1,25.2c0.9,2.1-2.3,5.9-6.9,9.1c-1.7-1.3-3.7-1.9-6-1.9c-0.9,0-1.6,0.1-2.3,0.3l-2.3-7.9l0,0
			C46.9,22,55.8,21.9,57.1,25.2z M24.2,38.7c-1.6-3.3,5.4-9.6,12.8-12.9l2.3,7.9l0,0c-2.3,1.4-4.2,3.7-4.7,6.5
			C29.5,40.9,25,40.6,24.2,38.7z M46.4,46.9c-2.3,0-4.3-2.5-4.3-5.7c0-0.7,0.1-1.5,0.3-2.1c0.1-0.3,0.2-0.6,0.3-0.9
			c0.7-1.6,2-2.7,3.5-2.7c0.5,0,1,0.1,1.5,0.3c0.2,0.1,0.4,0.2,0.6,0.3c1.3,1,2.2,2.8,2.2,4.9C50.6,44.2,48.8,46.8,46.4,46.9z"/>
		<g>
			<path class="st1" d="M2.5,25.3c0.1,0.1,1.2-2.1,1.8-2.3c0.7-0.2,3.1-1.7,3.6-2.3c0.5-0.6,2.9-2.8,4.1-2.9s3.6-0.6,4.5-0.9
				c0.9-0.2,4-1,5.3-0.6c0,0,0.6-2-1.3-3.3c-2.1-1.4-3.4-0.5-4.3-0.4c-0.7,0-3.2,0.4-4.7,0.3c-1.5-0.1-3.4,0.9-4,1.2
				c-1.4,1-1.5,2.2-3.1,3.5c-2.7,2-3.5,3.2-3.7,3.8C0.7,21.9,0.2,24.5,2.5,25.3z"/>
			<path class="st1" d="M29.9,64.6c0-0.1-0.2-1-0.5-1.8l-7.2-20.1c1-2,1.9-4.7,1.9-7.5c-0.1-4.1-2.2-7-4.9-9.2
				c-3.3-3.4-2.9-3.7-2.9-3.7c2-1.1,6.7-4.6,6-4.9c-0.7-0.2-3.4-0.2-3.8,0.1c-0.3,0.2-2.3,0.7-3.4,0.9c-1.1,0.1-2.7,0.6-3.2,1
				c-0.2,0.1-1.2,0.6-1.7,1c-0.5,0.3-0.7,0.6-1.5,1.3c-1.5,1.3-2.2,1.6-2.9,2c-2.3,1.5-2.3,2.5-2.3,2.5c0.5,1,6.1-1.1,6.1-1.1
				s0,1.3-0.7,2.5S6.4,31.9,6.6,36c0,3.4,2.2,6.1,3.8,7.9L1.8,62.5c-0.1,0.3-0.2,0.9-0.2,1.3c0,2.8,4,4.8,8.7,5.7v6.2
				c0,0,4.3,1.3,4.8,1.3s2.1-0.5,1.5-2.3s-2.1-2.1-2.1-2.1L14.3,70c0.4,0,1,0,1.4,0c0.5,0,1.1,0,1.7-0.1l0.1,4.5
				c0,0,4.3,1.2,4.8,1.1c0.5,0,2-0.6,1.4-2.3c-0.6-1.8-2.1-2.1-2.1-2.1l-0.1-1.5C26,68.8,29.9,67.3,29.9,64.6z M17.6,39.3
				c-2.1,0.1-4.1-2.2-4.3-5.3s1.5-5.7,3.6-5.8c2.1-0.1,4.1,2.2,4.3,5.3C21.3,36.6,19.7,39.2,17.6,39.3z"/>
		</g>
		<g>
			<path class="st1" d="M78.9,67.6l0.2,7.8c0,0-4.8,1.5-5.4,1.5s-2.3-0.5-1.7-2.6c0.6-2,2.3-2.5,2.3-2.5l0.1-4.4L78.9,67.6z"/>
			<path class="st1" d="M71.7,66.2L71.6,74c0,0-4.9,1.4-5.4,1.3c-0.6,0-2.3-0.6-1.7-2.7c0.6-2,2.5-2.5,2.5-2.5l0.2-4.4L71.7,66.2z"
				/>
			<g>
				<g>
					<path class="st1" d="M90.9,5.8C83.6,2,74.6,2.2,69.1,6.2c-3.4,2.5-2.4,6.8,1.1,11.5c0.2,0.2,0.4,0.5,0.6,0.9
						c0.4-0.2,0.7-0.3,1.1-0.3c-0.2-0.3-0.5-0.5-0.7-0.9c-2.7-3.4-3.7-6.5-2.5-8.3c2.1-3.2,10.6-1.3,19.1,4.3c0.3,0.2,0.6,0.4,1,0.6
						c0.2,0.1,0.4,0.3,0.6,0.4c8.4,5.9,13.5,13.1,11.2,16.3c-2.2,3.3-11.2,1.1-20.1-4.9c0,0-0.1,0-0.1-0.1c-0.2,0.3-0.4,0.5-0.6,0.9
						c1.6,1.1,3.2,2,4.8,2.9c8.7,4.5,17,5.7,17.9,0.1C103.9,22.9,102.2,11.4,90.9,5.8z M73.8,20.2c0,0.4-0.1,0.9-0.3,1.2
						c1.5,1.4,3.1,2.8,4.9,4.2c0.2-0.3,0.4-0.5,0.6-0.9C77.1,23.2,75.2,21.7,73.8,20.2z"/>
					<path class="st1" d="M89.8,14c0,0-0.1,0.1-0.3,0.4c-1.2,1.5-5.2,6.7-8.9,11.4c0-0.1-0.1-0.2-0.1-0.3c0.1-0.4,0.1-0.9,0.1-1.3
						s0-0.9-0.1-1.3c3.1-4.1,6.3-8.2,7.4-9.6c0.2-0.3,0.3-0.4,0.3-0.4L89.8,14z"/>
				</g>
				<path class="st1" d="M87.2,33.9c-0.5-2-1.5-3.4-2.5-4.5c-1.8-1.8-3.7-2.2-3.7-2.2s-0.2-0.9-0.4-1.4c-0.2,0.3-0.4,0.5-0.6,0.9
					c-2.8,3.5-5.3,6.5-6.1,7.3c-2,1.8-3.1,1.5-3.8,1c-1.3-0.9-1-2.8-0.5-3.7c0.4-0.9,2.1-3.3,2.1-3.3l1.2,0.9
					c-0.4,0.5-1.6,2.5-1.7,2.7c-0.2,0.3-0.7,1.7,0.1,2c0.9,0.4,1.7-0.6,2.1-1.2c0.2-0.2,2.5-3.1,5.1-6.6c0.2-0.3,0.4-0.5,0.6-0.9
					c0.4-0.6,1-1.2,1.4-1.8c-0.6-3.3-3.5-5.9-7-5.9c-0.7,0-1.5,0.1-2.1,0.3c-0.3,0.1-0.7,0.2-1.1,0.4c-2.3,1.2-4,3.6-4,6.4
					c0,0.4,0,0.7,0.1,1.1c-0.1,0-0.1,0.1-0.2,0.1c0,0-7,1.5-8.8,14.6c-1.2,9.2-2,26.6-1.7,26.8c0.3,0.1,7,3.2,17.7,3.1
					s16.9-2,16.9-2.1C90.2,67.7,90.6,47.3,87.2,33.9z M69.4,19.8c0.4-0.5,1-1,1.4-1.2s0.7-0.3,1.1-0.3s0.9,0.1,1.2,0.3
					c0.4,0.3,0.6,1,0.6,1.6c0,0.4-0.1,0.9-0.3,1.2c-0.2,0.3-0.4,0.7-0.6,1.1c-1.2,1.4-2.8,2-3.7,1.3C68.1,23,68.3,21.2,69.4,19.8z"
					/>
			</g>
		</g>
	</g>
	<path class="st1" d="M4.3,23c0.7-0.2,3.1-1.7,3.6-2.3c0.5-0.6,2.9-2.8,4.1-2.9s3.6-0.6,4.5-0.9c0.9-0.2,4-1,5.3-0.6
		c0,0,0.6-2-1.3-3.3c-2.1-1.4-3.4-0.5-4.3-0.4c-0.7,0-3.2,0.4-4.7,0.3c-1.5-0.1-3.4,0.9-4,1.2c-1.4,1-1.5,2.2-3.1,3.5
		c-2.7,2-3.5,3.2-3.7,3.8c-0.2,0.5-0.7,3.1,1.6,4C2.6,25.4,3.6,23.2,4.3,23z"/>
</g>
<g>
	<g>
		<path class="st1" d="M163,21.5v5h-44.6v-5H163z"/>
		<path class="st1" d="M179.1,40.1c2.7,1,6.2,1.3,10.6,1.3c2.9,0,16.9,0,20.5-0.1c-0.7,1.1-1.5,3.1-1.8,4.5h-18.7
			c-9.8,0-15.6-1.4-19.3-7.5c-0.5,3.6-1.4,6.7-2.6,9.3c-0.8-0.5-2.8-1.6-3.9-2.1c2.6-4.9,3.2-12.7,3.3-21.3l4.2,0.3
			c0,2.2-0.1,4.4-0.3,6.5c0.9,2.9,2.1,5,3.7,6.6V20.7h-9.7v-4h8.8v-5.4h-7.5v-4h7.5V2.1h4.3v5.1h6.8v4h-6.8v5.4h8v4h-7.2v6.4h6.7v4
			h-6.7V40.1z M195.1,38.6c-5,0-6.5-1.3-6.5-6.7V4.2H207v18h-14v9.7c0,2.2,0.4,2.6,2.6,2.6h7.6c2,0,2.4-1.2,2.6-6.6
			c1,0.7,2.7,1.5,4,1.8c-0.6,6.8-1.8,8.9-6.3,8.9H195.1z M192.9,8.2v10h9.7v-10H192.9z"/>
		<path class="st1" d="M217.3,1.6h15.8v4.2h-11.2v27.3h-4.6V1.6z"/>
		<path class="st1" d="M259.3,4.8c-0.3,0.3-0.6,0.7-1,1c4.5,3.4,12.6,6.3,20.1,7.4c-1.1,1.1-2.5,3.1-3.2,4.4
			c-2.5-0.5-5.1-1.2-7.6-2.1c-0.3,0.9-0.6,1.7-1.1,2.5c2.6,1.4,5.8,3.3,7.5,4.7l-2.5,2.7c-1.4-1.3-4.2-3.1-6.7-4.6
			c-1.3,1.8-2.9,3.3-4.7,4.5c-0.6-0.6-1.6-1.5-2.5-2.2V32c3.2-1.8,5.7-4.7,6.8-8l3.7,0.7c-0.3,0.9-0.7,1.8-1.1,2.5
			c2.7,1.5,6,3.5,7.6,5l-2.6,2.5c-1.5-1.3-4.2-3.3-6.8-4.8c-1.4,1.8-3.1,3.4-5,4.6c-0.6-0.6-1.8-1.7-2.7-2.3v2.6h18v4h-18v8.4h-4.5
			v-8.4h-17.7v-4h17.7V11.9h4.5v10.7c3-1.9,5.3-4.8,6.4-8.1l1.3,0.2c-4-1.6-7.5-3.6-10.4-5.9c-2.7,2-5.8,3.9-9.1,5.5l2.6,0.5
			c-0.4,1.1-1,2.2-1.5,3.1c2.2,1.4,4.8,3.1,6.1,4.4l-2.2,2.5c-1.3-1.3-3.7-3-5.8-4.5c-1.7,2-3.8,3.8-6.1,5c-0.5-0.7-1.9-2-2.6-2.6
			c3.6-1.7,6.7-4.6,8.3-8c-3.1,1.4-6.3,2.5-9.4,3.4c-0.3-1.4-1.1-3.6-1.9-5c8.5-1.6,17.8-5.9,22.3-11L259.3,4.8z M247.9,24.2
			c-0.4,0.9-0.8,1.9-1.3,2.7c2.3,1.4,5,3.2,6.4,4.5l-2.5,2.5c-1.2-1.2-3.6-2.9-5.7-4.4c-1.8,2-3.8,3.6-5.9,4.9
			c-0.6-0.6-2-1.8-2.7-2.3c3.7-1.9,6.9-5,8.4-8.6L247.9,24.2z"/>
		<path class="st1" d="M304.7,2.2c0,1.9-0.1,4.4-0.3,7.3c0.7,6.1,3.7,25.7,20.8,33.3c-1.3,1-2.7,2.6-3.3,3.9
			c-11.5-5.4-16.9-16.2-19.5-25c-2.5,9.2-7.6,19.1-18.7,25.2c-0.8-1.2-2.3-2.6-3.8-3.6c20.1-10.4,19.5-33.2,19.7-41.1H304.7z"/>
		<path class="st1" d="M340.8,47.5h-15.8v-4.2h11.2V15.9h4.6V47.5z"/>
		<path class="st1" d="M350.7,38.5h7.9V13.4h-6.5V9.8c3.4-0.6,5.8-1.5,7.8-2.7h4.3v31.4h7.1v4.7h-20.6V38.5z"/>
		<path class="st1" d="M378.6,24.8c-1.6,0-2.9,1-4.2,3.3l-3-2.2c2.2-3.7,4.8-5.2,7.3-5.2c4.4,0,6.6,4.5,9.7,4.5c1.6,0,2.9-1,4.1-3.3
			l3.1,2.3c-2.3,3.6-4.9,5.1-7.3,5.1C383.8,29.3,381.7,24.8,378.6,24.8z"/>
		<path class="st1" d="M394.7,39.9c10.6-9.4,16.1-16.4,16.1-22.4c0-3.9-2.1-6.6-6.1-6.6c-2.8,0-5.2,1.8-7.1,4l-3.2-3.1
			c3.1-3.3,6.3-5.4,11-5.4c6.6,0,10.9,4.3,10.9,10.8c0,7-5.5,14.2-13.2,21.5c1.9-0.2,4.1-0.3,5.9-0.3h9v4.8h-23.3V39.9z"/>
		<path class="st1" d="M424.7,24.8c-1.6,0-2.9,1-4.2,3.3l-3-2.2c2.2-3.7,4.8-5.2,7.3-5.2c4.4,0,6.6,4.5,9.7,4.5c1.6,0,2.9-1,4.1-3.3
			l3.1,2.3c-2.3,3.6-4.9,5.1-7.3,5.1C429.9,29.3,427.7,24.8,424.7,24.8z"/>
		<path class="st1" d="M440,38.8l2.7-3.6c2.1,2.2,4.8,4,8.5,4c4.1,0,6.9-2.3,6.9-6c0-4-2.5-6.6-10.7-6.6v-4.2c7.1,0,9.5-2.7,9.5-6.3
			c0-3.2-2.1-5.2-5.5-5.2c-2.8,0-5.1,1.4-7.2,3.4l-2.9-3.5c2.8-2.5,6.2-4.4,10.3-4.4c6.5,0,11,3.3,11,9.3c0,4.2-2.4,7.1-6.2,8.5v0.2
			c4.2,1,7.5,4.2,7.5,9c0,6.5-5.4,10.3-12.1,10.3C446.1,43.8,442.4,41.5,440,38.8z"/>
		<path class="st1" d="M472.5,39.9c0-2.3,1.6-4,3.7-4c2.2,0,3.8,1.7,3.8,4c0,2.3-1.7,3.9-3.8,3.9C474.1,43.8,472.5,42.2,472.5,39.9z
			 M473.5,12l-0.1-5.8h5.7l-0.2,5.8l-0.8,19.6h-3.8L473.5,12z"/>
	</g>
</g>
</svg>
