<?xml version="1.0" encoding="utf-8"?>
<!-- Generator: Adobe Illustrator 25.3.1, SVG Export Plug-In . SVG Version: 6.00 Build 0)  -->
<svg version="1.1" id="圖層_1" xmlns="http://www.w3.org/2000/svg" xmlns:xlink="http://www.w3.org/1999/xlink" x="0px" y="0px"
	 viewBox="0 0 100 100" style="enable-background:new 0 0 100 100;" xml:space="preserve">
<style type="text/css">
	.st0{fill:#FCCF00;}
</style>
<g>
	<g>
		<ellipse transform="matrix(0.8941 -0.4479 0.4479 0.8941 -17.1001 27.6935)" class="st0" cx="50" cy="50" rx="20.2" ry="20.2"/>
		<g>
			<path class="st0" d="M50,22.1L50,22.1c-1.3,0-2.4-1.1-2.4-2.4V2.4C47.6,1.1,48.7,0,50,0l0,0c1.3,0,2.4,1.1,2.4,2.4v17.2
				C52.4,21,51.3,22.1,50,22.1z"/>
			<path class="st0" d="M50,100L50,100c-1.3,0-2.4-1.1-2.4-2.4V80.3c0-1.3,1.1-2.4,2.4-2.4l0,0c1.3,0,2.4,1.1,2.4,2.4v17.2
				C52.4,98.9,51.3,100,50,100z"/>
		</g>
		<g>
			<path class="st0" d="M69.7,30.3L69.7,30.3c-0.9-0.9-0.9-2.5,0-3.4l12.2-12.2c0.9-0.9,2.5-0.9,3.4,0l0,0c0.9,0.9,0.9,2.5,0,3.4
				L73.2,30.3C72.2,31.2,70.7,31.2,69.7,30.3z"/>
			<path class="st0" d="M14.6,85.4L14.6,85.4c-0.9-0.9-0.9-2.5,0-3.4l12.2-12.2c0.9-0.9,2.5-0.9,3.4,0l0,0c0.9,0.9,0.9,2.5,0,3.4
				L18.1,85.4C17.1,86.3,15.6,86.3,14.6,85.4z"/>
		</g>
		<g>
			<path class="st0" d="M77.9,50L77.9,50c0-1.3,1.1-2.4,2.4-2.4h17.2c1.3,0,2.4,1.1,2.4,2.4l0,0c0,1.3-1.1,2.4-2.4,2.4H80.3
				C79,52.4,77.9,51.3,77.9,50z"/>
			<path class="st0" d="M0,50L0,50c0-1.3,1.1-2.4,2.4-2.4h17.2c1.3,0,2.4,1.1,2.4,2.4l0,0c0,1.3-1.1,2.4-2.4,2.4H2.4
				C1.1,52.4,0,51.3,0,50z"/>
		</g>
		<g>
			<path class="st0" d="M69.7,69.7L69.7,69.7c0.9-0.9,2.5-0.9,3.4,0l12.2,12.2c0.9,0.9,0.9,2.5,0,3.4l0,0c-0.9,0.9-2.5,0.9-3.4,0
				L69.7,73.2C68.8,72.2,68.8,70.7,69.7,69.7z"/>
			<path class="st0" d="M14.6,14.6L14.6,14.6c0.9-0.9,2.5-0.9,3.4,0l12.2,12.2c0.9,0.9,0.9,2.5,0,3.4l0,0c-0.9,0.9-2.5,0.9-3.4,0
				L14.6,18.1C13.7,17.1,13.7,15.6,14.6,14.6z"/>
		</g>
	</g>
</g>
</svg>
